SplineFontDB: 3.2
FontName: IsolatedNaskh
FullName: Isolated Naskh
FamilyName: Isolated Naskh
Weight: Book
Copyright: Copyright 2014 Google Inc. All Rights Reserved.
Version: 1.06 uh
ItalicAngle: 0
UnderlinePosition: -205
UnderlineWidth: 102
Ascent: 1638
Descent: 410
InvalidEm: 0
sfntRevision: 0x00010f5c
LayerCount: 2
Layer: 0 1 "Back" 1
Layer: 1 1 "Fore" 0
XUID: [1021 857 1242939066 9318768]
StyleMap: 0x0040
FSType: 0
OS2Version: 4
OS2_WeightWidthSlopeOnly: 0
OS2_UseTypoMetrics: 0
CreationTime: 1359651926
ModificationTime: 1682432269
PfmFamily: 17
TTFWeight: 400
TTFWidth: 5
LineGap: 0
VLineGap: 0
Panose: 2 11 5 2 4 5 4 2 2 4
OS2TypoAscent: 2189
OS2TypoAOffset: 0
OS2TypoDescent: -1298
OS2TypoDOffset: 0
OS2TypoLinegap: 0
OS2WinAscent: 2189
OS2WinAOffset: 0
OS2WinDescent: 1298
OS2WinDOffset: 0
HheadAscent: 2189
HheadAOffset: 0
HheadDescent: -1298
HheadDOffset: 0
OS2SubXSize: 1434
OS2SubYSize: 1331
OS2SubXOff: 0
OS2SubYOff: 287
OS2SupXSize: 1434
OS2SupYSize: 1331
OS2SupXOff: 0
OS2SupYOff: 977
OS2StrikeYSize: 102
OS2StrikeYPos: 512
OS2FamilyClass: 2050
OS2Vendor: 'GOOG'
OS2CodePages: 00000041.00080000
OS2UnicodeRanges: 00002000.80000000.00000008.00000000
Lookup: 2 0 0 "'ccmp' Glyph Composition/Decomposition in Arabic lookup 0" { "'ccmp' Glyph Composition/Decomposition in Arabic lookup 0 subtable"  } ['ccmp' ('arab' <'FAR ' 'SND ' 'URD ' 'dflt' > ) ]
Lookup: 4 0 0 "'ccmp' Glyph Composition/Decomposition in Arabic lookup 1" { "'ccmp' Glyph Composition/Decomposition in Arabic lookup 1 subtable"  } ['ccmp' ('arab' <'FAR ' 'SND ' 'URD ' 'dflt' > ) ]
Lookup: 4 0 0 "'ccmp' Glyph Composition/Decomposition in Arabic lookup 2" { "'ccmp' Glyph Composition/Decomposition in Arabic lookup 2 subtable"  } ['ccmp' ('arab' <'FAR ' 'SND ' 'URD ' 'dflt' > ) ]
Lookup: 1 0 0 "'fina' Terminal Forms in Arabic lookup 3" { "'fina' Terminal Forms in Arabic lookup 3 subtable"  } ['fina' ('arab' <'FAR ' 'SND ' 'URD ' 'dflt' > ) ]

StartChar: uni0021.ar
Encoding: 33 33 3
Width: 421
GlyphClass: 1
Flags: W
LayerCount: 2
Fore
SplineSet
94 -28 m 1,0,1
 118 13 118 13 138.5 53 c 128,-1,2
 159 93 159 93 185 131 c 1,3,4
 269 83 269 83 305 52.5 c 128,-1,5
 341 22 341 22 341 11 c 0,6,7
 341 -11 341 -11 257 -135 c 1,8,-1
 210 -102 l 2,9,10
 172 -75 172 -75 94 -28 c 1,0,1
175 233 m 1,11,12
 152 647 152 647 138 817 c 128,-1,13
 124 987 124 987 105 1143 c 1,14,15
 158 1197 158 1197 243 1258 c 1,16,17
 259 968 259 968 262.5 816 c 128,-1,18
 266 664 266 664 266 439 c 2,19,-1
 266 275 l 1,20,-1
 175 233 l 1,11,12
EndSplineSet
Substitution2: "'locl' Localized Forms in Latin lookup 21 subtable" uni0021
EndChar

StartChar: uni002E.ar
Encoding: 46 46 4
Width: 421
GlyphClass: 1
Flags: W
LayerCount: 2
Fore
SplineSet
94 -28 m 1,0,1
 117 13 117 13 138 53 c 128,-1,2
 159 93 159 93 185 131 c 1,3,4
 341 40 341 40 341 10 c 0,5,6
 341 -13 341 -13 257 -135 c 1,7,8
 157 -66 157 -66 94 -28 c 1,0,1
EndSplineSet
Substitution2: "'locl' Localized Forms in Latin lookup 21 subtable" uni002E
EndChar

StartChar: uni003A.ar
Encoding: 58 58 5
Width: 421
GlyphClass: 1
Flags: W
LayerCount: 2
Fore
SplineSet
94 -29 m 1,0,1
 118 13 118 13 138.5 53 c 128,-1,2
 159 93 159 93 185 131 c 1,3,4
 341 40 341 40 341 10 c 0,5,6
 341 -13 341 -13 257 -135 c 1,7,8
 168 -74 168 -74 94 -29 c 1,0,1
94 696 m 1,9,10
 118 737 118 737 138.5 777 c 128,-1,11
 159 817 159 817 185 855 c 1,12,13
 341 764 341 764 341 734 c 0,14,15
 341 713 341 713 257 589 c 1,16,17
 157 658 157 658 94 696 c 1,9,10
EndSplineSet
EndChar

StartChar: uni0601
Encoding: 1537 1537 6
Width: 3414
GlyphClass: 2
Flags: W
LayerCount: 2
Fore
SplineSet
3080 -389 m 1,0,1
 3204 -265 3204 -265 3204 -222 c 0,2,3
 3204 -213 3204 -213 3196 -213 c 0,4,5
 3176 -213 3176 -213 3126 -229 c 0,6,7
 2994 -271 2994 -271 2745 -333 c 128,-1,8
 2496 -395 2496 -395 2257.5 -429.5 c 128,-1,9
 2019 -464 2019 -464 1821 -464 c 0,10,11
 1597 -464 1597 -464 1408.5 -433 c 128,-1,12
 1220 -402 1220 -402 1051 -331 c 0,13,14
 1026 -321 1026 -321 1015 -321 c 0,15,16
 1005 -321 1005 -321 989 -345.5 c 128,-1,17
 973 -370 973 -370 951 -399.5 c 128,-1,18
 929 -429 929 -429 901 -453.5 c 128,-1,19
 873 -478 873 -478 839 -478 c 0,20,21
 763 -478 763 -478 685 -366 c 0,22,23
 633 -292 633 -292 614 -273.5 c 128,-1,24
 595 -255 595 -255 576 -255 c 0,25,26
 531 -255 531 -255 485 -301 c 128,-1,27
 439 -347 439 -347 388 -440 c 0,28,29
 331 -543 331 -543 294.5 -584 c 128,-1,30
 258 -625 258 -625 224 -625 c 0,31,32
 147 -625 147 -625 106.5 -558 c 128,-1,33
 66 -491 66 -491 66 -372 c 0,34,35
 66 -265 66 -265 138 -123 c 1,36,-1
 202 -158 l 1,37,38
 156 -257 156 -257 156 -316 c 0,39,40
 156 -388 156 -388 177 -421 c 128,-1,41
 198 -454 198 -454 221 -454 c 0,42,43
 247 -454 247 -454 276.5 -417.5 c 128,-1,44
 306 -381 306 -381 376 -259 c 0,45,46
 488 -65 488 -65 601 -65 c 0,47,48
 632 -65 632 -65 659.5 -93.5 c 128,-1,49
 687 -122 687 -122 721 -187 c 0,50,51
 786 -309 786 -309 870 -309 c 0,52,53
 903 -309 903 -309 926 -283.5 c 128,-1,54
 949 -258 949 -258 966 -227 c 128,-1,55
 983 -196 983 -196 996.5 -170.5 c 128,-1,56
 1010 -145 1010 -145 1025 -145 c 0,57,58
 1034 -145 1034 -145 1059 -156 c 0,59,60
 1364 -293 1364 -293 1856 -293 c 0,61,62
 2082 -293 2082 -293 2360.5 -250.5 c 128,-1,63
 2639 -208 2639 -208 3133 -81 c 0,64,65
 3187 -67 3187 -67 3219 -67 c 0,66,67
 3256 -67 3256 -67 3278.5 -92.5 c 128,-1,68
 3301 -118 3301 -118 3301 -149 c 0,69,70
 3301 -277 3301 -277 3135 -438 c 1,71,-1
 3080 -389 l 1,0,1
1661 -196 m 1024,72,-1
2221 -196 m 1024,73,-1
1101 -196 m 1024,74,-1
1941 -196 m 1024,75,-1
1381 -196 m 1024,76,-1
2501 -196 m 1024,77,-1
821 -196 m 1024,78,-1
EndSplineSet
Substitution2: "Single Substitution lookup 16 subtable" uni0601.alt
EndChar

StartChar: uni0608
Encoding: 1544 1544 9
Width: 1712
GlyphClass: 1
Flags: W
LayerCount: 2
Fore
SplineSet
1652 414 m 1,0,1
 1712 383 1712 383 1712 331 c 0,2,3
 1712 271 1712 271 1637.5 216.5 c 128,-1,4
 1563 162 1563 162 1463 110 c 1,5,-1
 1463 84 l 2,6,7
 1463 -45 1463 -45 1412 -155 c 128,-1,8
 1361 -265 1361 -265 1264 -350 c 128,-1,9
 1167 -435 1167 -435 1036.5 -485.5 c 128,-1,10
 906 -536 906 -536 787 -536 c 0,11,12
 612 -536 612 -536 514 -435.5 c 128,-1,13
 416 -335 416 -335 416 -151 c 0,14,15
 416 -49 416 -49 430 22 c 1,16,-1
 382 -3 l 1,17,-1
 158 -125 l 1,18,19
 139 -95 139 -95 139 -61 c 0,20,21
 139 -4 139 -4 186 26 c 0,22,23
 269 83 269 83 482 189 c 1,24,-1
 548 155 l 1,25,26
 508 -5 508 -5 508 -50 c 0,27,28
 508 -200 508 -200 583 -283.5 c 128,-1,29
 658 -367 658 -367 792 -367 c 0,30,31
 899 -367 899 -367 1012.5 -334 c 128,-1,32
 1126 -301 1126 -301 1217.5 -241.5 c 128,-1,33
 1309 -182 1309 -182 1358 -104 c 1,34,35
 1356 -17 1356 -17 1346 58 c 1,36,37
 1189 0 1189 0 1055 0 c 0,38,39
 938 0 938 0 868.5 72.5 c 128,-1,40
 799 145 799 145 799 264 c 0,41,42
 799 368 799 368 841 470 c 128,-1,43
 883 572 883 572 951 634 c 128,-1,44
 1019 696 1019 696 1088 696 c 0,45,46
 1202 696 1202 696 1301.5 579 c 128,-1,47
 1401 462 1401 462 1442 274 c 1,48,49
 1539 330 1539 330 1652 414 c 1,0,1
1104 167 m 0,50,51
 1200 167 1200 167 1314 212 c 1,52,53
 1285 308 1285 308 1242.5 379.5 c 128,-1,54
 1200 451 1200 451 1149.5 486.5 c 128,-1,55
 1099 522 1099 522 1056 522 c 0,56,57
 1014 522 1014 522 972.5 490 c 128,-1,58
 931 458 931 458 904.5 410 c 128,-1,59
 878 362 878 362 878 321 c 0,60,61
 878 246 878 246 936.5 206.5 c 128,-1,62
 995 167 995 167 1104 167 c 0,50,51
EndSplineSet
EndChar

StartChar: uni0609
Encoding: 1545 1545 10
Width: 1132
GlyphClass: 1
Flags: W
LayerCount: 2
Fore
SplineSet
181 -123 m 1,0,1
 134 -85 134 -85 108 -23 c 1,2,3
 217 209 217 209 370.5 509.5 c 128,-1,4
 524 810 524 810 648 1036 c 1,5,6
 672 1019 672 1019 688 989 c 128,-1,7
 704 959 704 959 705 929 c 0,8,9
 705 909 705 909 698 895 c 0,10,11
 372 281 372 281 181 -123 c 1,0,1
70 773 m 1,12,13
 99 824 99 824 124 872 c 128,-1,14
 149 920 149 920 181 968 c 1,15,16
 283 909 283 909 326 871.5 c 128,-1,17
 369 834 369 834 369 818 c 0,18,19
 369 791 369 791 266 643 c 1,20,21
 149 729 149 729 70 773 c 1,12,13
452 103 m 1,22,23
 481 154 481 154 506.5 202 c 128,-1,24
 532 250 532 250 564 298 c 1,25,26
 666 239 666 239 709 201.5 c 128,-1,27
 752 164 752 164 752 148 c 0,28,29
 752 120 752 120 649 -28 c 1,30,31
 549 49 549 49 452 103 c 1,22,23
812 103 m 1,32,33
 841 154 841 154 866.5 202 c 128,-1,34
 892 250 892 250 924 298 c 1,35,36
 1026 239 1026 239 1069 201.5 c 128,-1,37
 1112 164 1112 164 1112 148 c 0,38,39
 1112 120 1112 120 1009 -28 c 1,40,41
 909 49 909 49 812 103 c 1,32,33
275 1163 m 1024,42,-1
EndSplineSet
EndChar

StartChar: uni060A
Encoding: 1546 1546 11
Width: 1480
GlyphClass: 1
Flags: W
LayerCount: 2
Fore
SplineSet
181 -123 m 1,0,1
 134 -85 134 -85 108 -23 c 1,2,3
 217 209 217 209 370.5 509.5 c 128,-1,4
 524 810 524 810 648 1036 c 1,5,6
 672 1019 672 1019 688 989 c 128,-1,7
 704 959 704 959 705 929 c 0,8,9
 705 909 705 909 698 895 c 0,10,11
 372 281 372 281 181 -123 c 1,0,1
70 773 m 1,12,13
 99 824 99 824 124 872 c 128,-1,14
 149 920 149 920 181 968 c 1,15,16
 283 909 283 909 326 871.5 c 128,-1,17
 369 834 369 834 369 818 c 0,18,19
 369 791 369 791 266 643 c 1,20,21
 149 729 149 729 70 773 c 1,12,13
452 103 m 1,22,23
 481 154 481 154 506.5 202 c 128,-1,24
 532 250 532 250 564 298 c 1,25,26
 666 239 666 239 709 201.5 c 128,-1,27
 752 164 752 164 752 148 c 0,28,29
 752 120 752 120 649 -28 c 1,30,31
 549 49 549 49 452 103 c 1,22,23
812 103 m 1,32,33
 841 154 841 154 866.5 202 c 128,-1,34
 892 250 892 250 924 298 c 1,35,36
 1026 239 1026 239 1069 201.5 c 128,-1,37
 1112 164 1112 164 1112 148 c 0,38,39
 1112 120 1112 120 1009 -28 c 1,40,41
 909 49 909 49 812 103 c 1,32,33
1160 103 m 1,42,43
 1189 154 1189 154 1214.5 202 c 128,-1,44
 1240 250 1240 250 1272 298 c 1,45,46
 1374 239 1374 239 1417 201.5 c 128,-1,47
 1460 164 1460 164 1460 148 c 0,48,49
 1460 120 1460 120 1357 -28 c 1,50,51
 1257 49 1257 49 1160 103 c 1,42,43
292 1163 m 1024,52,-1
EndSplineSet
EndChar

StartChar: uni060C
Encoding: 1548 1548 13
Width: 435
GlyphClass: 1
Flags: W
LayerCount: 2
Fore
SplineSet
346 373 m 1,0,1
 297 319 297 319 264.5 234 c 128,-1,2
 232 149 232 149 232 95 c 0,3,4
 232 67 232 67 262.5 49.5 c 128,-1,5
 293 32 293 32 346 15 c 1,6,7
 337 -46 337 -46 298.5 -84 c 128,-1,8
 260 -122 260 -122 209 -122 c 0,9,10
 171 -122 171 -122 142 -103 c 128,-1,11
 113 -84 113 -84 97 -51 c 128,-1,12
 81 -18 81 -18 81 13 c 0,13,14
 81 90 81 90 142 208 c 128,-1,15
 203 326 203 326 290 419 c 1,16,-1
 346 373 l 1,0,1
EndSplineSet
EndChar

StartChar: uni060D
Encoding: 1549 1549 14
Width: 615
GlyphClass: 1
Flags: W
LayerCount: 2
Fore
SplineSet
467 195 m 1,0,1
 342 72 342 72 264 -49.5 c 128,-1,2
 186 -171 186 -171 141 -310 c 1,3,4
 115 -301 115 -301 99.5 -276.5 c 128,-1,5
 84 -252 84 -252 84 -225 c 2,6,-1
 88 -196 l 1,7,8
 146 25 146 25 430 318 c 1,9,-1
 467 195 l 1,0,1
EndSplineSet
EndChar

StartChar: uni060E
Encoding: 1550 1550 15
Width: 1749
GlyphClass: 2
Flags: W
LayerCount: 2
Fore
SplineSet
1661 362 m 1,0,-1
 1714 320 l 1,1,2
 1675 235 1675 235 1628 190 c 0,3,4
 1529 91 1529 91 1312 45.5 c 128,-1,5
 1095 0 1095 0 700 0 c 0,6,7
 386 0 386 0 262.5 64 c 128,-1,8
 139 128 139 128 139 285 c 0,9,10
 139 430 139 430 258 533.5 c 128,-1,11
 377 637 377 637 522 637 c 0,12,13
 642 637 642 637 713.5 547 c 128,-1,14
 785 457 785 457 785 313 c 0,15,16
 785 280 785 280 774.5 220.5 c 128,-1,17
 764 161 764 161 759 148 c 1,18,19
 1501 158 1501 158 1661 362 c 1,0,-1
700 243 m 0,20,21
 700 314 700 314 671.5 366.5 c 128,-1,22
 643 419 643 419 593 448 c 128,-1,23
 543 477 543 477 485 477 c 0,24,25
 420 477 420 477 357.5 455 c 128,-1,26
 295 433 295 433 254.5 397 c 128,-1,27
 214 361 214 361 214 327 c 0,28,29
 214 242 214 242 335 196.5 c 128,-1,30
 456 151 456 151 684 148 c 1,31,32
 700 212 700 212 700 243 c 0,20,21
EndSplineSet
EndChar

StartChar: uni060F
Encoding: 1551 1551 16
Width: 1327
GlyphClass: 2
Flags: W
AnchorPoint: "Anchor-1" 693 -675 basechar 0 69
AnchorPoint: "Anchor-0" 467 1190 basechar 0 67
LayerCount: 2
Fore
SplineSet
942 696 m 1,0,1
 965 665 965 665 965 632 c 256,2,3
 965 599 965 599 947.5 574 c 128,-1,4
 930 549 930 549 901.5 529.5 c 128,-1,5
 873 510 873 510 807 484 c 0,6,7
 561 385 561 385 432 249 c 128,-1,8
 303 113 303 113 303 -51 c 0,9,10
 303 -131 303 -131 330 -196 c 1,11,12
 473 -16 473 -16 604 70 c 128,-1,13
 735 156 735 156 870 156 c 0,14,15
 1013 156 1013 156 1089.5 71.5 c 128,-1,16
 1166 -13 1166 -13 1166 -171 c 0,17,18
 1166 -282 1166 -282 1101.5 -375 c 128,-1,19
 1037 -468 1037 -468 925.5 -521.5 c 128,-1,20
 814 -575 814 -575 693 -575 c 0,21,22
 564 -575 564 -575 466 -522.5 c 128,-1,23
 368 -470 368 -470 309 -373 c 1,24,25
 236 -462 236 -462 138 -608 c 1,26,-1
 78 -564 l 1,27,28
 176 -405 176 -405 265 -281 c 1,29,30
 229 -185 229 -185 229 -51 c 0,31,32
 229 76 229 76 280 193 c 128,-1,33
 331 310 331 310 417 396 c 1,34,35
 302 422 302 422 220.5 508 c 128,-1,36
 139 594 139 594 139 693 c 0,37,38
 139 780 139 780 186 875.5 c 128,-1,39
 233 971 233 971 309 1030.5 c 128,-1,40
 385 1090 385 1090 467 1090 c 0,41,42
 535 1090 535 1090 600 1055.5 c 128,-1,43
 665 1021 665 1021 754 943 c 1,44,-1
 717 879 l 1,45,46
 636 910 636 910 599 918 c 128,-1,47
 562 926 562 926 518 926 c 0,48,49
 396 926 396 926 256 851 c 1,50,51
 256 723 256 723 349.5 641.5 c 128,-1,52
 443 560 443 560 606 547 c 1,53,54
 741 633 741 633 942 696 c 1,0,1
709 -418 m 0,55,56
 811 -418 811 -418 905.5 -386 c 128,-1,57
 1000 -354 1000 -354 1046.5 -300 c 128,-1,58
 1093 -246 1093 -246 1093 -176 c 0,59,60
 1093 -112 1093 -112 1029 -65 c 128,-1,61
 965 -18 965 -18 884 -18 c 0,62,63
 639 -18 639 -18 386 -286 c 1,64,65
 446 -351 446 -351 531.5 -384.5 c 128,-1,66
 617 -418 617 -418 709 -418 c 0,55,56
467 1190 m 1024,67,-1
1178 -537 m 1024,68,-1
693 -675 m 1024,69,-1
EndSplineSet
EndChar

StartChar: uni0610
Encoding: 1552 1552 17
Width: 0
GlyphClass: 4
Flags: W
AnchorPoint: "Anchor-6" 149 1407 basemark 0 31
AnchorPoint: "Anchor-6" 203 960 mark 0 30
AnchorPoint: "Anchor-3" 203 960 mark 0 30
AnchorPoint: "Anchor-0" 203 960 mark 0 30
LayerCount: 2
Fore
SplineSet
68 1189 m 1,0,1
 168 1357 168 1357 265 1357 c 0,2,3
 304 1357 304 1357 337.5 1323 c 128,-1,4
 371 1289 371 1289 371 1252 c 0,5,6
 371 1169 371 1169 313 1118.5 c 128,-1,7
 255 1068 255 1068 163 1068 c 0,8,9
 119 1068 119 1068 79 1078 c 1,10,11
 79 1007 79 1007 68 978 c 1,12,13
 46 941 46 941 15 937 c 1,14,15
 22 986 22 986 22 1038 c 0,16,17
 22 1112 22 1112 -21 1207 c 1,18,19
 3 1266 3 1266 24 1293 c 1,20,21
 48 1225 48 1225 68 1189 c 1,0,1
91 1153 m 1,22,23
 117 1142 117 1142 165 1142 c 0,24,25
 291 1142 291 1142 332 1205 c 1,26,27
 310 1273 310 1273 243 1273 c 0,28,29
 157 1273 157 1273 91 1153 c 1,22,23
203 960 m 1024,30,-1
149 1407 m 1024,31,-1
EndSplineSet
EndChar

StartChar: uni0611
Encoding: 1553 1553 18
Width: 0
GlyphClass: 4
Flags: W
AnchorPoint: "Anchor-6" 135 1403 basemark 0 42
AnchorPoint: "Anchor-6" 186 960 mark 0 41
AnchorPoint: "Anchor-3" 186 960 mark 0 41
AnchorPoint: "Anchor-0" 186 960 mark 0 41
LayerCount: 2
Fore
SplineSet
146 1063 m 0,0,1
 105 1063 105 1063 78 1069 c 1,2,3
 78 943 78 943 11 937 c 1,4,5
 18 998 18 998 18 1038 c 0,6,7
 18 1112 18 1112 -25 1207 c 1,8,9
 -8 1253 -8 1253 18 1291 c 1,10,11
 64 1186 64 1186 77 1168 c 128,-1,12
 90 1150 90 1150 105.5 1143 c 128,-1,13
 121 1136 121 1136 141 1136 c 2,14,-1
 145 1136 l 1,15,-1
 135 1148 l 2,16,17
 118 1174 118 1174 118 1203 c 0,18,19
 118 1255 118 1255 155.5 1304 c 128,-1,20
 193 1353 193 1353 239 1353 c 0,21,22
 262 1353 262 1353 284 1342.5 c 128,-1,23
 306 1332 306 1332 346 1297 c 1,24,-1
 327 1269 l 1,25,26
 288 1287 288 1287 250 1287 c 0,27,28
 213 1287 213 1287 169 1263 c 1,29,30
 169 1185 169 1185 247 1161 c 1,31,-1
 268 1157 l 1,32,-1
 270 1156 l 1,33,34
 342 1176 342 1176 383 1197 c 1,35,36
 389 1182 389 1182 389 1170 c 0,37,38
 389 1130 389 1130 354 1110 c 128,-1,39
 319 1090 319 1090 259 1076.5 c 128,-1,40
 199 1063 199 1063 146 1063 c 0,0,1
186 960 m 1024,41,-1
135 1403 m 1024,42,-1
EndSplineSet
EndChar

StartChar: uni0612
Encoding: 1554 1554 19
Width: 0
GlyphClass: 4
Flags: W
AnchorPoint: "Anchor-6" 98 1481 basemark 0 47
AnchorPoint: "Anchor-6" 57 1000 mark 0 46
AnchorPoint: "Anchor-3" 57 1000 mark 0 46
AnchorPoint: "Anchor-0" 57 1000 mark 0 46
LayerCount: 2
Fore
SplineSet
-107 1029 m 1,0,1
 -107 1109 -107 1109 -65 1173 c 128,-1,2
 -23 1237 -23 1237 54 1273 c 1,3,-1
 13 1285 l 2,4,5
 -14 1293 -14 1293 -38 1293 c 0,6,7
 -93 1293 -93 1293 -118 1263 c 1,8,9
 -138 1276 -138 1276 -138 1301 c 0,10,11
 -138 1331 -138 1331 -110 1350 c 128,-1,12
 -82 1369 -82 1369 -40 1369 c 0,13,14
 5 1369 5 1369 80 1343 c 0,15,16
 154 1317 154 1317 202 1317 c 2,17,-1
 262 1321 l 1,18,-1
 234 1246 l 1,19,-1
 185 1243 l 1,20,-1
 183 1243 l 1,21,22
 74 1225 74 1225 0.5 1164 c 128,-1,23
 -73 1103 -73 1103 -74 1029 c 1,24,-1
 -107 1029 l 1,0,1
219 1020 m 0,25,26
 201 1020 201 1020 161.5 1039 c 128,-1,27
 122 1058 122 1058 101 1077 c 1,28,-1
 114 1109 l 1,29,30
 175 1094 175 1094 201 1094 c 0,31,32
 260 1094 260 1094 298 1128.5 c 128,-1,33
 336 1163 336 1163 354 1218 c 1,34,35
 322 1285 322 1285 301 1320 c 0,36,37
 279 1359 279 1359 279 1389 c 0,38,39
 279 1426 279 1426 335 1451 c 1,40,-1
 358 1376 l 1,41,42
 394 1277 394 1277 394 1243 c 0,43,44
 394 1150 394 1150 344.5 1085 c 128,-1,45
 295 1020 295 1020 219 1020 c 0,25,26
57 1000 m 1024,46,-1
98 1481 m 1024,47,-1
EndSplineSet
EndChar

StartChar: uni0613
Encoding: 1555 1555 20
Width: 0
GlyphClass: 4
Flags: W
AnchorPoint: "Anchor-6" 166 1490 basemark 0 60
AnchorPoint: "Anchor-6" 79 925 mark 0 59
AnchorPoint: "Anchor-3" 79 925 mark 0 59
AnchorPoint: "Anchor-0" 79 925 mark 0 59
LayerCount: 2
Fore
SplineSet
-63 1381 m 1,0,-1
 -17 1440 l 1,1,2
 10 1423 10 1423 48 1382 c 1,3,4
 38 1369 38 1369 26.5 1352 c 128,-1,5
 15 1335 15 1335 1 1325 c 1,6,-1
 -63 1381 l 1,0,-1
276 945 m 0,7,8
 257 945 257 945 219 964 c 128,-1,9
 181 983 181 983 159 1002 c 1,10,-1
 171 1033 l 1,11,12
 233 1019 233 1019 259 1019 c 0,13,14
 371 1019 371 1019 411 1143 c 1,15,16
 391 1189 391 1189 359 1245 c 0,17,18
 337 1284 337 1284 337 1313 c 0,19,20
 337 1336 337 1336 351 1350 c 128,-1,21
 365 1364 365 1364 393 1376 c 1,22,23
 402 1338 402 1338 415 1301 c 0,24,25
 451 1210 451 1210 451 1168 c 0,26,27
 451 1075 451 1075 401.5 1010 c 128,-1,28
 352 945 352 945 276 945 c 0,7,8
-25 1188 m 1,29,30
 74 1355 74 1355 171 1355 c 0,31,32
 211 1355 211 1355 244.5 1320.5 c 128,-1,33
 278 1286 278 1286 278 1249 c 0,34,35
 278 1165 278 1165 219.5 1115.5 c 128,-1,36
 161 1066 161 1066 70 1066 c 0,37,38
 26 1066 26 1066 -13 1076 c 1,39,40
 -13 1000 -13 1000 -25 976 c 0,41,42
 -49 938 -49 938 -77 935 c 1,43,44
 -71 1005 -71 1005 -71 1037 c 0,45,46
 -71 1107 -71 1107 -113 1205 c 1,47,48
 -93 1262 -93 1262 -69 1291 c 1,49,50
 -47 1228 -47 1228 -25 1188 c 1,29,30
-2 1152 m 1,51,52
 24 1140 24 1140 71 1140 c 0,53,54
 197 1140 197 1140 239 1204 c 1,55,56
 219 1271 219 1271 150 1271 c 0,57,58
 61 1271 61 1271 -2 1152 c 1,51,52
79 925 m 1024,59,-1
166 1490 m 1024,60,-1
EndSplineSet
EndChar

StartChar: uni0614
Encoding: 1556 1556 21
Width: 0
GlyphClass: 4
Flags: W
AnchorPoint: "Anchor-6" 135 1289 basemark 0 25
AnchorPoint: "Anchor-6" 91 1026 mark 0 24
AnchorPoint: "Anchor-3" 91 1026 mark 0 24
AnchorPoint: "Anchor-0" 91 1026 mark 0 24
LayerCount: 2
Fore
SplineSet
441 1220 m 1,0,1
 377 1046 377 1046 281 1046 c 0,2,3
 220 1046 220 1046 183 1120 c 1,4,5
 139 1085 139 1085 80 1073.5 c 128,-1,6
 21 1062 21 1062 -53 1062 c 0,7,8
 -158 1062 -158 1062 -212.5 1073.5 c 128,-1,9
 -267 1085 -267 1085 -267 1125 c 2,10,-1
 -266 1136 l 1,11,-1
 -187 1135 l 2,12,13
 -59 1135 -59 1135 15 1142 c 128,-1,14
 89 1149 89 1149 129.5 1166.5 c 128,-1,15
 170 1184 170 1184 215 1239 c 1,16,-1
 243 1228 l 1,17,-1
 243 1210 l 2,18,19
 243 1182 243 1182 263 1159 c 128,-1,20
 283 1136 283 1136 305 1136 c 0,21,22
 355 1136 355 1136 415 1241 c 1,23,-1
 441 1220 l 1,0,1
91 1026 m 1024,24,-1
135 1289 m 1024,25,-1
EndSplineSet
EndChar

StartChar: uni0615
Encoding: 1557 1557 22
Width: 0
GlyphClass: 4
Flags: W
AnchorPoint: "Anchor-6" 150 1331 basemark 0 32
AnchorPoint: "Anchor-6" 98 876 mark 0 31
AnchorPoint: "Anchor-3" 98 876 mark 0 31
AnchorPoint: "Anchor-0" 98 876 mark 0 31
LayerCount: 2
Fore
SplineSet
80 896 m 0,0,1
 -38 896 -38 896 -77.5 911 c 128,-1,2
 -117 926 -117 926 -163 957 c 1,3,-1
 -156 982 l 1,4,-1
 -40 958 l 1,5,-1
 -5 1001 l 1,6,-1
 -27 1125 l 2,7,8
 -45 1221 -45 1221 -45 1256 c 0,9,10
 -45 1302 -45 1302 2 1311 c 1,11,-1
 28 1226 l 1,12,-1
 9 1211 l 1,13,14
 19 1107 19 1107 23 1033 c 1,15,16
 111 1131 111 1131 184 1131 c 0,17,18
 221 1131 221 1131 261 1099 c 128,-1,19
 301 1067 301 1067 301 1037 c 0,20,21
 301 971 301 971 243 933.5 c 128,-1,22
 185 896 185 896 80 896 c 0,0,1
88 950 m 1,23,24
 138 950 138 950 179.5 961 c 128,-1,25
 221 972 221 972 269 1001 c 1,26,27
 230 1072 230 1072 167 1072 c 0,28,29
 94 1072 94 1072 -3 953 c 1,30,-1
 88 950 l 1,23,24
98 876 m 1024,31,-1
150 1331 m 1024,32,-1
EndSplineSet
EndChar

StartChar: uni0616
Encoding: 1558 1558 23
Width: 0
GlyphClass: 4
Flags: W
AnchorPoint: "Anchor-6" 0 1689 basemark 0 47
AnchorPoint: "Anchor-6" 0 981 mark 0 46
AnchorPoint: "Anchor-3" 0 981 mark 0 46
AnchorPoint: "Anchor-0" 0 981 mark 0 46
LayerCount: 2
Fore
SplineSet
-93 1593 m 1,0,1
 -68 1620 -68 1620 -43 1636 c 1,2,-1
 -31 1431 l 2,3,4
 -25 1342 -25 1342 -25 1269 c 0,5,6
 -25 1254 -25 1254 -32.5 1229.5 c 128,-1,7
 -40 1205 -40 1205 -51 1186 c 1,8,-1
 -195 1149 l 2,9,10
 -237 1136 -237 1136 -280 1121.5 c 128,-1,11
 -323 1107 -323 1107 -361 1084 c 1,12,13
 -287 1061 -287 1061 -53 1061 c 0,14,15
 26 1061 26 1061 155.5 1071 c 128,-1,16
 285 1081 285 1081 347 1094 c 1,17,18
 358 1081 358 1081 358 1068 c 0,19,20
 358 1048 358 1048 334.5 1035.5 c 128,-1,21
 311 1023 311 1023 179 1012 c 128,-1,22
 47 1001 47 1001 -58 1001 c 0,23,24
 -196 1001 -196 1001 -296.5 1015.5 c 128,-1,25
 -397 1030 -397 1030 -397 1048 c 0,26,27
 -397 1054 -397 1054 -390 1078.5 c 128,-1,28
 -383 1103 -383 1103 -377 1113 c 0,29,30
 -328 1155 -328 1155 -256 1185 c 128,-1,31
 -184 1215 -184 1215 -57 1238 c 1,32,33
 -68 1380 -68 1380 -93 1593 c 1,0,1
84 1388 m 1,34,-1
 84 1345 l 1,35,-1
 78 1172 l 1,36,-1
 43 1165 l 1,37,-1
 42 1236 l 1,38,-1
 36 1382 l 1,39,-1
 22 1582 l 2,40,41
 22 1604 22 1604 33 1618 c 128,-1,42
 44 1632 44 1632 72 1639 c 1,43,-1
 100 1547 l 1,44,-1
 79 1529 l 1,45,-1
 84 1388 l 1,34,-1
0 981 m 1024,46,-1
0 1689 m 1024,47,-1
EndSplineSet
EndChar

StartChar: uni0617
Encoding: 1559 1559 24
Width: 0
GlyphClass: 4
Flags: W
AnchorPoint: "Anchor-6" 3 1478 basemark 0 29
AnchorPoint: "Anchor-6" 0 836 mark 0 28
AnchorPoint: "Anchor-3" 0 836 mark 0 28
AnchorPoint: "Anchor-0" 0 836 mark 0 28
LayerCount: 2
Fore
SplineSet
-46 856 m 0,0,1
 -64 856 -64 856 -94 869 c 128,-1,2
 -124 882 -124 882 -148 900 c 1,3,-1
 -138 925 l 1,4,5
 -96 917 -96 917 -64 917 c 0,6,7
 54 917 54 917 99 1053 c 1,8,-1
 75 1102 l 2,9,10
 56 1136 56 1136 39.5 1169 c 128,-1,11
 23 1202 23 1202 23 1226 c 0,12,13
 23 1246 23 1246 35 1257.5 c 128,-1,14
 47 1269 47 1269 69 1280 c 1,15,-1
 104 1179 l 2,16,17
 128 1114 128 1114 128 1077 c 0,18,19
 128 985 128 985 79.5 920.5 c 128,-1,20
 31 856 31 856 -46 856 c 0,0,1
81 1378 m 1,21,22
 62 1349 62 1349 31 1321 c 1,23,24
 -4 1349 -4 1349 -25 1371 c 1,25,-1
 30 1428 l 1,26,27
 60 1395 60 1395 81 1378 c 1,21,22
0 836 m 1024,28,-1
3 1478 m 1024,29,-1
EndSplineSet
EndChar

StartChar: uni0618
Encoding: 1560 1560 25
Width: 0
GlyphClass: 4
Flags: W
AnchorPoint: "Anchor-6" -7 1169 basemark 0 10
AnchorPoint: "Anchor-6" 0 916 mark 0 9
AnchorPoint: "Anchor-3" 0 916 mark 0 9
AnchorPoint: "Anchor-0" 0 916 mark 0 9
LayerCount: 2
Fore
SplineSet
148 1119 m 1,0,-1
 150 1097 l 1,1,2
 150 1044 150 1044 103 1025 c 0,3,4
 8 985 8 985 -59 964 c 2,5,-1
 -112 946 l 1,6,-1
 -102 1033 l 1,7,8
 47 1079 47 1079 148 1119 c 1,0,-1
0 916 m 1024,9,-1
-7 1169 m 1024,10,-1
EndSplineSet
EndChar

StartChar: uni0619
Encoding: 1561 1561 26
Width: 0
GlyphClass: 4
Flags: W
AnchorPoint: "Anchor-6" -1 1285 basemark 0 32
AnchorPoint: "Anchor-6" 0 897 mark 0 31
AnchorPoint: "Anchor-3" 0 897 mark 0 31
AnchorPoint: "Anchor-0" 0 897 mark 0 31
LayerCount: 2
Fore
SplineSet
-111 969 m 1,0,1
 -32 988 -32 988 3 1015 c 1,2,3
 -66 1053 -66 1053 -66 1109 c 0,4,5
 -66 1158 -66 1158 -28.5 1196.5 c 128,-1,6
 9 1235 9 1235 47 1235 c 0,7,8
 72 1235 72 1235 92 1210 c 128,-1,9
 112 1185 112 1185 112 1126 c 0,10,11
 112 1093 112 1093 101 1060 c 1,12,-1
 144 1058 l 1,13,14
 141 1027 141 1027 122.5 1014.5 c 128,-1,15
 104 1002 104 1002 65 1002 c 1,16,17
 -3 917 -3 917 -52 917 c 0,18,19
 -79 917 -79 917 -95 930.5 c 128,-1,20
 -111 944 -111 944 -111 969 c 1,0,1
61 1105 m 0,21,22
 61 1170 61 1170 22 1170 c 0,23,24
 8 1170 8 1170 -4.5 1159 c 128,-1,25
 -17 1148 -17 1148 -17 1139 c 0,26,27
 -17 1095 -17 1095 52 1069 c 1,28,-1
 56 1078 l 2,29,30
 61 1094 61 1094 61 1105 c 0,21,22
0 897 m 1024,31,-1
-1 1285 m 1024,32,-1
EndSplineSet
EndChar

StartChar: uni061A
Encoding: 1562 1562 27
Width: 0
GlyphClass: 4
Flags: W
AnchorPoint: "Anchor-7" 15 -386 basemark 0 10
AnchorPoint: "Anchor-7" 0 -183 mark 0 9
AnchorPoint: "Anchor-4" 0 -183 mark 0 9
AnchorPoint: "Anchor-1" 0 -183 mark 0 9
LayerCount: 2
Fore
SplineSet
148 -193 m 1,0,-1
 150 -215 l 1,1,2
 150 -268 150 -268 103 -287 c 0,3,4
 8 -327 8 -327 -59 -348 c 2,5,-1
 -112 -366 l 1,6,-1
 -102 -279 l 1,7,8
 47 -233 47 -233 148 -193 c 1,0,-1
0 -183 m 1024,9,-1
15 -386 m 1024,10,-1
EndSplineSet
EndChar

StartChar: uni061B
Encoding: 1563 1563 28
Width: 435
GlyphClass: 1
Flags: W
LayerCount: 2
Fore
SplineSet
355 855 m 1,0,1
 306 801 306 801 273.5 716 c 128,-1,2
 241 631 241 631 241 577 c 0,3,4
 241 549 241 549 271.5 531.5 c 128,-1,5
 302 514 302 514 355 497 c 1,6,7
 346 436 346 436 307.5 398 c 128,-1,8
 269 360 269 360 218 360 c 0,9,10
 180 360 180 360 151 379 c 128,-1,11
 122 398 122 398 106 431 c 128,-1,12
 90 464 90 464 90 495 c 0,13,14
 90 572 90 572 151 690 c 128,-1,15
 212 808 212 808 299 901 c 1,16,-1
 355 855 l 1,0,1
94 -28 m 1,17,18
 117 13 117 13 138 53 c 128,-1,19
 159 93 159 93 185 131 c 1,20,21
 341 40 341 40 341 10 c 0,22,23
 341 -13 341 -13 257 -135 c 1,24,25
 157 -66 157 -66 94 -28 c 1,17,18
EndSplineSet
EndChar

StartChar: uni061F
Encoding: 1567 1567 30
Width: 870
GlyphClass: 1
Flags: W
LayerCount: 2
Fore
SplineSet
412 249 m 1,0,1
 426 333 426 333 426 361 c 0,2,3
 426 401 426 401 394 433 c 128,-1,4
 362 465 362 465 270 516 c 0,5,6
 191 559 191 559 152 614.5 c 128,-1,7
 113 670 113 670 113 743 c 0,8,9
 113 838 113 838 167 935.5 c 128,-1,10
 221 1033 221 1033 309.5 1091.5 c 128,-1,11
 398 1150 398 1150 498 1150 c 0,12,13
 648 1150 648 1150 736 1056 c 0,14,15
 764 1026 764 1026 764 989 c 0,16,17
 764 930 764 930 702 876 c 1,18,19
 641 933 641 933 593.5 954 c 128,-1,20
 546 975 546 975 475 975 c 0,21,22
 381 975 381 975 300.5 913 c 128,-1,23
 220 851 220 851 186 750 c 1,24,25
 215 732 215 732 254 715 c 0,26,27
 437 632 437 632 498 569 c 128,-1,28
 559 506 559 506 559 426 c 0,29,30
 559 340 559 340 489 200 c 1,31,-1
 412 249 l 1,0,1
282 -38 m 1,32,33
 306 3 306 3 326.5 43 c 128,-1,34
 347 83 347 83 373 121 c 1,35,36
 457 73 457 73 493 42.5 c 128,-1,37
 529 12 529 12 529 1 c 0,38,39
 529 -21 529 -21 445 -145 c 1,40,-1
 399 -112 l 2,41,42
 352 -78 352 -78 282 -38 c 1,32,33
304 1163 m 1024,43,-1
EndSplineSet
EndChar

StartChar: uni0621
Encoding: 1569 1569 32
AltUni2: 00fe80.ffffffff.0 00fe80.ffffffff.0
Width: 894
GlyphClass: 2
Flags: W
AnchorPoint: "Anchor-1" 485 -176 basechar 0 62
AnchorPoint: "Anchor-0" 421 667 basechar 0 63
LayerCount: 2
Fore
SplineSet
111 10 m 1,0,1
 182 40 182 40 271 70 c 2,2,-1
 298 79 l 1,3,4
 295 81 295 81 292 84 c 0,5,6
 263 104 263 104 242 128.5 c 128,-1,7
 221 153 221 153 210 180.5 c 128,-1,8
 199 208 199 208 199 237 c 0,9,10
 199 289 199 289 222.5 347 c 128,-1,11
 246 405 246 405 287 454 c 128,-1,12
 328 503 328 503 382.5 535 c 128,-1,13
 437 567 437 567 499 567 c 0,14,15
 534 567 534 567 563.5 558 c 128,-1,16
 593 549 593 549 615 530 c 128,-1,17
 637 511 637 511 649 482.5 c 128,-1,18
 661 454 661 454 661 415 c 0,19,20
 661 392 661 392 654.5 367 c 128,-1,21
 648 342 648 342 636 323 c 1,22,23
 617 329 617 329 604.5 334.5 c 128,-1,24
 592 340 592 340 575 349 c 1,25,26
 588 367 588 367 592 395 c 1,27,-1
 592 400 l 1,28,29
 584 407 584 407 562 415 c 0,30,31
 534 423 534 423 507 423 c 0,32,33
 476 423 476 423 446.5 414 c 128,-1,34
 417 405 417 405 386.5 388 c 128,-1,35
 356 371 356 371 328 347 c 128,-1,36
 300 323 300 323 277 292 c 1,37,38
 293 255 293 255 317 227 c 128,-1,39
 341 199 341 199 376 179 c 128,-1,40
 411 159 411 159 457 145 c 0,41,42
 476 139 476 139 496 134 c 1,43,44
 521 141 521 141 550 148 c 0,45,46
 600 161 600 161 651.5 170.5 c 128,-1,47
 703 180 703 180 750 188 c 128,-1,48
 797 196 797 196 828 198 c 1,49,50
 858 164 858 164 858 128 c 0,51,52
 858 82 858 82 829.5 57 c 128,-1,53
 801 32 801 32 762 28 c 0,54,55
 699 23 699 23 650 18.5 c 128,-1,56
 601 14 601 14 558 9 c 128,-1,57
 515 4 515 4 474 -3 c 128,-1,58
 433 -10 433 -10 385 -20 c 128,-1,59
 337 -30 337 -30 277.5 -44 c 128,-1,60
 218 -58 218 -58 139 -76 c 1,61,-1
 111 10 l 1,0,1
485 -176 m 1024,62,-1
421 667 m 1024,63,-1
EndSplineSet
EndChar

StartChar: uni0627
Encoding: 1575 1575 38
AltUni2: 00fe8d.ffffffff.0 00fe8d.ffffffff.0
Width: 487
GlyphClass: 2
Flags: W
AnchorPoint: "Anchor-1" 269 -106 basechar 0 18
AnchorPoint: "Anchor-0" 250 1474 basechar 0 17
LayerCount: 2
Fore
SplineSet
322 682 m 2,0,-1
 322 554 l 2,1,2
 322 356 322 356 308 17 c 1,3,-1
 214 0 l 1,4,5
 201 718 201 718 158 1192 c 1,6,-1
 157 1218 l 2,7,8
 157 1283 157 1283 189.5 1321.5 c 128,-1,9
 222 1360 222 1360 292 1374 c 1,10,11
 295 1361 295 1361 298 1350 c 128,-1,12
 301 1339 301 1339 365 1131 c 1,13,-1
 310 1084 l 1,14,-1
 311 1074 l 1,15,16
 322 854 322 854 322 682 c 2,0,-1
250 1474 m 1024,17,-1
269 -106 m 1024,18,-1
EndSplineSet
Substitution2: "'fina' Terminal Forms in Arabic lookup 3 subtable" uni0627.fina
EndChar

StartChar: uni062D
Encoding: 1581 1581 44
AltUni2: 00fea1.ffffffff.0 00fea1.ffffffff.0
Width: 1302
GlyphClass: 2
Flags: W
AnchorPoint: "Anchor-1" 708 -688 basechar 0 47
AnchorPoint: "Anchor-0" 700 880 basechar 0 44
LayerCount: 2
Fore
SplineSet
394 609 m 0,0,1
 297 609 297 609 217 559 c 2,2,-1
 169 530 l 1,3,4
 157 541 157 541 148 562.5 c 128,-1,5
 139 584 139 584 139 609 c 0,6,7
 139 686 139 686 208 733 c 128,-1,8
 277 780 277 780 387 780 c 0,9,10
 475 780 475 780 560 757.5 c 128,-1,11
 645 735 645 735 731 708.5 c 128,-1,12
 817 682 817 682 905 659.5 c 128,-1,13
 993 637 993 637 1088 637 c 2,14,-1
 1120 637 l 1,15,-1
 1222 641 l 1,16,-1
 1164 484 l 1,17,18
 1103 475 1103 475 1049 475 c 0,19,20
 921 466 921 466 773.5 413.5 c 128,-1,21
 626 361 626 361 514 283 c 128,-1,22
 402 205 402 205 340.5 110 c 128,-1,23
 279 15 279 15 279 -86 c 0,24,25
 279 -248 279 -248 394 -333.5 c 128,-1,26
 509 -419 509 -419 743 -419 c 0,27,28
 996 -419 996 -419 1244 -362 c 1,29,-1
 1267 -431 l 1,30,31
 1117 -514 1117 -514 987.5 -551 c 128,-1,32
 858 -588 858 -588 738 -588 c 0,33,34
 484 -588 484 -588 345 -459 c 128,-1,35
 206 -330 206 -330 206 -86 c 0,36,37
 206 42 206 42 269 167.5 c 128,-1,38
 332 293 332 293 443 389 c 128,-1,39
 554 485 554 485 681 534 c 1,40,41
 668 539 668 539 574 569 c 128,-1,42
 480 599 480 599 448 604 c 128,-1,43
 416 609 416 609 394 609 c 0,0,1
700 880 m 1024,44,-1
128 -537 m 1024,45,-1
761 -6 m 1024,46,-1
708 -688 m 1024,47,-1
EndSplineSet
Substitution2: "'medi' Medial Forms in Arabic lookup 5 subtable" uni062D.medi
Substitution2: "'init' Initial Forms in Arabic lookup 4 subtable" uni062D.init
Substitution2: "'fina' Terminal Forms in Arabic lookup 3 subtable" uni062D.fina
EndChar

StartChar: uni062F
Encoding: 1583 1583 46
AltUni2: 00fea9.ffffffff.0 00fea9.ffffffff.0
Width: 847
GlyphClass: 2
Flags: W
AnchorPoint: "Anchor-1" 439 -106 basechar 0 30
AnchorPoint: "Anchor-0" 448 916 basechar 0 28
LayerCount: 2
Fore
SplineSet
320 0 m 0,0,1
 195 0 195 0 132.5 34 c 128,-1,2
 70 68 70 68 70 130 c 0,3,4
 70 196 70 196 106 238 c 1,5,6
 157 196 157 196 222.5 176 c 128,-1,7
 288 156 288 156 385 156 c 0,8,9
 521 156 521 156 663 198 c 1,10,11
 631 289 631 289 578 386 c 2,12,-1
 508 514 l 2,13,14
 477 568 477 568 464.5 605 c 128,-1,15
 452 642 452 642 452 680 c 0,16,17
 452 780 452 780 560 816 c 1,18,19
 591 732 591 732 626 656.5 c 128,-1,20
 661 581 661 581 691 515 c 128,-1,21
 721 449 721 449 741 392 c 128,-1,22
 761 335 761 335 761 288 c 0,23,24
 761 258 761 258 742 201.5 c 128,-1,25
 723 145 723 145 689 80 c 1,26,27
 540 0 540 0 320 0 c 0,0,1
448 916 m 1024,28,-1
439 -60 m 1024,29,-1
439 -106 m 1024,30,-1
EndSplineSet
Substitution2: "'fina' Terminal Forms in Arabic lookup 3 subtable" uni062F.fina
EndChar

StartChar: uni0631
Encoding: 1585 1585 48
AltUni2: 00fead.ffffffff.0 00fead.ffffffff.0
Width: 762
GlyphClass: 2
Flags: W
AnchorPoint: "Anchor-1" 204 -518 basechar 0 27
AnchorPoint: "Anchor-0" 372 798 basechar 0 26
LayerCount: 2
Fore
SplineSet
198 -418 m 0,0,1
 149 -418 149 -418 64 -379.5 c 128,-1,2
 -21 -341 -21 -341 -70 -303 c 1,3,-1
 -42 -235 l 1,4,5
 70 -258 70 -258 151 -258 c 0,6,7
 305 -258 305 -258 414 -166.5 c 128,-1,8
 523 -75 523 -75 581 100 c 1,9,10
 554 166 554 166 519 229 c 0,11,12
 447 353 447 353 414.5 428.5 c 128,-1,13
 382 504 382 504 382 555 c 0,14,15
 382 607 382 607 413.5 638.5 c 128,-1,16
 445 670 445 670 501 698 c 1,17,18
 516 642 516 642 542 573.5 c 128,-1,19
 568 505 568 505 594 433.5 c 128,-1,20
 620 362 620 362 639 292.5 c 128,-1,21
 658 223 658 223 658 165 c 0,22,23
 658 6 658 6 597.5 -130.5 c 128,-1,24
 537 -267 537 -267 431.5 -342.5 c 128,-1,25
 326 -418 326 -418 198 -418 c 0,0,1
372 798 m 1024,26,-1
204 -518 m 1024,27,-1
EndSplineSet
Substitution2: "'fina' Terminal Forms in Arabic lookup 3 subtable" uni0631.fina
EndChar

StartChar: uni0633
Encoding: 1587 1587 50
AltUni2: 00feb1.ffffffff.0 00feb1.ffffffff.0
Width: 2075
GlyphClass: 2
Flags: W
AnchorPoint: "Anchor-1" 1471 -156 basechar 0 70
AnchorPoint: "Anchor-0" 1413 676 basechar 0 68
LayerCount: 2
Fore
SplineSet
1170 0 m 1,0,-1
 1095 4 l 1,1,-1
 1096 -34 l 2,2,3
 1096 -160 1096 -160 1016 -275 c 128,-1,4
 936 -390 936 -390 797 -463 c 128,-1,5
 658 -536 658 -536 510 -536 c 0,6,7
 335 -536 335 -536 237 -435.5 c 128,-1,8
 139 -335 139 -335 139 -151 c 0,9,10
 139 -92 139 -92 146.5 -39.5 c 128,-1,11
 154 13 154 13 179 114 c 1,12,-1
 254 96 l 1,13,14
 231 6 231 6 231 -50 c 0,15,16
 231 -200 231 -200 306 -283.5 c 128,-1,17
 381 -367 381 -367 515 -367 c 0,18,19
 667 -367 667 -367 818 -293 c 128,-1,20
 969 -219 969 -219 1020 -111 c 1,21,22
 886 182 886 182 886 280 c 0,23,24
 886 333 886 333 916 376 c 128,-1,25
 946 419 946 419 1020 463 c 1,26,27
 1029 391 1029 391 1042 325 c 2,28,-1
 1071 175 l 1,29,30
 1133 156 1133 156 1193 156 c 0,31,32
 1308 156 1308 156 1374 177 c 1,33,34
 1386 196 1386 196 1398 235 c 0,35,36
 1449 406 1449 406 1469.5 449.5 c 128,-1,37
 1490 493 1490 493 1509.5 504.5 c 128,-1,38
 1529 516 1529 516 1553 516 c 0,39,40
 1581 516 1581 516 1601 501 c 1,41,42
 1573 441 1573 441 1513 242 c 1,43,44
 1614 195 1614 195 1696.5 178 c 128,-1,45
 1779 161 1779 161 1873 161 c 1,46,47
 1850 245 1850 245 1797 386 c 0,48,49
 1756 492 1756 492 1756 524 c 0,50,51
 1756 569 1756 569 1792 615 c 128,-1,52
 1828 661 1828 661 1890 696 c 1,53,54
 1899 636 1899 636 1913 577 c 128,-1,55
 1927 518 1927 518 1939.5 461.5 c 128,-1,56
 1952 405 1952 405 1961 352 c 128,-1,57
 1970 299 1970 299 1970 252 c 0,58,59
 1970 219 1970 219 1946 138 c 128,-1,60
 1922 57 1922 57 1892 0 c 1,61,62
 1760 0 1760 0 1664 18.5 c 128,-1,63
 1568 37 1568 37 1458 88 c 1,64,-1
 1440 55 l 2,65,66
 1423 29 1423 29 1348 14.5 c 128,-1,67
 1273 0 1273 0 1170 0 c 1,0,-1
1413 676 m 1024,68,-1
1471 -60 m 1024,69,-1
1471 -156 m 1024,70,-1
EndSplineSet
Substitution2: "'medi' Medial Forms in Arabic lookup 5 subtable" uni0633.medi
Substitution2: "'init' Initial Forms in Arabic lookup 4 subtable" uni0633.init
Substitution2: "'fina' Terminal Forms in Arabic lookup 3 subtable" uni0633.fina
EndChar

StartChar: uni0635
Encoding: 1589 1589 52
AltUni2: 00feb9.ffffffff.0 00feb9.ffffffff.0
Width: 2244
GlyphClass: 2
Flags: W
AnchorPoint: "Anchor-1" 1619 -106 basechar 0 55
AnchorPoint: "Anchor-0" 1473 831 basechar 0 53
LayerCount: 2
Fore
SplineSet
510 -536 m 0,0,1
 335 -536 335 -536 237 -435.5 c 128,-1,2
 139 -335 139 -335 139 -151 c 0,3,4
 139 -92 139 -92 146.5 -39.5 c 128,-1,5
 154 13 154 13 179 114 c 1,6,-1
 254 96 l 1,7,8
 231 6 231 6 231 -50 c 0,9,10
 231 -200 231 -200 306 -283.5 c 128,-1,11
 381 -367 381 -367 515 -367 c 0,12,13
 667 -367 667 -367 818 -293 c 128,-1,14
 969 -219 969 -219 1020 -111 c 1,15,16
 886 182 886 182 886 280 c 0,17,18
 886 333 886 333 916 376 c 128,-1,19
 946 419 946 419 1020 463 c 1,20,21
 1028 403 1028 403 1061 228 c 1,22,-1
 1097 213 l 1,23,-1
 1107 210 l 1,24,25
 1313 480 1313 480 1477.5 605.5 c 128,-1,26
 1642 731 1642 731 1777 731 c 0,27,28
 1840 731 1840 731 1927.5 680 c 128,-1,29
 2015 629 2015 629 2077 557.5 c 128,-1,30
 2139 486 2139 486 2139 433 c 0,31,32
 2139 308 2139 308 2059.5 211.5 c 128,-1,33
 1980 115 1980 115 1819.5 57.5 c 128,-1,34
 1659 0 1659 0 1480 0 c 0,35,36
 1274 0 1274 0 1091 50 c 1,37,38
 1096 7 1096 7 1096 -34 c 0,39,40
 1096 -160 1096 -160 1016 -275 c 128,-1,41
 936 -390 936 -390 797 -463 c 128,-1,42
 658 -536 658 -536 510 -536 c 0,0,1
1500 156 m 0,43,44
 1767 156 1767 156 2047 331 c 1,45,46
 1985 439 1985 439 1898 499.5 c 128,-1,47
 1811 560 1811 560 1727 560 c 0,48,49
 1626 560 1626 560 1488 460 c 128,-1,50
 1350 360 1350 360 1204 184 c 1,51,52
 1372 156 1372 156 1500 156 c 0,43,44
1473 831 m 1024,53,-1
1619 -60 m 1024,54,-1
1619 -106 m 1024,55,-1
EndSplineSet
Substitution2: "'medi' Medial Forms in Arabic lookup 5 subtable" uni0635.medi
Substitution2: "'init' Initial Forms in Arabic lookup 4 subtable" uni0635.init
Substitution2: "'fina' Terminal Forms in Arabic lookup 3 subtable" uni0635.fina
EndChar

StartChar: uni0637
Encoding: 1591 1591 54
AltUni2: 00fec1.ffffffff.0 00fec1.ffffffff.0
Width: 1575
GlyphClass: 2
Flags: W
AnchorPoint: "Anchor-1" 802 -106 basechar 0 45
AnchorPoint: "Anchor-0" 1087 891 basechar 0 43
LayerCount: 2
Fore
SplineSet
811 0 m 0,0,1
 686 0 686 0 566 7.5 c 128,-1,2
 446 15 446 15 393 25 c 128,-1,3
 340 35 340 35 243.5 84.5 c 128,-1,4
 147 134 147 134 87 177 c 1,5,-1
 108 248 l 1,6,-1
 348 196 l 1,7,-1
 418 184 l 1,8,9
 478 262 478 262 537 332 c 1,10,11
 404 1052 404 1052 404 1213 c 0,12,13
 404 1282 404 1282 436.5 1321 c 128,-1,14
 469 1360 469 1360 540 1374 c 1,15,16
 565 1275 565 1275 593 1194 c 2,17,-1
 613 1131 l 1,18,-1
 558 1084 l 1,19,-1
 595 738 l 2,20,21
 615 566 615 566 618 424 c 2,22,-1
 618 423 l 1,23,24
 909 731 909 731 1109 731 c 0,25,26
 1167 731 1167 731 1252 684 c 128,-1,27
 1337 637 1337 637 1404 563 c 128,-1,28
 1471 489 1471 489 1471 433 c 0,29,30
 1471 307 1471 307 1390.5 210.5 c 128,-1,31
 1310 114 1310 114 1149 57 c 128,-1,32
 988 0 988 0 811 0 c 0,0,1
832 156 m 0,33,34
 1099 156 1099 156 1379 331 c 1,35,36
 1317 439 1317 439 1230 499.5 c 128,-1,37
 1143 560 1143 560 1058 560 c 0,38,39
 957 560 957 560 816 457.5 c 128,-1,40
 675 355 675 355 523 170 c 1,41,42
 677 156 677 156 832 156 c 0,33,34
1087 891 m 1024,43,-1
802 -60 m 1024,44,-1
802 -106 m 1024,45,-1
EndSplineSet
Substitution2: "'medi' Medial Forms in Arabic lookup 5 subtable" uni0637.medi
Substitution2: "'init' Initial Forms in Arabic lookup 4 subtable" uni0637.init
Substitution2: "'fina' Terminal Forms in Arabic lookup 3 subtable" uni0637.fina
EndChar

StartChar: uni0639
Encoding: 1593 1593 56
AltUni2: 00fec9.ffffffff.0 00fec9.ffffffff.0
Width: 1237
GlyphClass: 2
Flags: W
AnchorPoint: "Anchor-1" 722 -685 basechar 0 47
AnchorPoint: "Anchor-0" 459 1051 basechar 0 44
LayerCount: 2
Fore
SplineSet
762 -585 m 0,0,1
 522 -585 522 -585 377.5 -465 c 128,-1,2
 233 -345 233 -345 233 -144 c 0,3,4
 233 87 233 87 400 264 c 1,5,6
 337 283 337 283 278 327 c 128,-1,7
 219 371 219 371 184 430 c 128,-1,8
 149 489 149 489 149 554 c 0,9,10
 149 642 149 642 196 737 c 128,-1,11
 243 832 243 832 318.5 891.5 c 128,-1,12
 394 951 394 951 477 951 c 0,13,14
 549 951 549 951 608 920 c 128,-1,15
 667 889 667 889 757 815 c 1,16,-1
 722 750 l 1,17,18
 602 787 602 787 528 787 c 0,19,20
 402 787 402 787 266 712 c 1,21,22
 266 591 266 591 350 511.5 c 128,-1,23
 434 432 434 432 584 408 c 1,24,25
 734 498 734 498 942 568 c 1,26,27
 965 537 965 537 965 503 c 0,28,29
 965 461 965 461 931 426 c 128,-1,30
 897 391 897 391 807 355 c 0,31,32
 619 281 619 281 514 210 c 128,-1,33
 409 139 409 139 358.5 58.5 c 128,-1,34
 308 -22 308 -22 308 -110 c 0,35,36
 308 -257 308 -257 424.5 -336.5 c 128,-1,37
 541 -416 541 -416 768 -416 c 0,38,39
 909 -416 909 -416 1026.5 -401.5 c 128,-1,40
 1144 -387 1144 -387 1266 -359 c 1,41,-1
 1289 -428 l 1,42,43
 1006 -585 1006 -585 762 -585 c 0,0,1
459 1051 m 1024,44,-1
128 -537 m 1024,45,-1
771 -30 m 1024,46,-1
722 -685 m 1024,47,-1
EndSplineSet
Substitution2: "'medi' Medial Forms in Arabic lookup 5 subtable" uni0639.medi
Substitution2: "'init' Initial Forms in Arabic lookup 4 subtable" uni0639.init
Substitution2: "'fina' Terminal Forms in Arabic lookup 3 subtable" uni0639.fina
EndChar

StartChar: Tatweel
Encoding: 1600 1600 63
Width: 430
GlyphClass: 2
Flags: W
AnchorPoint: "Anchor-1" 203 -294 basechar 0 13
AnchorPoint: "Anchor-0" 203 926 basechar 0 12
LayerCount: 2
Fore
SplineSet
0 0 m 2,0,1
 -17 0 -17 0 -17 17 c 2,2,-1
 -17 139 l 2,3,4
 -17 156 -17 156 0 156 c 2,5,-1
 431 156 l 2,6,7
 449 156 449 156 449 139 c 2,8,-1
 449 17 l 2,9,10
 449 0 449 0 431 0 c 2,11,-1
 0 0 l 2,0,1
203 926 m 1024,12,-1
203 -294 m 1024,13,-1
EndSplineSet
EndChar

StartChar: uni0643
Encoding: 1603 1603 66
AltUni2: 00fed9.ffffffff.0 00fed9.ffffffff.0
Width: 1142
GlyphClass: 2
Flags: W
AnchorPoint: "Anchor-1" 537 -106 basechar 0 32
AnchorPoint: "Anchor-0" 473 856 basechar 0 75
LayerCount: 2
Fore
SplineSet
463 0 m 0,0,1
 333 0 333 0 184 12 c 128,-1,2
 35 24 35 24 35 40 c 0,3,4
 35 76 35 76 45 127 c 128,-1,5
 55 178 55 178 68 198 c 1,6,7
 148 180 148 180 269.5 168 c 128,-1,8
 391 156 391 156 501 156 c 0,9,10
 721 156 721 156 943 196 c 1,11,-1
 920 317 l 1,12,-1
 858 683 l 2,13,14
 832 815 832 815 809 983 c 128,-1,15
 786 1151 786 1151 786 1213 c 0,16,17
 786 1280 786 1280 817 1319 c 128,-1,18
 848 1358 848 1358 921 1374 c 1,19,20
 940 1299 940 1299 958 1246 c 2,21,-1
 994 1131 l 1,22,-1
 940 1085 l 1,23,-1
 967 814 l 1,24,25
 992 606 992 606 1006 437.5 c 128,-1,26
 1020 269 1020 269 1020 221 c 0,27,28
 1020 164 1020 164 999.5 120 c 128,-1,29
 979 76 979 76 947 34 c 1,30,31
 717 0 717 0 463 0 c 0,0,1
537 -106 m 1024,32,-1
555 549 m 1,33,34
 501 550 501 550 462.5 555 c 128,-1,35
 424 560 424 560 399.5 571 c 128,-1,36
 375 582 375 582 363.5 600.5 c 128,-1,37
 352 619 352 619 352 648 c 0,38,39
 352 672 352 672 366 699.5 c 128,-1,40
 380 727 380 727 403 750.5 c 128,-1,41
 426 774 426 774 454.5 790 c 128,-1,42
 483 806 483 806 513 806 c 0,43,44
 568 806 568 806 581 749 c 1,45,-1
 548 735 l 1,46,47
 539 745 539 745 525 745 c 0,48,49
 513 745 513 745 496.5 736 c 128,-1,50
 480 727 480 727 464.5 712.5 c 128,-1,51
 449 698 449 698 436 680.5 c 128,-1,52
 423 663 423 663 419 645 c 1,53,54
 438 636 438 636 461.5 631.5 c 128,-1,55
 485 627 485 627 508 623.5 c 128,-1,56
 531 620 531 620 552.5 615 c 128,-1,57
 574 610 574 610 588 600 c 0,58,59
 599 593 599 593 603 583 c 128,-1,60
 607 573 607 573 607 562 c 0,61,62
 607 544 607 544 585 515.5 c 128,-1,63
 563 487 563 487 528.5 461 c 128,-1,64
 494 435 494 435 451.5 416 c 128,-1,65
 409 397 409 397 368 397 c 0,66,67
 343 397 343 397 332 409 c 128,-1,68
 321 421 321 421 321 438 c 1,69,70
 375 443 375 443 425 461.5 c 128,-1,71
 475 480 475 480 510 504 c 0,72,73
 526 515 526 515 537.5 526 c 128,-1,74
 549 537 549 537 555 549 c 1,33,34
473 856 m 1024,75,-1
EndSplineSet
Substitution2: "'medi' Medial Forms in Arabic lookup 5 subtable" uni0643.medi
Substitution2: "'init' Initial Forms in Arabic lookup 4 subtable" uni0643.init
Substitution2: "'fina' Terminal Forms in Arabic lookup 3 subtable" uni0643.fina
EndChar

StartChar: uni0644
Encoding: 1604 1604 67
AltUni2: 00fedd.ffffffff.0 00fedd.ffffffff.0
Width: 1219
GlyphClass: 2
Flags: W
AnchorPoint: "Anchor-1" 630 -636 basechar 0 38
AnchorPoint: "Anchor-0" 818 1474 basechar 0 35
LayerCount: 2
Fore
SplineSet
1015 -111 m 1,0,-1
 963 220 l 1,1,2
 876 740 876 740 848.5 944.5 c 128,-1,3
 821 1149 821 1149 821 1214 c 0,4,5
 821 1283 821 1283 853 1321 c 128,-1,6
 885 1359 885 1359 955 1374 c 1,7,8
 958 1361 958 1361 961 1350 c 128,-1,9
 964 1339 964 1339 1028 1131 c 1,10,-1
 980 1089 l 1,11,-1
 984 1057 l 1,12,-1
 1051 450 l 1,13,14
 1091 145 1091 145 1091 -34 c 0,15,16
 1091 -161 1091 -161 1012 -276 c 128,-1,17
 933 -391 933 -391 795 -463.5 c 128,-1,18
 657 -536 657 -536 510 -536 c 0,19,20
 335 -536 335 -536 237 -435.5 c 128,-1,21
 139 -335 139 -335 139 -151 c 0,22,23
 139 -92 139 -92 146.5 -39.5 c 128,-1,24
 154 13 154 13 179 114 c 1,25,-1
 254 96 l 1,26,27
 231 6 231 6 231 -50 c 0,28,29
 231 -200 231 -200 306 -283.5 c 128,-1,30
 381 -367 381 -367 515 -367 c 0,31,32
 612 -367 612 -367 717 -333 c 128,-1,33
 822 -299 822 -299 902 -240 c 128,-1,34
 982 -181 982 -181 1015 -111 c 1,0,-1
818 1474 m 1024,35,-1
68 -537 m 1024,36,-1
471 969 m 1024,37,-1
630 -636 m 1024,38,-1
EndSplineSet
Substitution2: "'medi' Medial Forms in Arabic lookup 5 subtable" uni0644.medi
Substitution2: "'init' Initial Forms in Arabic lookup 4 subtable" uni0644.init
Substitution2: "'fina' Terminal Forms in Arabic lookup 3 subtable" uni0644.fina
EndChar

StartChar: uni0645
Encoding: 1605 1605 68
AltUni2: 00fee1.ffffffff.0 00fee1.ffffffff.0
Width: 1001
GlyphClass: 2
Flags: W
AnchorPoint: "Anchor-1" 600 -102 basechar 0 37
AnchorPoint: "Anchor-0" 455 815 basechar 0 36
LayerCount: 2
Fore
SplineSet
315 -548 m 1,0,1
 258 -593 258 -593 178 -625 c 1,2,3
 177 -467 177 -467 157 -242 c 0,4,5
 139 -35 139 -35 139 10 c 0,6,7
 139 49 139 49 159 98 c 128,-1,8
 179 147 179 147 204 200 c 1,9,10
 317 235 317 235 435 252 c 128,-1,11
 553 269 553 269 733 269 c 1,12,-1
 690 331 l 1,13,14
 562 545 562 545 468 545 c 0,15,16
 420 545 420 545 375.5 509.5 c 128,-1,17
 331 474 331 474 279 393 c 1,18,-1
 212 426 l 1,19,20
 266 564 266 564 343.5 639.5 c 128,-1,21
 421 715 421 715 507 715 c 0,22,23
 553 715 553 715 597.5 682.5 c 128,-1,24
 642 650 642 650 694 581 c 0,25,26
 761 490 761 490 814.5 429 c 128,-1,27
 868 368 868 368 922 327 c 1,28,-1
 844 118 l 1,29,30
 627 118 627 118 479 98.5 c 128,-1,31
 331 79 331 79 217 40 c 1,32,-1
 231 -54 l 1,33,-1
 258 -199 l 2,34,35
 297 -399 297 -399 315 -548 c 1,0,1
455 815 m 1024,36,-1
600 -102 m 1024,37,-1
EndSplineSet
Substitution2: "'medi' Medial Forms in Arabic lookup 5 subtable" uni0645.medi
Substitution2: "'init' Initial Forms in Arabic lookup 4 subtable" uni0645.init
Substitution2: "'fina' Terminal Forms in Arabic lookup 3 subtable" uni0645.fina
EndChar

StartChar: uni0647
Encoding: 1607 1607 70
AltUni2: 00fee9.ffffffff.0 00fee9.ffffffff.0
Width: 836
GlyphClass: 2
Flags: W
AnchorPoint: "Anchor-1" 441 -106 basechar 0 34
AnchorPoint: "Anchor-0" 346 936 basechar 0 32
LayerCount: 2
Fore
SplineSet
290 738 m 0,0,1
 290 770 290 770 305.5 798 c 128,-1,2
 321 826 321 826 345 836 c 1,3,4
 437 804 437 804 524.5 727.5 c 128,-1,5
 612 651 612 651 671.5 547.5 c 128,-1,6
 731 444 731 444 731 360 c 0,7,8
 731 299 731 299 683 193 c 128,-1,9
 635 87 635 87 592 57 c 0,10,11
 506 0 506 0 390 0 c 0,12,13
 275 0 275 0 207 67.5 c 128,-1,14
 139 135 139 135 139 258 c 0,15,16
 139 354 139 354 187.5 450.5 c 128,-1,17
 236 547 236 547 341 647 c 1,18,19
 309 666 309 666 299.5 690 c 128,-1,20
 290 714 290 714 290 738 c 0,0,1
233 318 m 0,21,22
 233 245 233 245 280 204 c 128,-1,23
 327 163 327 163 412 163 c 0,24,25
 467 163 467 163 532 193 c 128,-1,26
 597 223 597 223 630 254 c 1,27,28
 588 456 588 456 399 603 c 1,29,30
 323 532 323 532 278 454.5 c 128,-1,31
 233 377 233 377 233 318 c 0,21,22
346 936 m 1024,32,-1
441 -60 m 1024,33,-1
441 -106 m 1024,34,-1
EndSplineSet
Substitution2: "'medi' Medial Forms in Arabic lookup 5 subtable" uni0647.medi
Substitution2: "'init' Initial Forms in Arabic lookup 4 subtable" uni0647.init
Substitution2: "'fina' Terminal Forms in Arabic lookup 3 subtable" uni0647.fina
EndChar

StartChar: uni0648
Encoding: 1608 1608 71
AltUni2: 00feed.ffffffff.0 00feed.ffffffff.0
Width: 959
GlyphClass: 2
Flags: W
AnchorPoint: "Anchor-1" 396 -516 basechar 0 43
AnchorPoint: "Anchor-0" 525 796 basechar 0 42
LayerCount: 2
Fore
SplineSet
395 -416 m 0,0,1
 329 -416 329 -416 227 -374.5 c 128,-1,2
 125 -333 125 -333 70 -285 c 1,3,-1
 99 -218 l 1,4,5
 209 -256 209 -256 348 -256 c 0,6,7
 502 -256 502 -256 612 -165.5 c 128,-1,8
 722 -75 722 -75 778 100 c 1,9,-1
 776 117 l 1,10,-1
 772 114 l 1,11,12
 717 61 717 61 646.5 30.5 c 128,-1,13
 576 0 576 0 501 0 c 0,14,15
 383 0 383 0 314.5 72.5 c 128,-1,16
 246 145 246 145 246 264 c 0,17,18
 246 368 246 368 288 470 c 128,-1,19
 330 572 330 572 398 634 c 128,-1,20
 466 696 466 696 535 696 c 0,21,22
 614 696 614 696 686.5 625 c 128,-1,23
 759 554 759 554 807 423.5 c 128,-1,24
 855 293 855 293 855 165 c 0,25,26
 855 20 855 20 790 -120 c 128,-1,27
 725 -260 725 -260 620 -338 c 128,-1,28
 515 -416 515 -416 395 -416 c 0,0,1
503 522 m 0,29,30
 461 522 461 522 419.5 490.5 c 128,-1,31
 378 459 378 459 351 410.5 c 128,-1,32
 324 362 324 362 324 321 c 0,33,34
 324 247 324 247 383 207 c 128,-1,35
 442 167 442 167 550 167 c 0,36,37
 601 167 601 167 643.5 175.5 c 128,-1,38
 686 184 686 184 758 214 c 1,39,40
 723 348 723 348 651 435 c 128,-1,41
 579 522 579 522 503 522 c 0,29,30
525 796 m 1024,42,-1
396 -516 m 1024,43,-1
514 1174 m 1024,44,-1
EndSplineSet
Substitution2: "'fina' Terminal Forms in Arabic lookup 3 subtable" uni0648.fina
EndChar

StartChar: uni0649
Encoding: 1609 1609 72
AltUni2: 00feef.ffffffff.0 00feef.ffffffff.0
Width: 1266
GlyphClass: 2
Flags: W
AnchorPoint: "Anchor-1" 560 -636 basechar 0 48
AnchorPoint: "Anchor-0" 420 493 basechar 0 46
LayerCount: 2
Fore
SplineSet
1121 -98 m 1,0,1
 1069 -89 1069 -89 1013 -84 c 0,2,3
 859 -72 859 -72 782 -46.5 c 128,-1,4
 705 -21 705 -21 665.5 37 c 128,-1,5
 626 95 626 95 626 186 c 0,6,7
 626 280 626 280 692 400.5 c 128,-1,8
 758 521 758 521 858.5 608.5 c 128,-1,9
 959 696 959 696 1038 696 c 0,10,11
 1107 696 1107 696 1142 648.5 c 128,-1,12
 1177 601 1177 601 1196 518 c 1,13,-1
 1123 497 l 1,14,15
 1108 517 1108 517 1095 523 c 128,-1,16
 1082 529 1082 529 1057 529 c 0,17,18
 1003 529 1003 529 922 472.5 c 128,-1,19
 841 416 841 416 779 335 c 128,-1,20
 717 254 717 254 700 178 c 1,21,22
 759 124 759 124 925 101 c 0,23,24
 1082 79 1082 79 1138 38 c 128,-1,25
 1194 -3 1194 -3 1194 -96 c 0,26,27
 1194 -190 1194 -190 1081 -296 c 128,-1,28
 968 -402 968 -402 807 -469 c 128,-1,29
 646 -536 646 -536 510 -536 c 0,30,31
 335 -536 335 -536 237 -435.5 c 128,-1,32
 139 -335 139 -335 139 -151 c 0,33,34
 139 -92 139 -92 146.5 -39.5 c 128,-1,35
 154 13 154 13 179 114 c 1,36,-1
 254 96 l 1,37,38
 231 6 231 6 231 -50 c 0,39,40
 231 -200 231 -200 306 -283.5 c 128,-1,41
 381 -367 381 -367 515 -367 c 0,42,43
 624 -367 624 -367 759.5 -327.5 c 128,-1,44
 895 -288 895 -288 991.5 -227 c 128,-1,45
 1088 -166 1088 -166 1121 -98 c 1,0,1
420 493 m 1024,46,-1
68 -537 m 1024,47,-1
560 -636 m 1024,48,-1
EndSplineSet
Substitution2: "'medi' Medial Forms in Arabic lookup 5 subtable" uni0649.medi
Substitution2: "'init' Initial Forms in Arabic lookup 4 subtable" uni0649.init
Substitution2: "'fina' Terminal Forms in Arabic lookup 3 subtable" uni0649.fina
EndChar

StartChar: uni064B
Encoding: 1611 1611 74
Width: 0
GlyphClass: 4
Flags: W
AnchorPoint: "Anchor-6" 129 1314 basemark 0 17
AnchorPoint: "Anchor-6" 175 922 mark 0 16
AnchorPoint: "Anchor-3" 175 922 mark 0 16
AnchorPoint: "Anchor-0" 175 922 mark 0 16
LayerCount: 2
Fore
SplineSet
348 1133 m 1,0,-1
 350 1112 l 1,1,2
 350 1060 350 1060 303 1039 c 0,3,4
 183 984 183 984 -23 920 c 1,5,-1
 -14 1007 l 1,6,7
 134 1050 134 1050 348 1133 c 1,0,-1
324 1274 m 1,8,-1
 326 1252 l 1,9,10
 326 1196 326 1196 280 1175 c 0,11,12
 155 1122 155 1122 -44 1066 c 1,13,-1
 -37 1148 l 1,14,15
 141 1202 141 1202 324 1274 c 1,8,-1
175 922 m 1024,16,-1
129 1314 m 1024,17,-1
EndSplineSet
EndChar

StartChar: uni064C
Encoding: 1612 1612 75
Width: 0
GlyphClass: 4
Flags: W
AnchorPoint: "Anchor-6" 157 1291 basemark 0 49
AnchorPoint: "Anchor-6" 185 893 mark 0 48
AnchorPoint: "Anchor-3" 185 893 mark 0 48
AnchorPoint: "Anchor-0" 185 893 mark 0 48
LayerCount: 2
Fore
SplineSet
34 893 m 0,0,1
 28 893 28 893 5.5 910.5 c 128,-1,2
 -17 928 -17 928 -17 932 c 2,3,-1
 -9 986 l 1,4,5
 -9 1016 -9 1016 -28 1016 c 0,6,7
 -42 1016 -42 1016 -96 989 c 1,8,-1
 -113 1010 l 1,9,10
 -52 1090 -52 1090 -8 1090 c 0,11,12
 45 1090 45 1090 45 1016 c 0,13,14
 45 991 45 991 37 962 c 1,15,16
 109 980 109 980 160 1018 c 1,17,18
 120 1040 120 1040 102 1062.5 c 128,-1,19
 84 1085 84 1085 84 1116 c 0,20,21
 84 1162 84 1162 122.5 1201.5 c 128,-1,22
 161 1241 161 1241 203 1241 c 0,23,24
 229 1241 229 1241 251 1210.5 c 128,-1,25
 273 1180 273 1180 273 1111 c 0,26,27
 273 1075 273 1075 265 1059 c 1,28,29
 297 1054 297 1054 328 1054 c 1,30,31
 326 1022 326 1022 306.5 1010 c 128,-1,32
 287 998 287 998 246 998 c 2,33,-1
 218 1000 l 1,34,35
 177 959 177 959 119.5 926 c 128,-1,36
 62 893 62 893 34 893 c 0,0,1
222 1106 m 0,37,38
 222 1133 222 1133 211.5 1155 c 128,-1,39
 201 1177 201 1177 178 1177 c 0,40,41
 160 1177 160 1177 146.5 1165.5 c 128,-1,42
 133 1154 133 1154 133 1145 c 0,43,44
 133 1099 133 1099 213 1070 c 1,45,-1
 217 1079 l 2,46,47
 222 1095 222 1095 222 1106 c 0,37,38
185 893 m 1024,48,-1
157 1291 m 1024,49,-1
EndSplineSet
EndChar

StartChar: uni064D
Encoding: 1613 1613 76
Width: 0
GlyphClass: 4
Flags: W
AnchorPoint: "Anchor-7" 208 -274 basemark 0 19
AnchorPoint: "Anchor-7" 161 12 mark 0 18
AnchorPoint: "Anchor-4" 161 12 mark 0 18
AnchorPoint: "Anchor-1" 161 12 mark 0 18
LayerCount: 2
Fore
SplineSet
372 -90 m 1,0,-1
 373 -103 l 2,1,2
 373 -135 373 -135 353 -151 c 128,-1,3
 333 -167 333 -167 248 -198.5 c 128,-1,4
 163 -230 163 -230 100 -248 c 2,5,-1
 15 -274 l 1,6,-1
 21 -207 l 1,7,8
 216 -151 216 -151 372 -90 c 1,0,-1
357 17 m 1,9,-1
 358 4 l 2,10,11
 358 -21 358 -21 346.5 -35.5 c 128,-1,12
 335 -50 335 -50 271 -76.5 c 128,-1,13
 207 -103 207 -103 83 -140 c 2,14,-1
 0 -167 l 1,15,-1
 6 -100 l 1,16,17
 201 -44 201 -44 357 17 c 1,9,-1
161 12 m 1024,18,-1
208 -274 m 1024,19,-1
EndSplineSet
EndChar

StartChar: uni064E
Encoding: 1614 1614 77
Width: 0
GlyphClass: 4
Flags: W
AnchorPoint: "Anchor-6" 157 1179 basemark 0 9
AnchorPoint: "Anchor-6" 184 925 mark 0 8
AnchorPoint: "Anchor-3" 184 925 mark 0 8
AnchorPoint: "Anchor-0" 184 925 mark 0 8
LayerCount: 2
Fore
SplineSet
349 1139 m 1,0,-1
 351 1117 l 1,1,2
 351 1066 351 1066 304 1045 c 0,3,4
 192 991 192 991 -22 926 c 1,5,-1
 -12 1013 l 1,6,7
 247 1099 247 1099 349 1139 c 1,0,-1
184 925 m 1024,8,-1
157 1179 m 1024,9,-1
57 1179 m 1024,10,-1
284 925 m 1024,11,-1
EndSplineSet
EndChar

StartChar: uni064F
Encoding: 1615 1615 78
Width: 0
GlyphClass: 4
Flags: W
AnchorPoint: "Anchor-6" 118 1291 basemark 0 35
AnchorPoint: "Anchor-6" 152 889 mark 0 34
AnchorPoint: "Anchor-3" 152 889 mark 0 34
AnchorPoint: "Anchor-0" 152 889 mark 0 34
LayerCount: 2
Fore
SplineSet
-58 941 m 1,0,1
 47 960 47 960 134 1018 c 1,2,3
 58 1052 58 1052 58 1115 c 0,4,5
 58 1164 58 1164 97 1202.5 c 128,-1,6
 136 1241 136 1241 177 1241 c 0,7,8
 208 1241 208 1241 227.5 1206.5 c 128,-1,9
 247 1172 247 1172 247 1110 c 0,10,11
 247 1083 247 1083 238 1058 c 1,12,-1
 302 1054 l 1,13,14
 299 1022 299 1022 280 1010 c 128,-1,15
 261 998 261 998 220 998 c 2,16,-1
 195 1000 l 1,17,18
 143 948 143 948 91 918.5 c 128,-1,19
 39 889 39 889 1 889 c 0,20,21
 -26 889 -26 889 -42 902.5 c 128,-1,22
 -58 916 -58 916 -58 941 c 1,0,1
196 1106 m 0,23,24
 196 1133 196 1133 185.5 1154.5 c 128,-1,25
 175 1176 175 1176 152 1176 c 0,26,27
 134 1176 134 1176 120.5 1165 c 128,-1,28
 107 1154 107 1154 107 1145 c 0,29,30
 107 1099 107 1099 187 1070 c 1,31,-1
 191 1079 l 2,32,33
 196 1095 196 1095 196 1106 c 0,23,24
152 889 m 1024,34,-1
118 1291 m 1024,35,-1
318 1291 m 1024,36,-1
352 869 m 1024,37,-1
EndSplineSet
EndChar

StartChar: uni0650
Encoding: 1616 1616 79
Width: 0
GlyphClass: 4
Flags: W
AnchorPoint: "Anchor-7" 176 -223 basemark 0 9
AnchorPoint: "Anchor-7" 144 -12 mark 0 8
AnchorPoint: "Anchor-4" 144 -12 mark 0 8
AnchorPoint: "Anchor-1" 144 -12 mark 0 8
LayerCount: 2
Fore
SplineSet
349 -10 m 1,0,-1
 351 -31 l 1,1,2
 351 -83 351 -83 304 -104 c 0,3,4
 192 -158 192 -158 -22 -223 c 1,5,-1
 -12 -136 l 1,6,7
 247 -50 247 -50 349 -10 c 1,0,-1
144 -12 m 1024,8,-1
176 -223 m 1024,9,-1
44 -12 m 1024,10,-1
EndSplineSet
EndChar

StartChar: uni0651
Encoding: 1617 1617 80
Width: 0
GlyphClass: 4
Flags: W
AnchorPoint: "Anchor-6" 111 1215 basemark 0 39
AnchorPoint: "Anchor-6" 141 897 mark 0 38
AnchorPoint: "Anchor-3" 141 897 mark 0 38
AnchorPoint: "Anchor-0" 141 897 mark 0 38
LayerCount: 2
Fore
SplineSet
271 1195 m 1,0,1
 289 1159 289 1159 296.5 1124 c 128,-1,2
 304 1089 304 1089 304 1073 c 0,3,4
 304 1026 304 1026 274.5 992 c 128,-1,5
 245 958 245 958 205 958 c 0,6,7
 163 958 163 958 140 988 c 1,8,9
 126 953 126 953 101 935 c 128,-1,10
 76 917 76 917 49 917 c 0,11,12
 13 917 13 917 -10.5 940 c 128,-1,13
 -34 963 -34 963 -34 1007 c 0,14,15
 -34 1045 -34 1045 -11 1091 c 1,16,-1
 16 1086 l 1,17,18
 10 1064 10 1064 10 1037 c 0,19,20
 10 986 10 986 53 986 c 0,21,22
 74 986 74 986 88 1001 c 128,-1,23
 102 1016 102 1016 102 1042 c 2,24,-1
 99 1106 l 1,25,-1
 142 1133 l 1,26,27
 150 1069 150 1069 167.5 1047.5 c 128,-1,28
 185 1026 185 1026 218 1026 c 0,29,30
 229 1026 229 1026 240 1033.5 c 128,-1,31
 251 1041 251 1041 253 1049 c 0,32,33
 250 1067 250 1067 225 1123 c 1,34,-1
 222 1139 l 2,35,36
 222 1156 222 1156 237 1173 c 128,-1,37
 252 1190 252 1190 271 1195 c 1,0,1
141 897 m 1024,38,-1
111 1215 m 1024,39,-1
EndSplineSet
EndChar

StartChar: ringArabic
Encoding: 65537 -1 81
Width: 0
GlyphClass: 1
Flags: W
LayerCount: 2
Fore
SplineSet
266 1058 m 0,0,1
 266 1027 266 1027 255.5 1002.5 c 128,-1,2
 245 978 245 978 227 962 c 128,-1,3
 209 946 209 946 184.5 937 c 128,-1,4
 160 928 160 928 130 928 c 0,5,6
 101 928 101 928 76 937 c 128,-1,7
 51 946 51 946 33.5 962 c 128,-1,8
 16 978 16 978 6 1002 c 128,-1,9
 -4 1026 -4 1026 -4 1056 c 0,10,11
 -4 1087 -4 1087 6 1110.5 c 128,-1,12
 16 1134 16 1134 33.5 1150 c 128,-1,13
 51 1166 51 1166 76 1175 c 128,-1,14
 101 1184 101 1184 131 1184 c 0,15,16
 160 1184 160 1184 184.5 1175 c 128,-1,17
 209 1166 209 1166 227 1150 c 128,-1,18
 245 1134 245 1134 255.5 1111 c 128,-1,19
 266 1088 266 1088 266 1058 c 0,0,1
188 1056 m 0,20,21
 188 1085 188 1085 172 1100 c 128,-1,22
 156 1115 156 1115 131 1115 c 0,23,24
 105 1115 105 1115 88.5 1100 c 128,-1,25
 72 1085 72 1085 72 1056 c 0,26,27
 72 1030 72 1030 87 1014 c 128,-1,28
 102 998 102 998 130 998 c 0,29,30
 157 998 157 998 172.5 1014 c 128,-1,31
 188 1030 188 1030 188 1056 c 0,20,21
140 908 m 1024,32,-1
131 1214 m 1024,33,-1
EndSplineSet
EndChar

StartChar: uni0653
Encoding: 1619 1619 82
Width: 0
GlyphClass: 4
Flags: W
AnchorPoint: "Anchor-6" 139 1327 basemark 0 17
AnchorPoint: "Anchor-6" 138 1131 mark 0 16
AnchorPoint: "Anchor-3" 138 1131 mark 0 16
AnchorPoint: "Anchor-0" 138 1131 mark 0 16
LayerCount: 2
Fore
SplineSet
194 1151 m 0,0,1
 100 1151 100 1151 -17 1195 c 1,2,-1
 -115 1147 l 1,3,-1
 -140 1189 l 1,4,5
 -19 1287 -19 1287 -5 1287 c 2,6,-1
 31 1282 l 1,7,8
 150 1253 150 1253 202 1253 c 0,9,10
 237 1253 237 1253 287.5 1264.5 c 128,-1,11
 338 1276 338 1276 366 1290 c 1,12,-1
 382 1246 l 1,13,14
 342 1204 342 1204 286.5 1177.5 c 128,-1,15
 231 1151 231 1151 194 1151 c 0,0,1
138 1131 m 1024,16,-1
139 1327 m 1024,17,-1
EndSplineSet
EndChar

StartChar: uni0654
Encoding: 1620 1620 83
Width: 0
GlyphClass: 4
Flags: W
AnchorPoint: "Anchor-6" 116 1446 basemark 0 28
AnchorPoint: "Anchor-6" 136 1057 mark 0 27
AnchorPoint: "Anchor-3" 136 1057 mark 0 27
AnchorPoint: "Anchor-0" 136 1057 mark 0 27
LayerCount: 2
Fore
SplineSet
171 1276 m 1,0,-1
 172 1284 l 2,1,2
 172 1293 172 1293 164.5 1301.5 c 128,-1,3
 157 1310 157 1310 146 1310 c 0,4,5
 114 1310 114 1310 88 1287 c 128,-1,6
 62 1264 62 1264 50 1233 c 1,7,8
 82 1192 82 1192 147 1192 c 0,9,10
 184 1192 184 1192 248 1205 c 1,11,-1
 244 1127 l 1,12,13
 159 1105 159 1105 104.5 1082.5 c 128,-1,14
 50 1060 50 1060 -9 1028 c 1,15,-1
 -14 1107 l 1,16,-1
 67 1153 l 1,17,18
 -8 1166 -8 1166 -8 1235 c 0,19,20
 -8 1293 -8 1293 40.5 1344.5 c 128,-1,21
 89 1396 89 1396 143 1396 c 0,22,23
 223 1396 223 1396 223 1320 c 0,24,25
 223 1293 223 1293 209 1265 c 1,26,-1
 171 1276 l 1,0,-1
136 1057 m 1024,27,-1
116 1446 m 1024,28,-1
EndSplineSet
EndChar

StartChar: uni0655
Encoding: 1621 1621 84
Width: 0
GlyphClass: 4
Flags: W
AnchorPoint: "Anchor-7" 208 -276 basemark 0 28
AnchorPoint: "Anchor-7" 173 92 mark 0 27
AnchorPoint: "Anchor-4" 173 92 mark 0 27
AnchorPoint: "Anchor-1" 173 92 mark 0 27
LayerCount: 2
Fore
SplineSet
232 -58 m 1,0,-1
 234 -49 l 2,1,2
 234 -40 234 -40 226.5 -32 c 128,-1,3
 219 -24 219 -24 208 -24 c 0,4,5
 176 -24 176 -24 149.5 -46.5 c 128,-1,6
 123 -69 123 -69 112 -100 c 1,7,8
 143 -141 143 -141 205 -141 c 0,9,10
 250 -141 250 -141 310 -128 c 1,11,-1
 305 -207 l 1,12,13
 216 -230 216 -230 168 -249.5 c 128,-1,14
 120 -269 120 -269 52 -306 c 1,15,-1
 48 -226 l 1,16,-1
 128 -181 l 1,17,18
 54 -165 54 -165 54 -99 c 0,19,20
 54 -39 54 -39 103 11.5 c 128,-1,21
 152 62 152 62 205 62 c 0,22,23
 284 62 284 62 284 -13 c 0,24,25
 284 -40 284 -40 271 -69 c 1,26,-1
 232 -58 l 1,0,-1
173 92 m 1024,27,-1
208 -276 m 1024,28,-1
EndSplineSet
EndChar

StartChar: uni0656
Encoding: 1622 1622 85
Width: 0
GlyphClass: 4
Flags: W
AnchorPoint: "Anchor-7" 22 -537 basemark 0 13
AnchorPoint: "Anchor-7" 18 -5 mark 0 14
AnchorPoint: "Anchor-4" 18 -5 mark 0 14
AnchorPoint: "Anchor-1" 18 -5 mark 0 14
LayerCount: 2
Fore
SplineSet
45 -35 m 1,0,1
 61 -113 61 -113 68.5 -178 c 128,-1,2
 76 -243 76 -243 76 -342 c 0,3,4
 76 -443 76 -443 23 -517 c 1,5,-1
 10 -513 l 1,6,7
 10 -335 10 -335 -24 -196 c 0,8,9
 -30 -170 -30 -170 -30 -150 c 0,10,11
 -30 -110 -30 -110 -9.5 -79 c 128,-1,12
 11 -48 11 -48 45 -35 c 1,0,1
22 -537 m 1024,13,-1
18 -5 m 1024,14,-1
EndSplineSet
EndChar

StartChar: uni0657
Encoding: 1623 1623 86
Width: 0
GlyphClass: 4
Flags: W
AnchorPoint: "Anchor-6" 160 1403 basemark 0 38
AnchorPoint: "Anchor-6" 153 935 mark 0 37
AnchorPoint: "Anchor-3" 153 935 mark 0 37
AnchorPoint: "Anchor-0" 153 935 mark 0 37
LayerCount: 2
Fore
SplineSet
422 1310 m 1,0,1
 291 1287 291 1287 197 1222 c 1,2,-1
 192 1219 l 1,3,4
 234 1201 234 1201 259 1171 c 128,-1,5
 284 1141 284 1141 284 1104 c 0,6,7
 284 1048 284 1048 238 1001.5 c 128,-1,8
 192 955 192 955 143 955 c 0,9,10
 107 955 107 955 83.5 996.5 c 128,-1,11
 60 1038 60 1038 60 1111 c 0,12,13
 60 1146 60 1146 70 1172 c 1,14,15
 30 1178 30 1178 -6 1178 c 1,16,17
 -2 1215 -2 1215 21 1229 c 128,-1,18
 44 1243 44 1243 92 1243 c 2,19,-1
 120 1241 l 1,20,21
 181 1302 181 1302 244 1337.5 c 128,-1,22
 307 1373 307 1373 351 1373 c 0,23,24
 383 1373 383 1373 402.5 1356.5 c 128,-1,25
 422 1340 422 1340 422 1310 c 1,0,1
120 1116 m 0,26,27
 120 1084 120 1084 133 1058 c 128,-1,28
 146 1032 146 1032 173 1032 c 0,29,30
 194 1032 194 1032 209.5 1045.5 c 128,-1,31
 225 1059 225 1059 225 1070 c 0,32,33
 225 1102 225 1102 195.5 1126 c 128,-1,34
 166 1150 166 1150 131 1158 c 1,35,36
 120 1140 120 1140 120 1116 c 0,26,27
153 935 m 1024,37,-1
160 1403 m 1024,38,-1
EndSplineSet
EndChar

StartChar: uni0658
Encoding: 1624 1624 87
Width: 0
GlyphClass: 4
Flags: W
AnchorPoint: "Anchor-6" 208 1355 basemark 0 16
AnchorPoint: "Anchor-6" 188 1033 mark 0 15
AnchorPoint: "Anchor-3" 188 1033 mark 0 15
AnchorPoint: "Anchor-0" 188 1033 mark 0 15
LayerCount: 2
Fore
SplineSet
360 1299 m 1,0,1
 343 1178 343 1178 298.5 1115.5 c 128,-1,2
 254 1053 254 1053 188 1053 c 0,3,4
 140 1053 140 1053 103 1078 c 128,-1,5
 66 1103 66 1103 43.5 1151.5 c 128,-1,6
 21 1200 21 1200 21 1248 c 0,7,8
 21 1271 21 1271 36 1288 c 128,-1,9
 51 1305 51 1305 69 1305 c 1,10,11
 89 1138 89 1138 194 1138 c 0,12,13
 294 1138 294 1138 327 1305 c 1,14,-1
 360 1299 l 1,0,1
188 1033 m 1024,15,-1
208 1355 m 1024,16,-1
EndSplineSet
EndChar

StartChar: uni0659
Encoding: 1625 1625 88
Width: 0
GlyphClass: 4
Flags: W
AnchorPoint: "Anchor-6" 250 1089 basemark 0 10
AnchorPoint: "Anchor-6" 256 927 mark 0 9
AnchorPoint: "Anchor-3" 256 927 mark 0 9
AnchorPoint: "Anchor-0" 256 927 mark 0 9
LayerCount: 2
Fore
SplineSet
53 947 m 1,0,-1
 70 1017 l 1,1,2
 176 1017 176 1017 462 1039 c 1,3,4
 462 1016 462 1016 451.5 994.5 c 128,-1,5
 441 973 441 973 427 971 c 0,6,7
 346 962 346 962 228 954.5 c 128,-1,8
 110 947 110 947 53 947 c 1,0,-1
256 927 m 1024,9,-1
250 1089 m 1024,10,-1
EndSplineSet
EndChar

StartChar: uni065A
Encoding: 1626 1626 89
Width: 0
GlyphClass: 4
Flags: W
AnchorPoint: "Anchor-6" 255 1038 basemark 0 24
AnchorPoint: "Anchor-6" 282 633 mark 0 23
AnchorPoint: "Anchor-3" 282 633 mark 0 23
AnchorPoint: "Anchor-0" 282 633 mark 0 23
LayerCount: 2
Fore
SplineSet
379 988 m 1,0,1
 396 986 396 986 409.5 971.5 c 128,-1,2
 423 957 423 957 423 930 c 0,3,4
 423 917 423 917 415.5 902.5 c 128,-1,5
 408 888 408 888 394.5 862 c 128,-1,6
 381 836 381 836 362 794.5 c 128,-1,7
 343 753 343 753 321 686 c 1,8,9
 283 663 283 663 221 653 c 1,10,11
 185 730 185 730 148 804.5 c 128,-1,12
 111 879 111 879 60 948 c 1,13,-1
 91 956 l 2,14,15
 111 961 111 961 127 961 c 0,16,17
 154 961 154 961 176.5 940.5 c 128,-1,18
 199 920 199 920 228 870.5 c 128,-1,19
 257 821 257 821 285 753 c 1,20,21
 294 802 294 802 324.5 879.5 c 128,-1,22
 355 957 355 957 379 988 c 1,0,1
282 633 m 1024,23,-1
255 1038 m 1024,24,-1
EndSplineSet
EndChar

StartChar: uni065B
Encoding: 1627 1627 90
Width: 0
GlyphClass: 4
Flags: W
AnchorPoint: "Anchor-6" 190 1082 basemark 0 23
AnchorPoint: "Anchor-6" 243 676 mark 0 22
AnchorPoint: "Anchor-3" 243 676 mark 0 22
AnchorPoint: "Anchor-0" 243 676 mark 0 22
LayerCount: 2
Fore
SplineSet
104 696 m 1,0,1
 87 698 87 698 73.5 712.5 c 128,-1,2
 60 727 60 727 60 755 c 0,3,4
 60 767 60 767 67.5 781.5 c 128,-1,5
 75 796 75 796 89 822 c 128,-1,6
 103 848 103 848 121.5 889.5 c 128,-1,7
 140 931 140 931 163 998 c 1,8,9
 204 1023 204 1023 263 1032 c 1,10,11
 348 843 348 843 423 737 c 1,12,-1
 393 730 l 2,13,14
 373 724 373 724 356 724 c 0,15,16
 324 724 324 724 301.5 749 c 128,-1,17
 279 774 279 774 258.5 808 c 128,-1,18
 238 842 238 842 198 933 c 1,19,20
 189 877 189 877 159 804 c 128,-1,21
 129 731 129 731 104 696 c 1,0,1
243 676 m 1024,22,-1
190 1082 m 1024,23,-1
EndSplineSet
EndChar

StartChar: uni065C
Encoding: 1628 1628 91
Width: 0
GlyphClass: 4
Flags: W
AnchorPoint: "Anchor-7" 0 -706 basemark 0 13
AnchorPoint: "Anchor-7" 0 -356 mark 0 0
AnchorPoint: "Anchor-4" 0 -356 mark 0 0
AnchorPoint: "Anchor-1" 0 -356 mark 0 0
LayerCount: 2
Fore
SplineSet
0 -356 m 1024,0,-1
-150 -536 m 256,1,2
 -150 -474 -150 -474 -106 -430 c 128,-1,3
 -62 -386 -62 -386 0 -386 c 256,4,5
 62 -386 62 -386 106 -430 c 128,-1,6
 150 -474 150 -474 150 -536 c 256,7,8
 150 -598 150 -598 106 -642 c 128,-1,9
 62 -686 62 -686 0 -686 c 256,10,11
 -62 -686 -62 -686 -106 -642 c 128,-1,12
 -150 -598 -150 -598 -150 -536 c 256,1,2
0 -706 m 1024,13,-1
EndSplineSet
EndChar

StartChar: uni065D
Encoding: 1629 1629 92
Width: 0
GlyphClass: 4
Flags: W
AnchorPoint: "Anchor-6" 176 1460 basemark 0 38
AnchorPoint: "Anchor-6" 162 972 mark 0 37
AnchorPoint: "Anchor-3" 162 972 mark 0 37
AnchorPoint: "Anchor-0" 162 972 mark 0 37
LayerCount: 2
Fore
SplineSet
452 1055 m 1,0,1
 452 1025 452 1025 432.5 1008.5 c 128,-1,2
 413 992 413 992 381 992 c 0,3,4
 337 992 337 992 274.5 1027.5 c 128,-1,5
 212 1063 212 1063 151 1124 c 1,6,-1
 123 1122 l 2,7,8
 75 1122 75 1122 51.5 1136 c 128,-1,9
 28 1150 28 1150 24 1187 c 1,10,11
 60 1187 60 1187 101 1192 c 1,12,-1
 99 1197 l 1,13,14
 90 1233 90 1233 90 1255 c 0,15,16
 90 1329 90 1329 113.5 1369.5 c 128,-1,17
 137 1410 137 1410 173 1410 c 0,18,19
 223 1410 223 1410 268.5 1363.5 c 128,-1,20
 314 1317 314 1317 314 1261 c 0,21,22
 314 1226 314 1226 294 1199.5 c 128,-1,23
 274 1173 274 1173 223 1145 c 1,24,-1
 227 1143 l 1,25,26
 321 1078 321 1078 452 1055 c 1,0,1
256 1295 m 0,27,28
 256 1306 256 1306 240 1319.5 c 128,-1,29
 224 1333 224 1333 203 1333 c 0,30,31
 176 1333 176 1333 163.5 1307.5 c 128,-1,32
 151 1282 151 1282 151 1250 c 0,33,34
 151 1228 151 1228 162 1206 c 1,35,36
 256 1241 256 1241 256 1295 c 0,27,28
162 972 m 1024,37,-1
176 1460 m 1024,38,-1
EndSplineSet
EndChar

StartChar: uni065E
Encoding: 1630 1630 93
Width: 0
GlyphClass: 4
Flags: W
AnchorPoint: "Anchor-6" 273 1412 basemark 0 27
AnchorPoint: "Anchor-6" 212 998 mark 0 26
AnchorPoint: "Anchor-3" 212 998 mark 0 26
AnchorPoint: "Anchor-0" 212 998 mark 0 26
LayerCount: 2
Fore
SplineSet
266 1081 m 1,0,-1
 293 1119 l 1,1,-1
 319 1152 l 1,2,3
 346 1134 346 1134 396 1087 c 1,4,5
 364 1037 364 1037 342 1018 c 1,6,-1
 266 1081 l 1,0,-1
50 1042 m 1,7,-1
 70 1124 l 1,8,9
 161 1158 161 1158 351 1305 c 0,10,11
 391 1336 391 1336 418 1352 c 1,12,13
 430 1321 430 1321 430 1295 c 0,14,15
 430 1279 430 1279 426 1270.5 c 128,-1,16
 422 1262 422 1262 339.5 1207.5 c 128,-1,17
 257 1153 257 1153 185 1112 c 128,-1,18
 113 1071 113 1071 50 1042 c 1,7,-1
85 1292 m 1,19,20
 93 1306 93 1306 138 1362 c 1,21,22
 173 1337 173 1337 214 1296 c 1,23,24
 181 1246 181 1246 160 1228 c 1,25,-1
 85 1292 l 1,19,20
212 998 m 1024,26,-1
273 1412 m 1024,27,-1
EndSplineSet
EndChar

StartChar: wavyhamza_below
Encoding: 1631 1631 94
Width: 0
GlyphClass: 4
Flags: W
AnchorPoint: "Anchor-7" 200 -256 basemark 0 45
AnchorPoint: "Anchor-7" 162 135 mark 0 44
AnchorPoint: "Anchor-4" 162 135 mark 0 44
AnchorPoint: "Anchor-1" 162 135 mark 0 44
LayerCount: 2
Fore
SplineSet
122 -155 m 0,0,1
 142 -155 142 -155 155 -149 c 1,2,3
 80 -111 80 -111 80 -52 c 0,4,5
 80 -16 80 -16 103.5 20.5 c 128,-1,6
 127 57 127 57 162 81 c 128,-1,7
 197 105 197 105 226 105 c 0,8,9
 260 105 260 105 279 86 c 128,-1,10
 298 67 298 67 298 33 c 0,11,12
 298 8 298 8 287 -22 c 1,13,-1
 251 -13 l 1,14,-1
 252 -5 l 2,15,16
 252 3 252 3 245.5 11.5 c 128,-1,17
 239 20 239 20 228 20 c 0,18,19
 205 20 205 20 179 0 c 128,-1,20
 153 -20 153 -20 136 -51 c 1,21,22
 158 -73 158 -73 191 -88 c 128,-1,23
 224 -103 224 -103 250 -103 c 0,24,25
 286 -103 286 -103 331 -83 c 1,26,-1
 327 -159 l 1,27,28
 269 -193 269 -193 211 -214.5 c 128,-1,29
 153 -236 153 -236 121 -236 c 0,30,31
 98 -236 98 -236 71 -220 c 0,32,33
 47 -205 47 -205 27 -205 c 0,34,35
 -3 -205 -3 -205 -39 -246 c 1,36,-1
 -68 -223 l 1,37,38
 -47 -188 -47 -188 -18 -163 c 128,-1,39
 11 -138 11 -138 33 -138 c 0,40,41
 53 -138 53 -138 74 -147 c 0,42,43
 103 -155 103 -155 122 -155 c 0,0,1
162 135 m 1024,44,-1
200 -256 m 1024,45,-1
EndSplineSet
EndChar

StartChar: uni0660
Encoding: 1632 1632 95
Width: 644
GlyphClass: 1
Flags: W
LayerCount: 2
Fore
SplineSet
156 429 m 1,0,1
 190 484 190 484 217.5 538 c 128,-1,2
 245 592 245 592 280 643 c 1,3,4
 392 579 392 579 439.5 537.5 c 128,-1,5
 487 496 487 496 487 480 c 0,6,7
 487 452 487 452 374 286 c 1,8,9
 266 368 266 368 156 429 c 1,0,1
268 1163 m 1024,10,-1
EndSplineSet
Substitution2: "Single Substitution lookup 17 subtable" uni0660.small
Substitution2: "'tnum' Tabular Numbers in Arabic lookup 14 subtable" uni0660.tab
EndChar

StartChar: uni0661
Encoding: 1633 1633 96
Width: 648
GlyphClass: 1
Flags: W
LayerCount: 2
Fore
SplineSet
157 1013 m 0,0,1
 157 1054 157 1054 186.5 1093 c 128,-1,2
 216 1132 216 1132 268 1163 c 1,3,4
 370 980 370 980 430.5 766.5 c 128,-1,5
 491 553 491 553 491 391 c 0,6,7
 491 193 491 193 463 0 c 1,8,-1
 385 19 l 1,9,10
 382 230 382 230 365.5 363 c 128,-1,11
 349 496 349 496 305 641.5 c 128,-1,12
 261 787 261 787 174 954 c 0,13,14
 157 986 157 986 157 1013 c 0,0,1
EndSplineSet
Substitution2: "Single Substitution lookup 17 subtable" uni0661.small
Substitution2: "'tnum' Tabular Numbers in Arabic lookup 14 subtable" uni0661.tab
EndChar

StartChar: uni0662
Encoding: 1634 1634 97
Width: 846
GlyphClass: 1
Flags: W
LayerCount: 2
Fore
SplineSet
157 1013 m 0,0,1
 157 1054 157 1054 186.5 1094 c 128,-1,2
 216 1134 216 1134 268 1163 c 1,3,4
 330 1051 330 1051 375 932 c 1,5,6
 397 915 397 915 432.5 904.5 c 128,-1,7
 468 894 468 894 508 894 c 0,8,9
 686 894 686 894 712 1161 c 1,10,-1
 794 1145 l 1,11,12
 794 722 794 722 510 722 c 0,13,14
 475 722 475 722 438 738 c 1,15,16
 491 538 491 538 491 391 c 0,17,18
 491 295 491 295 486 217 c 128,-1,19
 481 139 481 139 463 0 c 1,20,-1
 385 19 l 1,21,22
 382 246 382 246 364 381.5 c 128,-1,23
 346 517 346 517 299.5 659.5 c 128,-1,24
 253 802 253 802 174 954 c 0,25,26
 157 986 157 986 157 1013 c 0,0,1
EndSplineSet
Substitution2: "Single Substitution lookup 17 subtable" uni0662.small
Substitution2: "'tnum' Tabular Numbers in Arabic lookup 14 subtable" uni0662.tab
EndChar

StartChar: uni0663
Encoding: 1635 1635 98
Width: 978
GlyphClass: 1
Flags: W
LayerCount: 2
Fore
SplineSet
157 1014 m 0,0,1
 157 1055 157 1055 186 1094 c 128,-1,2
 215 1133 215 1133 268 1163 c 1,3,4
 328 1053 328 1053 374 931 c 1,5,6
 423 894 423 894 489 894 c 0,7,8
 549 894 549 894 576.5 932.5 c 128,-1,9
 604 971 604 971 604 1049 c 0,10,11
 604 1095 604 1095 599 1142 c 1,12,-1
 660 1163 l 1,13,14
 689 1057 689 1057 689 983 c 2,15,-1
 689 971 l 1,16,17
 723 959 723 959 747 959 c 0,18,19
 790 959 790 959 813.5 996 c 128,-1,20
 837 1033 837 1033 837 1102 c 0,21,22
 837 1140 837 1140 834 1159 c 1,23,-1
 917 1150 l 1,24,25
 926 1085 926 1085 926 1042 c 0,26,27
 926 928 926 928 875.5 858 c 128,-1,28
 825 788 825 788 749 788 c 0,29,30
 703 788 703 788 651 817 c 1,31,32
 630 775 630 775 593.5 748.5 c 128,-1,33
 557 722 557 722 508 722 c 0,34,35
 474 722 474 722 437 738 c 1,36,-1
 435 738 l 1,37,38
 487 542 487 542 487 391 c 0,39,40
 487 189 487 189 463 0 c 1,41,-1
 385 19 l 1,42,43
 383 217 383 217 368 344.5 c 128,-1,44
 353 472 353 472 310 620.5 c 128,-1,45
 267 769 267 769 174 954 c 0,46,47
 157 986 157 986 157 1014 c 0,0,1
EndSplineSet
Substitution2: "Single Substitution lookup 17 subtable" uni0663.small
Substitution2: "'tnum' Tabular Numbers in Arabic lookup 14 subtable" uni0663.tab
EndChar

StartChar: uni0664
Encoding: 1636 1636 99
Width: 860
GlyphClass: 1
Flags: W
LayerCount: 2
Fore
SplineSet
139 741 m 0,0,1
 139 794 139 794 164.5 870.5 c 128,-1,2
 190 947 190 947 226 997.5 c 128,-1,3
 262 1048 262 1048 335 1103 c 128,-1,4
 408 1158 408 1158 530 1220 c 1,5,6
 536 1201 536 1201 536 1178 c 0,7,8
 536 1134 536 1134 519.5 1094.5 c 128,-1,9
 503 1055 503 1055 475 1032 c 2,10,-1
 413 983 l 1,11,12
 290 891 290 891 239 844 c 1,13,14
 284 795 284 795 344 769.5 c 128,-1,15
 404 744 404 744 487 726 c 1,16,-1
 543 605 l 1,17,18
 480 537 480 537 405.5 426.5 c 128,-1,19
 331 316 331 316 331 268 c 0,20,21
 331 226 331 226 404 194.5 c 128,-1,22
 477 163 477 163 578 163 c 0,23,24
 683 163 683 163 761 184 c 1,25,-1
 782 148 l 1,26,27
 767 134 767 134 751 108.5 c 128,-1,28
 735 83 735 83 713 58 c 128,-1,29
 691 33 691 33 659.5 14.5 c 128,-1,30
 628 -4 628 -4 581 -4 c 0,31,32
 413 -4 413 -4 325 48 c 128,-1,33
 237 100 237 100 237 203 c 0,34,35
 237 261 237 261 277 360.5 c 128,-1,36
 317 460 317 460 378 553 c 1,37,38
 272 597 272 597 205.5 648 c 128,-1,39
 139 699 139 699 139 741 c 0,0,1
268 1163 m 1024,40,-1
EndSplineSet
Substitution2: "Single Substitution lookup 17 subtable" uni0664.small
Substitution2: "'tnum' Tabular Numbers in Arabic lookup 14 subtable" uni0664.tab
EndChar

StartChar: uni0665
Encoding: 1637 1637 100
Width: 782
GlyphClass: 1
Flags: W
LayerCount: 2
Fore
SplineSet
96 417 m 0,0,1
 96 549 96 549 146 699.5 c 128,-1,2
 196 850 196 850 275.5 952.5 c 128,-1,3
 355 1055 355 1055 423 1055 c 0,4,5
 499 1055 499 1055 559 993 c 128,-1,6
 619 931 619 931 652.5 814.5 c 128,-1,7
 686 698 686 698 686 574 c 0,8,9
 686 390 686 390 641 308 c 128,-1,10
 596 226 596 226 517 174 c 128,-1,11
 438 122 438 122 355 122 c 0,12,13
 218 122 218 122 157 193.5 c 128,-1,14
 96 265 96 265 96 417 c 0,0,1
377 294 m 0,15,16
 424 294 424 294 462.5 309.5 c 128,-1,17
 501 325 501 325 530 351.5 c 128,-1,18
 559 378 559 378 580 418 c 128,-1,19
 601 458 601 458 601 482 c 0,20,21
 601 641 601 641 537.5 750 c 128,-1,22
 474 859 474 859 379 859 c 0,23,24
 337 859 337 859 289 794 c 128,-1,25
 241 729 241 729 209.5 630.5 c 128,-1,26
 178 532 178 532 178 462 c 0,27,28
 178 294 178 294 377 294 c 0,15,16
268 1163 m 1024,29,-1
EndSplineSet
Substitution2: "Single Substitution lookup 17 subtable" uni0665.small
Substitution2: "'tnum' Tabular Numbers in Arabic lookup 14 subtable" uni0665.tab
EndChar

StartChar: uni0666
Encoding: 1638 1638 101
Width: 912
GlyphClass: 1
Flags: W
LayerCount: 2
Fore
SplineSet
661 -3 m 1,0,1
 585 186 585 186 549 348 c 128,-1,2
 513 510 513 510 513 682 c 0,3,4
 513 748 513 748 526 844.5 c 128,-1,5
 539 941 539 941 547 971 c 1,6,7
 463 959 463 959 337 959 c 0,8,9
 254 959 254 959 177.5 974 c 128,-1,10
 101 989 101 989 52 1012 c 1,11,-1
 99 1185 l 1,12,13
 225 1135 225 1135 337 1135 c 0,14,15
 474 1135 474 1135 636 1155 c 1,16,-1
 661 1122 l 1,17,18
 626 982 626 982 626 879 c 0,19,20
 626 639 626 639 665.5 459.5 c 128,-1,21
 705 280 705 280 782 128 c 1,22,-1
 661 -3 l 1,0,1
388 1163 m 1024,23,-1
EndSplineSet
Substitution2: "Single Substitution lookup 17 subtable" uni0666.small
Substitution2: "'tnum' Tabular Numbers in Arabic lookup 14 subtable" uni0666.tab
EndChar

StartChar: uni0667
Encoding: 1639 1639 102
Width: 893
GlyphClass: 1
Flags: W
LayerCount: 2
Fore
SplineSet
418 0 m 1,0,1
 312 358 312 358 237.5 535 c 128,-1,2
 163 712 163 712 30 959 c 0,3,4
 19 979 19 979 19 1003 c 0,5,6
 19 1042 19 1042 45.5 1083.5 c 128,-1,7
 72 1125 72 1125 118 1159 c 1,8,9
 212 1015 212 1015 323.5 723 c 128,-1,10
 435 431 435 431 477 221 c 1,11,12
 520 467 520 467 612 736 c 128,-1,13
 704 1005 704 1005 789 1159 c 1,14,-1
 875 1012 l 1,15,16
 747 756 747 756 669 541.5 c 128,-1,17
 591 327 591 327 528 82 c 1,18,19
 463 30 463 30 418 0 c 1,0,1
268 1163 m 1024,20,-1
EndSplineSet
Substitution2: "Single Substitution lookup 17 subtable" uni0667.small
Substitution2: "'tnum' Tabular Numbers in Arabic lookup 14 subtable" uni0667.tab
EndChar

StartChar: uni0668
Encoding: 1640 1640 103
Width: 893
GlyphClass: 1
Flags: W
LayerCount: 2
Fore
SplineSet
475 1159 m 1,0,1
 575 821 575 821 651 635 c 128,-1,2
 727 449 727 449 864 200 c 0,3,4
 875 179 875 179 875 155 c 0,5,6
 875 117 875 117 848.5 76.5 c 128,-1,7
 822 36 822 36 774 0 c 1,8,9
 680 143 680 143 568.5 434.5 c 128,-1,10
 457 726 457 726 415 937 c 1,11,12
 370 683 370 683 281.5 423.5 c 128,-1,13
 193 164 193 164 105 0 c 1,14,-1
 17 146 l 1,15,16
 150 411 150 411 224 614.5 c 128,-1,17
 298 818 298 818 365 1077 c 1,18,-1
 475 1159 l 1,0,1
268 1163 m 1024,19,-1
EndSplineSet
Substitution2: "Single Substitution lookup 17 subtable" uni0668.small
Substitution2: "'tnum' Tabular Numbers in Arabic lookup 14 subtable" uni0668.tab
EndChar

StartChar: uni0669
Encoding: 1641 1641 104
Width: 887
GlyphClass: 1
Flags: W
LayerCount: 2
Fore
SplineSet
637 -3 m 1,0,1
 562 192 562 192 529 337.5 c 128,-1,2
 496 483 496 483 493 638 c 1,3,4
 440 614 440 614 382 614 c 0,5,6
 236 614 236 614 161.5 680.5 c 128,-1,7
 87 747 87 747 87 872 c 0,8,9
 87 940 87 940 127.5 1017.5 c 128,-1,10
 168 1095 168 1095 232 1147 c 128,-1,11
 296 1199 296 1199 355 1199 c 0,12,13
 472 1199 472 1199 533.5 1095.5 c 128,-1,14
 595 992 595 992 595 768 c 0,15,16
 595 604 595 604 635 448 c 128,-1,17
 675 292 675 292 757 127 c 1,18,-1
 637 -3 l 1,0,1
304 1020 m 0,19,20
 253 1020 253 1020 214.5 986.5 c 128,-1,21
 176 953 176 953 176 922 c 0,22,23
 176 864 176 864 257 825 c 128,-1,24
 338 786 338 786 440 786 c 1,25,-1
 486 791 l 1,26,-1
 484 804 l 2,27,28
 452 1020 452 1020 304 1020 c 0,19,20
128 1163 m 1024,29,-1
EndSplineSet
Substitution2: "Single Substitution lookup 17 subtable" uni0669.small
Substitution2: "'tnum' Tabular Numbers in Arabic lookup 14 subtable" uni0669.tab
EndChar

StartChar: uni066A
Encoding: 1642 1642 105
Width: 822
GlyphClass: 1
Flags: W
LayerCount: 2
Fore
SplineSet
181 -123 m 1,0,1
 134 -85 134 -85 108 -23 c 1,2,3
 188 147 188 147 351.5 470 c 128,-1,4
 515 793 515 793 648 1036 c 1,5,6
 672 1019 672 1019 688 989 c 128,-1,7
 704 959 704 959 705 929 c 0,8,9
 705 909 705 909 698 895 c 0,10,11
 567 648 567 648 411 340 c 128,-1,12
 255 32 255 32 181 -123 c 1,0,1
70 773 m 1,13,14
 99 823 99 823 124 871.5 c 128,-1,15
 149 920 149 920 181 968 c 1,16,17
 283 909 283 909 326 871.5 c 128,-1,18
 369 834 369 834 369 818 c 0,19,20
 369 789 369 789 266 643 c 1,21,22
 149 729 149 729 70 773 c 1,13,14
452 103 m 1,23,24
 481 153 481 153 506.5 201.5 c 128,-1,25
 532 250 532 250 564 298 c 1,26,27
 666 239 666 239 709 201.5 c 128,-1,28
 752 164 752 164 752 148 c 0,29,30
 752 120 752 120 649 -28 c 1,31,32
 549 49 549 49 452 103 c 1,23,24
268 1163 m 1024,33,-1
EndSplineSet
EndChar

StartChar: uni066B
Encoding: 1643 1643 106
Width: 455
GlyphClass: 1
Flags: W
LayerCount: 2
Fore
SplineSet
370 142 m 0,0,1
 370 18 370 18 298 -69 c 128,-1,2
 226 -156 226 -156 85 -198 c 1,3,-1
 85 -125 l 1,4,5
 251 -72 251 -72 251 31 c 0,6,7
 251 57 251 57 231 70.5 c 128,-1,8
 211 84 211 84 187 97.5 c 128,-1,9
 163 111 163 111 143 131.5 c 128,-1,10
 123 152 123 152 123 192 c 0,11,12
 123 242 123 242 155.5 268.5 c 128,-1,13
 188 295 188 295 236 295 c 0,14,15
 297 295 297 295 333.5 251.5 c 128,-1,16
 370 208 370 208 370 142 c 0,0,1
EndSplineSet
Substitution2: "'locl' Localized Forms in Arabic lookup 13 subtable" DecimalPointFarsi
EndChar

StartChar: uni066C
Encoding: 1644 1644 107
Width: 329
GlyphClass: 1
Flags: W
LayerCount: 2
Fore
SplineSet
25 155 m 0,0,1
 25 280 25 280 98.5 368 c 128,-1,2
 172 456 172 456 310 496 c 1,3,-1
 310 423 l 1,4,5
 145 371 145 371 145 266 c 0,6,7
 145 246 145 246 159.5 231.5 c 128,-1,8
 174 217 174 217 209 200 c 0,9,10
 272 167 272 167 272 106 c 0,11,12
 272 56 272 56 239.5 29.5 c 128,-1,13
 207 3 207 3 159 3 c 0,14,15
 100 3 100 3 62.5 46 c 128,-1,16
 25 89 25 89 25 155 c 0,0,1
EndSplineSet
Substitution2: "'locl' Localized Forms in Arabic lookup 13 subtable" ThousandsSepFarsi
EndChar

StartChar: uni066D
Encoding: 1645 1645 108
Width: 820
GlyphClass: 1
Flags: W
LayerCount: 2
Fore
SplineSet
414 827 m 1,0,-1
 493 552 l 1,1,-1
 778 562 l 1,2,-1
 782 554 l 1,3,-1
 543 394 l 1,4,-1
 639 125 l 1,5,-1
 632 120 l 1,6,-1
 407 296 l 1,7,-1
 184 120 l 1,8,-1
 178 125 l 1,9,-1
 274 394 l 1,10,-1
 38 552 l 1,11,-1
 42 562 l 1,12,-1
 326 552 l 1,13,-1
 404 827 l 1,14,-1
 414 827 l 1,0,-1
EndSplineSet
EndChar

StartChar: uni066E
Encoding: 1646 1646 109
Width: 1581
GlyphClass: 2
Flags: W
AnchorPoint: "Anchor-1" 774 -106 basechar 0 35
AnchorPoint: "Anchor-0" 748 816 basechar 0 33
LayerCount: 2
Fore
SplineSet
643 0 m 0,0,1
 402 0 402 0 272.5 87 c 128,-1,2
 143 174 143 174 143 349 c 0,3,4
 143 476 143 476 171 574 c 1,5,-1
 244 574 l 1,6,7
 242 566 242 566 239.5 532 c 128,-1,8
 237 498 237 498 237 473 c 0,9,10
 237 354 237 354 282 289 c 128,-1,11
 327 224 327 224 425.5 190 c 128,-1,12
 524 156 524 156 686 156 c 0,13,14
 877 156 877 156 1059 195 c 128,-1,15
 1241 234 1241 234 1382 301 c 1,16,17
 1360 386 1360 386 1308 526 c 0,18,19
 1269 630 1269 630 1269 663 c 0,20,21
 1269 707 1269 707 1304 753 c 128,-1,22
 1339 799 1339 799 1404 836 c 1,23,24
 1413 776 1413 776 1426 717 c 128,-1,25
 1439 658 1439 658 1451 601 c 128,-1,26
 1463 544 1463 544 1471.5 491 c 128,-1,27
 1480 438 1480 438 1480 391 c 0,28,29
 1480 320 1480 320 1409 183 c 1,30,31
 1274 96 1274 96 1079.5 48 c 128,-1,32
 885 0 885 0 643 0 c 0,0,1
748 816 m 1024,33,-1
774 -60 m 1024,34,-1
774 -106 m 1024,35,-1
EndSplineSet
Substitution2: "'medi' Medial Forms in Arabic lookup 5 subtable" uni066E.medi
Substitution2: "'init' Initial Forms in Arabic lookup 4 subtable" uni066E.init
Substitution2: "'fina' Terminal Forms in Arabic lookup 3 subtable" uni066E.fina
EndChar

StartChar: uni066F
Encoding: 1647 1647 110
Width: 1325
GlyphClass: 2
Flags: W
AnchorPoint: "Anchor-1" 595 -636 basechar 0 52
AnchorPoint: "Anchor-0" 806 796 basechar 0 50
LayerCount: 2
Fore
SplineSet
1116 -104 m 1,0,1
 1113 23 1113 23 1094 123 c 1,2,-1
 1084 114 l 2,3,4
 962 0 962 0 813 0 c 0,5,6
 696 0 696 0 626.5 72.5 c 128,-1,7
 557 145 557 145 557 264 c 0,8,9
 557 368 557 368 599 470 c 128,-1,10
 641 572 641 572 709 634 c 128,-1,11
 777 696 777 696 846 696 c 0,12,13
 943 696 943 696 1031.5 609 c 128,-1,14
 1120 522 1120 522 1170.5 381.5 c 128,-1,15
 1221 241 1221 241 1221 84 c 0,16,17
 1221 -45 1221 -45 1170 -155 c 128,-1,18
 1119 -265 1119 -265 1022 -350 c 128,-1,19
 925 -435 925 -435 794.5 -485.5 c 128,-1,20
 664 -536 664 -536 545 -536 c 0,21,22
 353 -536 353 -536 246 -435 c 128,-1,23
 139 -334 139 -334 139 -151 c 0,24,25
 139 -92 139 -92 146.5 -39.5 c 128,-1,26
 154 13 154 13 179 114 c 1,27,-1
 254 96 l 1,28,29
 231 6 231 6 231 -50 c 0,30,31
 231 -204 231 -204 313 -285.5 c 128,-1,32
 395 -367 395 -367 550 -367 c 0,33,34
 657 -367 657 -367 770.5 -334 c 128,-1,35
 884 -301 884 -301 975.5 -241.5 c 128,-1,36
 1067 -182 1067 -182 1116 -104 c 1,0,1
814 522 m 0,37,38
 772 522 772 522 730.5 490 c 128,-1,39
 689 458 689 458 662.5 410 c 128,-1,40
 636 362 636 362 636 321 c 0,41,42
 636 247 636 247 695 207 c 128,-1,43
 754 167 754 167 862 167 c 0,44,45
 967 167 967 167 1071 215 c 1,46,47
 1044 306 1044 306 1001.5 378 c 128,-1,48
 959 450 959 450 908.5 486 c 128,-1,49
 858 522 858 522 814 522 c 0,37,38
806 796 m 1024,50,-1
68 -537 m 1024,51,-1
595 -636 m 1024,52,-1
EndSplineSet
Substitution2: "'medi' Medial Forms in Arabic lookup 5 subtable" uni066F.medi
Substitution2: "'init' Initial Forms in Arabic lookup 4 subtable" uni066F.init
Substitution2: "'fina' Terminal Forms in Arabic lookup 3 subtable" uni066F.fina
EndChar

StartChar: uni0670
Encoding: 1648 1648 111
Width: 0
GlyphClass: 4
Flags: W
AnchorPoint: "Anchor-6" 18 1370 basemark 0 14
AnchorPoint: "Anchor-6" 22 838 mark 0 13
AnchorPoint: "Anchor-3" 22 838 mark 0 13
AnchorPoint: "Anchor-0" 22 838 mark 0 13
LayerCount: 2
Fore
SplineSet
45 1340 m 1,0,1
 61 1262 61 1262 68.5 1197 c 128,-1,2
 76 1132 76 1132 76 1033 c 0,3,4
 76 932 76 932 23 858 c 1,5,-1
 10 862 l 1,6,7
 10 1040 10 1040 -24 1179 c 0,8,9
 -30 1205 -30 1205 -30 1225 c 0,10,11
 -30 1265 -30 1265 -9.5 1296 c 128,-1,12
 11 1327 11 1327 45 1340 c 1,0,1
22 838 m 1024,13,-1
18 1370 m 1024,14,-1
EndSplineSet
EndChar

StartChar: uni06A9
Encoding: 1705 1705 148
AltUni2: 00fb8e.ffffffff.0 00fb8e.ffffffff.0
Width: 1478
GlyphClass: 2
Flags: W
AnchorPoint: "Anchor-1" 921 -106 basechar 0 46
AnchorPoint: "Anchor-0" 728 1178 basechar 0 43
LayerCount: 2
Fore
SplineSet
648 156 m 0,0,1
 787 156 787 156 890.5 170 c 128,-1,2
 994 184 994 184 1070.5 206.5 c 128,-1,3
 1147 229 1147 229 1234 277 c 1,4,5
 1196 391 1196 391 1093 489.5 c 128,-1,6
 990 588 990 588 805 678 c 1,7,8
 777 671 777 671 754 671 c 0,9,10
 699 671 699 671 663.5 709.5 c 128,-1,11
 628 748 628 748 628 804 c 0,12,13
 628 849 628 849 649.5 921.5 c 128,-1,14
 671 994 671 994 683 1000 c 0,15,16
 958 1142 958 1142 1095 1205 c 128,-1,17
 1232 1268 1232 1268 1410 1340 c 1,18,19
 1441 1313 1441 1313 1441 1262 c 2,20,-1
 1440 1244 l 1,21,22
 1430 1173 1430 1173 1354 1142 c 0,23,24
 935 968 935 968 703 860 c 1,25,26
 863 821 863 821 1006 732 c 128,-1,27
 1149 643 1149 643 1232.5 536 c 128,-1,28
 1316 429 1316 429 1316 336 c 0,29,30
 1316 172 1316 172 1145.5 86 c 128,-1,31
 975 0 975 0 630 0 c 0,32,33
 374 0 374 0 256.5 73.5 c 128,-1,34
 139 147 139 147 139 288 c 0,35,36
 139 356 139 356 166 419 c 1,37,-1
 239 419 l 1,38,39
 231 383 231 383 231 336 c 0,40,41
 231 240 231 240 326 198 c 128,-1,42
 421 156 421 156 648 156 c 0,0,1
728 1178 m 1024,43,-1
921 -60 m 1024,44,-1
359 832 m 1024,45,-1
921 -106 m 1024,46,-1
EndSplineSet
Substitution2: "'medi' Medial Forms in Arabic lookup 5 subtable" uni06A9.medi
Substitution2: "'init' Initial Forms in Arabic lookup 4 subtable" uni06A9.init
Substitution2: "'fina' Terminal Forms in Arabic lookup 3 subtable" uni06A9.fina
EndChar

StartChar: uni06AA
Encoding: 1706 1706 149
Width: 2078
GlyphClass: 2
Flags: W
AnchorPoint: "Anchor-1" 1586 -106 basechar 0 52
AnchorPoint: "Anchor-0" 793 1142 basechar 0 50
LayerCount: 2
Fore
SplineSet
586 0 m 2,0,-1
 503 0 l 2,1,2
 262 0 262 0 173.5 19.5 c 128,-1,3
 85 39 85 39 52 77.5 c 128,-1,4
 19 116 19 116 18 170 c 1,5,-1
 21 205 l 1,6,7
 253 156 253 156 555 156 c 0,8,9
 938 156 938 156 1301 172.5 c 128,-1,10
 1664 189 1664 189 1897 218 c 1,11,12
 1866 307 1866 307 1796.5 346.5 c 128,-1,13
 1727 386 1727 386 1610 386 c 0,14,15
 1480 386 1480 386 1195 370 c 0,16,17
 909 353 909 353 759 353 c 0,18,19
 622 353 622 353 561 396.5 c 128,-1,20
 500 440 500 440 500 542 c 0,21,22
 500 621 500 621 539 696 c 128,-1,23
 578 771 578 771 658.5 842.5 c 128,-1,24
 739 914 739 914 851.5 973 c 128,-1,25
 964 1032 964 1032 1078 1062 c 1,26,27
 1083 1036 1083 1036 1083 1012 c 0,28,29
 1083 900 1083 900 990 863 c 0,30,31
 904 827 904 827 794 764.5 c 128,-1,32
 684 702 684 702 628.5 655 c 128,-1,33
 573 608 573 608 573 580 c 0,34,35
 573 553 573 553 648 532.5 c 128,-1,36
 723 512 723 512 796 512 c 0,37,38
 913 512 913 512 1197 527 c 0,39,40
 1480 541 1480 541 1605 541 c 0,41,42
 1707 541 1707 541 1792.5 506.5 c 128,-1,43
 1878 472 1878 472 1926 408 c 128,-1,44
 1974 344 1974 344 1974 256 c 0,45,46
 1974 187 1974 187 1930 90 c 1,47,48
 1659 49 1659 49 1288 24.5 c 128,-1,49
 917 0 917 0 586 0 c 2,0,-1
793 1142 m 1024,50,-1
1586 -60 m 1024,51,-1
1586 -106 m 1024,52,-1
EndSplineSet
Substitution2: "'medi' Medial Forms in Arabic lookup 5 subtable" uni06AA.medi
Substitution2: "'init' Initial Forms in Arabic lookup 4 subtable" uni06AA.init
Substitution2: "'fina' Terminal Forms in Arabic lookup 3 subtable" uni06AA.fina
EndChar

StartChar: uni06BA
Encoding: 1722 1722 161
AltUni2: 00fb9e.ffffffff.0 00fb9e.ffffffff.0
Width: 1201
GlyphClass: 2
Flags: W
AnchorPoint: "Anchor-1" 540 -636 basechar 0 30
AnchorPoint: "Anchor-0" 538 463 basechar 0 28
LayerCount: 2
Fore
SplineSet
510 -536 m 0,0,1
 335 -536 335 -536 237 -435.5 c 128,-1,2
 139 -335 139 -335 139 -151 c 0,3,4
 139 -92 139 -92 146.5 -39.5 c 128,-1,5
 154 13 154 13 179 114 c 1,6,-1
 254 96 l 1,7,8
 231 6 231 6 231 -50 c 0,9,10
 231 -200 231 -200 306 -283.5 c 128,-1,11
 381 -367 381 -367 515 -367 c 0,12,13
 667 -367 667 -367 818 -293 c 128,-1,14
 969 -219 969 -219 1020 -111 c 1,15,16
 886 182 886 182 886 280 c 0,17,18
 886 333 886 333 916 376 c 128,-1,19
 946 419 946 419 1020 463 c 1,20,21
 1029 391 1029 391 1067 198 c 0,22,23
 1096 51 1096 51 1096 -34 c 0,24,25
 1096 -160 1096 -160 1016 -275 c 128,-1,26
 936 -390 936 -390 797 -463 c 128,-1,27
 658 -536 658 -536 510 -536 c 0,0,1
538 463 m 1024,28,-1
68 -537 m 1024,29,-1
540 -636 m 1024,30,-1
EndSplineSet
Substitution2: "'medi' Medial Forms in Arabic lookup 5 subtable" uni0649.medi
Substitution2: "'init' Initial Forms in Arabic lookup 4 subtable" uni0649.init
Substitution2: "'fina' Terminal Forms in Arabic lookup 3 subtable" uni06BA.fina
EndChar

StartChar: uni06BE
Encoding: 1726 1726 164
AltUni2: 00fbaa.ffffffff.0 00fbaa.ffffffff.0
Width: 1292
GlyphClass: 2
Flags: W
AnchorPoint: "Anchor-1" 656 -137 basechar 0 44
AnchorPoint: "Anchor-0" 548 987 basechar 0 43
LayerCount: 2
Fore
SplineSet
310 0 m 0,0,1
 219 0 219 0 35 102 c 1,2,-1
 54 173 l 1,3,4
 139 156 139 156 280 156 c 0,5,6
 386 156 386 156 487 184 c 1,7,8
 360 292 360 292 360 424 c 0,9,10
 360 518 360 518 412 616.5 c 128,-1,11
 464 715 464 715 541 753 c 1,12,-1
 588 887 l 1,13,14
 759 839 759 839 896.5 739.5 c 128,-1,15
 1034 640 1034 640 1110.5 508 c 128,-1,16
 1187 376 1187 376 1187 238 c 0,17,18
 1187 139 1187 139 1083 -37 c 1,19,20
 817 -6 817 -6 628 91 c 1,21,22
 478 0 478 0 310 0 c 0,0,1
743 473 m 0,23,24
 743 532 743 532 705.5 582.5 c 128,-1,25
 668 633 668 633 623 633 c 0,26,27
 591 633 591 633 552 606.5 c 128,-1,28
 513 580 513 580 481 532.5 c 128,-1,29
 449 485 449 485 433 426 c 1,30,31
 522 326 522 326 639 255 c 1,32,33
 743 339 743 339 743 473 c 0,23,24
1078 113 m 1,34,35
 1078 247 1078 247 1006.5 389.5 c 128,-1,36
 935 532 935 532 819 631 c 1,37,38
 864 553 864 553 864 467 c 0,39,40
 864 313 864 313 758 195 c 1,41,42
 911 133 911 133 1078 113 c 1,34,35
548 987 m 1024,43,-1
656 -137 m 1024,44,-1
EndSplineSet
Substitution2: "'medi' Medial Forms in Arabic lookup 5 subtable" uni06BE.medi
Substitution2: "'init' Initial Forms in Arabic lookup 4 subtable" uni06BE.init
Substitution2: "'fina' Terminal Forms in Arabic lookup 3 subtable" uni06BE.fina
EndChar

StartChar: uni06CD
Encoding: 1741 1741 170
Width: 1543
GlyphClass: 2
Flags: W
AnchorPoint: "Anchor-1" 787 -636 basechar 0 56
AnchorPoint: "Anchor-0" 757 643 basechar 0 55
LayerCount: 2
Fore
SplineSet
416 -151 m 0,0,1
 416 -53 416 -53 430 22 c 1,2,-1
 382 -2 l 1,3,-1
 158 -125 l 1,4,5
 139 -95 139 -95 139 -62 c 2,6,-1
 141 -42 l 2,7,8
 147 -13 147 -13 164.5 7.5 c 128,-1,9
 182 28 182 28 284.5 84.5 c 128,-1,10
 387 141 387 141 482 189 c 1,11,-1
 548 155 l 1,12,13
 508 -5 508 -5 508 -50 c 0,14,15
 508 -200 508 -200 583 -283.5 c 128,-1,16
 658 -367 658 -367 792 -367 c 0,17,18
 901 -367 901 -367 1036.5 -327.5 c 128,-1,19
 1172 -288 1172 -288 1268.5 -227 c 128,-1,20
 1365 -166 1365 -166 1398 -98 c 1,21,22
 1346 -89 1346 -89 1290 -84 c 0,23,24
 1136 -72 1136 -72 1059 -46.5 c 128,-1,25
 982 -21 982 -21 942.5 37 c 128,-1,26
 903 95 903 95 903 186 c 0,27,28
 903 280 903 280 969 400.5 c 128,-1,29
 1035 521 1035 521 1135.5 608.5 c 128,-1,30
 1236 696 1236 696 1315 696 c 0,31,32
 1384 696 1384 696 1419 648.5 c 128,-1,33
 1454 601 1454 601 1473 518 c 1,34,-1
 1400 497 l 1,35,36
 1385 517 1385 517 1372 523 c 128,-1,37
 1359 529 1359 529 1334 529 c 0,38,39
 1280 529 1280 529 1199 472.5 c 128,-1,40
 1118 416 1118 416 1056 335 c 128,-1,41
 994 254 994 254 977 178 c 1,42,43
 1036 124 1036 124 1202 101 c 0,44,45
 1359 79 1359 79 1415 38 c 128,-1,46
 1471 -3 1471 -3 1471 -96 c 0,47,48
 1471 -190 1471 -190 1358 -296 c 128,-1,49
 1245 -402 1245 -402 1084 -469 c 128,-1,50
 923 -536 923 -536 787 -536 c 0,51,52
 612 -536 612 -536 514 -435.5 c 128,-1,53
 416 -335 416 -335 416 -151 c 0,0,1
288 -537 m 1024,54,-1
757 643 m 1024,55,-1
787 -636 m 1024,56,-1
EndSplineSet
Substitution2: "'fina' Terminal Forms in Arabic lookup 3 subtable" uni06CD.fina
EndChar

StartChar: uni06D4
Encoding: 1748 1748 174
Width: 498
GlyphClass: 1
Flags: W
LayerCount: 2
Fore
SplineSet
406 156 m 1,0,-1
 414 153 l 1,1,-1
 415 150 l 1,2,-1
 415 7 l 2,3,4
 415 -1 415 -1 406 -1 c 2,5,-1
 91 -1 l 2,6,7
 83 -1 83 -1 83 7 c 2,8,-1
 83 150 l 1,9,-1
 84 153 l 1,10,-1
 91 156 l 1,11,-1
 406 156 l 1,0,-1
EndSplineSet
EndChar

StartChar: uni06D6
Encoding: 1750 1750 176
Width: 0
GlyphClass: 4
Flags: W
AnchorPoint: "Anchor-6" 102 1707 basemark 0 72
AnchorPoint: "Anchor-6" 19 981 mark 0 71
AnchorPoint: "Anchor-3" 19 981 mark 0 71
AnchorPoint: "Anchor-0" 19 981 mark 0 71
LayerCount: 2
Fore
SplineSet
-149 1187 m 1,0,-1
 -196 1177 l 2,1,2
 -257 1165 -257 1165 -343 1138.5 c 128,-1,3
 -429 1112 -429 1112 -474 1084 c 1,4,5
 -442 1074 -442 1074 -377.5 1067.5 c 128,-1,6
 -313 1061 -313 1061 -247 1061 c 0,7,8
 -92 1061 -92 1061 -5 1079 c 1,9,10
 6 1066 6 1066 6 1053 c 0,11,12
 6 1036 6 1036 -9 1025 c 128,-1,13
 -24 1014 -24 1014 -66.5 1009 c 128,-1,14
 -109 1004 -109 1004 -170 1002.5 c 128,-1,15
 -231 1001 -231 1001 -252 1001 c 0,16,17
 -339 1001 -339 1001 -424.5 1017 c 128,-1,18
 -510 1033 -510 1033 -510 1048 c 0,19,20
 -510 1054 -510 1054 -503 1078.5 c 128,-1,21
 -496 1103 -496 1103 -490 1113 c 0,22,23
 -439 1157 -439 1157 -370.5 1185.5 c 128,-1,24
 -302 1214 -302 1214 -172 1237 c 1,25,26
 -181 1325 -181 1325 -203 1634 c 1,27,28
 -176 1659 -176 1659 -151 1677 c 1,29,30
 -147 1597 -147 1597 -145 1459 c 2,31,-1
 -141 1237 l 1,32,33
 -101 1218 -101 1218 -61 1218 c 0,34,35
 -25 1218 -25 1218 -6 1230.5 c 128,-1,36
 13 1243 13 1243 24 1262 c 2,37,-1
 47 1300 l 2,38,39
 56 1314 56 1314 72 1314 c 0,40,41
 83 1314 83 1314 90 1306 c 1,42,-1
 67 1254 l 1,43,-1
 106 1237 l 1,44,45
 252 1434 252 1434 357 1434 c 0,46,47
 394 1434 394 1434 443.5 1394 c 128,-1,48
 493 1354 493 1354 493 1323 c 0,49,50
 493 1270 493 1270 459.5 1234.5 c 128,-1,51
 426 1199 426 1199 369.5 1179 c 128,-1,52
 313 1159 313 1159 245 1159 c 0,53,54
 183 1159 183 1159 126 1171.5 c 128,-1,55
 69 1184 69 1184 37 1203 c 1,56,-1
 25 1187 l 1,57,58
 -3 1159 -3 1159 -61 1159 c 256,59,60
 -119 1159 -119 1159 -149 1187 c 1,0,-1
339 1370 m 0,61,62
 302 1370 302 1370 250.5 1334 c 128,-1,63
 199 1298 199 1298 142 1229 c 1,64,65
 195 1218 195 1218 253 1218 c 0,66,67
 355 1218 355 1218 458 1284 c 1,68,69
 434 1328 434 1328 400 1349 c 128,-1,70
 366 1370 366 1370 339 1370 c 0,61,62
19 981 m 1024,71,-1
102 1707 m 1024,72,-1
EndSplineSet
EndChar

StartChar: uni06D7
Encoding: 1751 1751 177
Width: 0
GlyphClass: 4
Flags: W
AnchorPoint: "Anchor-6" -192 1698 basemark 0 76
AnchorPoint: "Anchor-6" 0 981 mark 0 75
AnchorPoint: "Anchor-3" 0 981 mark 0 75
AnchorPoint: "Anchor-0" 0 981 mark 0 75
LayerCount: 2
Fore
SplineSet
90 1218 m 0,0,1
 246 1218 246 1218 336 1259 c 1,2,-1
 325 1319 l 1,3,4
 305 1301 305 1301 274.5 1289 c 128,-1,5
 244 1277 244 1277 216 1277 c 0,6,7
 181 1277 181 1277 160 1303 c 128,-1,8
 139 1329 139 1329 139 1367 c 0,9,10
 139 1428 139 1428 168 1472 c 128,-1,11
 197 1516 197 1516 236 1516 c 0,12,13
 298 1516 298 1516 335.5 1449 c 128,-1,14
 373 1382 373 1382 373 1293 c 0,15,16
 373 1271 373 1271 345 1215 c 1,17,18
 291 1180 291 1180 229.5 1169.5 c 128,-1,19
 168 1159 168 1159 90 1159 c 0,20,21
 33 1159 33 1159 1 1187 c 1,22,23
 -121 1161 -121 1161 -158 1149 c 0,24,25
 -275 1114 -275 1114 -323 1084 c 1,26,27
 -291 1074 -291 1074 -226.5 1067.5 c 128,-1,28
 -162 1061 -162 1061 -97 1061 c 0,29,30
 58 1061 58 1061 145 1079 c 1,31,32
 157 1065 157 1065 157 1052 c 0,33,34
 157 1017 157 1017 87 1009 c 128,-1,35
 17 1001 17 1001 -102 1001 c 0,36,37
 -190 1001 -190 1001 -274.5 1017 c 128,-1,38
 -359 1033 -359 1033 -359 1048 c 0,39,40
 -359 1058 -359 1058 -352 1082 c 128,-1,41
 -345 1106 -345 1106 -339 1113 c 0,42,43
 -290 1155 -290 1155 -223 1183.5 c 128,-1,44
 -156 1212 -156 1212 -22 1237 c 1,45,46
 -32 1331 -32 1331 -38.5 1432.5 c 128,-1,47
 -45 1534 -45 1534 -53 1634 c 1,48,49
 -30 1656 -30 1656 0 1677 c 1,50,-1
 9 1237 l 1,51,52
 49 1218 49 1218 90 1218 c 0,0,1
225 1450 m 0,53,54
 201 1450 201 1450 185 1429.5 c 128,-1,55
 169 1409 169 1409 169 1381 c 0,56,57
 169 1336 169 1336 234 1336 c 0,58,59
 271 1336 271 1336 315 1355 c 1,60,61
 303 1397 303 1397 279 1423.5 c 128,-1,62
 255 1450 255 1450 225 1450 c 0,53,54
203 1606 m 1,63,64
 194 1590 194 1590 157 1553 c 1,65,66
 122 1580 122 1580 106 1601 c 1,67,-1
 156 1652 l 1,68,-1
 203 1606 l 1,63,64
319 1617 m 1,69,70
 305 1594 305 1594 273 1565 c 1,71,72
 247 1583 247 1583 222 1611 c 1,73,-1
 272 1664 l 1,74,-1
 319 1617 l 1,69,70
0 981 m 1024,75,-1
-192 1698 m 1024,76,-1
EndSplineSet
EndChar

StartChar: uni06D8
Encoding: 1752 1752 178
Width: 0
GlyphClass: 4
Flags: W
AnchorPoint: "Anchor-6" -19 1231 basemark 0 1
AnchorPoint: "Anchor-6" -2 900 mark 0 0
AnchorPoint: "Anchor-3" -2 900 mark 0 0
AnchorPoint: "Anchor-0" -2 900 mark 0 0
LayerCount: 2
Fore
SplineSet
-2 900 m 1024,0,-1
-19 1231 m 1024,1,-1
-73 1044 m 0,2,3
 -62 1062 -62 1062 -50.5 1085.5 c 128,-1,4
 -39 1109 -39 1109 -25 1130.5 c 128,-1,5
 -11 1152 -11 1152 7 1166.5 c 128,-1,6
 25 1181 25 1181 49 1181 c 0,7,8
 67 1181 67 1181 84.5 1164.5 c 128,-1,9
 102 1148 102 1148 115 1121.5 c 128,-1,10
 128 1095 128 1095 136 1063 c 128,-1,11
 144 1031 144 1031 144 1000 c 256,12,13
 144 969 144 969 132.5 950.5 c 128,-1,14
 121 932 121 932 105 920 c 1,15,16
 62 920 62 920 14.5 932 c 128,-1,17
 -33 944 -33 944 -68 964 c 1,18,19
 -88 934 -88 934 -114.5 907 c 128,-1,20
 -141 880 -141 880 -173 859 c 128,-1,21
 -205 838 -205 838 -243.5 826 c 128,-1,22
 -282 814 -282 814 -327 814 c 0,23,24
 -359 814 -359 814 -397 822 c 1,25,-1
 -397 841 l 1,26,27
 -339 841 -339 841 -291.5 855 c 128,-1,28
 -244 869 -244 869 -205 895.5 c 128,-1,29
 -166 922 -166 922 -133.5 959.5 c 128,-1,30
 -101 997 -101 997 -73 1044 c 0,2,3
89 978 m 1,31,32
 88 1001 88 1001 83 1025 c 128,-1,33
 78 1049 78 1049 70.5 1068.5 c 128,-1,34
 63 1088 63 1088 54 1100 c 128,-1,35
 45 1112 45 1112 37 1112 c 0,36,37
 19 1112 19 1112 2 1088 c 128,-1,38
 -15 1064 -15 1064 -38 1017 c 1,39,40
 -6 999 -6 999 23 990 c 128,-1,41
 52 981 52 981 89 978 c 1,31,32
EndSplineSet
EndChar

StartChar: uni06D9
Encoding: 1753 1753 179
Width: 0
GlyphClass: 4
Flags: W
AnchorPoint: "Anchor-6" -78 1524 basemark 0 47
AnchorPoint: "Anchor-6" 0 933 mark 0 46
AnchorPoint: "Anchor-3" 0 933 mark 0 46
AnchorPoint: "Anchor-0" 0 933 mark 0 46
LayerCount: 2
Fore
SplineSet
-132 953 m 1,0,-1
 -134 962 l 2,1,2
 -134 975 -134 975 -130 993.5 c 128,-1,3
 -126 1012 -126 1012 -122 1012 c 2,4,-1
 -104 1012 l 1,5,6
 -16 1082 -16 1082 18 1128 c 1,7,8
 -65 1219 -65 1219 -145 1264 c 1,9,-1
 -173 1263 l 1,10,11
 -209 1299 -209 1299 -210 1327 c 0,12,13
 -210 1360 -210 1360 -184 1372 c 1,14,15
 -123 1328 -123 1328 -58.5 1268.5 c 128,-1,16
 6 1209 6 1209 40 1166 c 1,17,-1
 41 1169 l 2,18,19
 55 1199 55 1199 55 1232 c 0,20,21
 55 1268 55 1268 38 1375 c 2,22,-1
 29 1434 l 1,23,24
 29 1473 29 1473 82 1484 c 1,25,26
 88 1461 88 1461 109 1392 c 1,27,-1
 89 1375 l 1,28,-1
 94 1248 l 2,29,30
 94 1186 94 1186 64 1132 c 1,31,32
 122 1035 122 1035 122 1018 c 0,33,34
 122 1007 122 1007 113 988 c 128,-1,35
 104 969 104 969 98 966 c 0,36,37
 30 953 30 953 -91 953 c 2,38,-1
 -132 953 l 1,0,-1
91 1027 m 1,39,40
 75 1058 75 1058 43 1098 c 1,41,42
 7 1052 7 1052 -44 1013 c 1,43,-1
 -21 1015 l 2,44,45
 37 1018 37 1018 91 1027 c 1,39,40
0 933 m 1024,46,-1
-78 1524 m 1024,47,-1
EndSplineSet
EndChar

StartChar: uni06DA
Encoding: 1754 1754 180
Width: 0
GlyphClass: 4
Flags: W
AnchorPoint: "Anchor-6" -15 1370 basemark 0 45
AnchorPoint: "Anchor-6" 0 769 mark 0 44
AnchorPoint: "Anchor-3" 0 769 mark 0 44
AnchorPoint: "Anchor-0" 0 769 mark 0 44
LayerCount: 2
Fore
SplineSet
-125 1256 m 0,0,1
 -156 1256 -156 1256 -173.5 1246.5 c 128,-1,2
 -191 1237 -191 1237 -210 1224 c 1,3,4
 -221 1246 -221 1246 -221 1256 c 0,5,6
 -221 1285 -221 1285 -194.5 1302.5 c 128,-1,7
 -168 1320 -168 1320 -128 1320 c 0,8,9
 -86 1320 -86 1320 2 1293 c 0,10,11
 89 1266 89 1266 136 1266 c 2,12,-1
 160 1266 l 1,13,-1
 187 1268 l 1,14,-1
 166 1208 l 1,15,-1
 128 1205 l 2,16,17
 59 1202 59 1202 -15 1169.5 c 128,-1,18
 -89 1137 -89 1137 -129 1089 c 128,-1,19
 -169 1041 -169 1041 -169 985 c 0,20,21
 -169 925 -169 925 -120 889 c 128,-1,22
 -71 853 -71 853 6 853 c 0,23,24
 99 853 99 853 195 874 c 1,25,-1
 205 848 l 1,26,27
 92 789 92 789 5 789 c 0,28,29
 -89 789 -89 789 -142 840 c 128,-1,30
 -195 891 -195 891 -195 985 c 0,31,32
 -195 1065 -195 1065 -144.5 1131.5 c 128,-1,33
 -94 1198 -94 1198 -17 1227 c 1,34,-1
 -79 1248 l 2,35,36
 -104 1256 -104 1256 -125 1256 c 0,0,1
53 985 m 1,37,38
 32 957 32 957 3 928 c 1,39,40
 -32 955 -32 955 -52 979 c 1,41,-1
 2 1035 l 1,42,43
 32 1002 32 1002 53 985 c 1,37,38
0 769 m 1024,44,-1
-15 1370 m 1024,45,-1
EndSplineSet
EndChar

StartChar: uni06DB
Encoding: 1755 1755 181
Width: 0
GlyphClass: 4
Flags: W
AnchorPoint: "Anchor-6" -3 955 basemark 0 23
AnchorPoint: "Anchor-6" 0 561 mark 0 22
AnchorPoint: "Anchor-3" 0 561 mark 0 22
AnchorPoint: "Anchor-0" 0 561 mark 0 22
LayerCount: 2
Fore
SplineSet
76 824 m 1,0,1
 14 758 14 758 0 749 c 1,2,3
 -45 775 -45 775 -86 824 c 1,4,5
 -38 866 -38 866 -5 905 c 1,6,7
 24 868 24 868 76 824 c 1,0,1
-24 673 m 1,8,9
 -61 620 -61 620 -104 581 c 1,10,11
 -156 620 -156 620 -194 663 c 1,12,13
 -179 676 -179 676 -107 753 c 1,14,-1
 -24 673 l 1,8,9
191 691 m 1,15,16
 149 635 149 635 111 599 c 1,17,18
 47 652 47 652 20 683 c 1,19,-1
 67 730 l 1,20,-1
 108 773 l 1,21,-1
 191 691 l 1,15,16
0 561 m 1024,22,-1
-3 955 m 1024,23,-1
EndSplineSet
EndChar

StartChar: uni06DC
Encoding: 1756 1756 182
Width: 0
GlyphClass: 4
Flags: W
AnchorPoint: "Anchor-6" 11 1325 basemark 0 61
AnchorPoint: "Anchor-6" 153 865 mark 0 60
AnchorPoint: "Anchor-3" 153 865 mark 0 60
AnchorPoint: "Anchor-0" 153 865 mark 0 60
LayerCount: 2
Fore
SplineSet
-189 865 m 0,0,1
 -261 865 -261 865 -294.5 905.5 c 128,-1,2
 -328 946 -328 946 -328 1009 c 0,3,4
 -328 1055 -328 1055 -313 1109 c 1,5,-1
 -285 1102 l 1,6,7
 -294 1068 -294 1068 -294 1048 c 0,8,9
 -294 988 -294 988 -264 958.5 c 128,-1,10
 -234 929 -234 929 -187 929 c 0,11,12
 -128 929 -128 929 -73 956 c 128,-1,13
 -18 983 -18 983 3 1025 c 1,14,15
 -47 1132 -47 1132 -47 1173 c 0,16,17
 -47 1198 -47 1198 -32 1213.5 c 128,-1,18
 -17 1229 -17 1229 3 1242 c 1,19,20
 10 1189 10 1189 20 1147 c 1,21,22
 43 1140 43 1140 69 1140 c 0,23,24
 112 1140 112 1140 136 1148 c 1,25,-1
 145 1170 l 1,26,27
 166 1239 166 1239 177 1257 c 128,-1,28
 188 1275 188 1275 204 1275 c 0,29,30
 215 1275 215 1275 222 1269 c 1,31,32
 210 1243 210 1243 191 1179 c 1,33,-1
 188 1171 l 1,34,35
 229 1153 229 1153 255.5 1147.5 c 128,-1,36
 282 1142 282 1142 324 1142 c 1,37,38
 310 1193 310 1193 295 1227 c 128,-1,39
 280 1261 280 1261 280 1278 c 0,40,41
 280 1313 280 1313 331 1343 c 1,42,43
 339 1298 339 1298 349.5 1254.5 c 128,-1,44
 360 1211 360 1211 360 1176 c 0,45,46
 360 1159 360 1159 350 1128.5 c 128,-1,47
 340 1098 340 1098 331 1081 c 1,48,49
 285 1081 285 1081 248 1087.5 c 128,-1,50
 211 1094 211 1094 167 1113 c 1,51,-1
 161 1102 l 2,52,53
 151 1081 151 1081 59 1081 c 2,54,-1
 36 1082 l 1,55,-1
 32 1082 l 1,56,-1
 33 1053 l 2,57,58
 33 979 33 979 -35.5 922 c 128,-1,59
 -104 865 -104 865 -189 865 c 0,0,1
153 865 m 1024,60,-1
11 1325 m 1024,61,-1
EndSplineSet
EndChar

StartChar: uni06DD
Encoding: 1757 1757 183
Width: 2490
GlyphClass: 2
Flags: W
LayerCount: 2
Fore
SplineSet
2390 527 m 0,0,1
 2390 367 2390 367 2356 225.5 c 128,-1,2
 2322 84 2322 84 2249 -53 c 1,3,4
 2261 -44 2261 -44 2271.5 -40.5 c 128,-1,5
 2282 -37 2282 -37 2290 -37 c 0,6,7
 2302 -37 2302 -37 2312 -42 c 128,-1,8
 2322 -47 2322 -47 2330 -53 c 1,9,10
 2195 -292 2195 -292 1979.5 -448 c 128,-1,11
 1764 -604 1764 -604 1466 -673 c 0,12,13
 1428 -682 1428 -682 1395 -699.5 c 128,-1,14
 1362 -717 1362 -717 1334 -739 c 128,-1,15
 1306 -761 1306 -761 1283.5 -785 c 128,-1,16
 1261 -809 1261 -809 1245 -831 c 1,17,18
 1228 -808 1228 -808 1206.5 -782.5 c 128,-1,19
 1185 -757 1185 -757 1159.5 -734.5 c 128,-1,20
 1134 -712 1134 -712 1104 -695 c 128,-1,21
 1074 -678 1074 -678 1039 -673 c 0,22,23
 884 -645 884 -645 755.5 -589 c 128,-1,24
 627 -533 627 -533 521.5 -453.5 c 128,-1,25
 416 -374 416 -374 332 -273 c 128,-1,26
 248 -172 248 -172 182 -53 c 1,27,28
 189 -46 189 -46 198.5 -41.5 c 128,-1,29
 208 -37 208 -37 219 -37 c 0,30,31
 227 -37 227 -37 237.5 -40.5 c 128,-1,32
 248 -44 248 -44 259 -53 c 1,33,34
 224 15 224 15 195 84.5 c 128,-1,35
 166 154 166 154 145 226 c 128,-1,36
 124 298 124 298 112 372.5 c 128,-1,37
 100 447 100 447 100 527 c 0,38,39
 100 680 100 680 144.5 821.5 c 128,-1,40
 189 963 189 963 259 1097 c 1,41,42
 235 1089 235 1089 219 1089 c 0,43,44
 208 1089 208 1089 199 1092 c 128,-1,45
 190 1095 190 1095 182 1097 c 1,46,47
 247 1216 247 1216 338.5 1320.5 c 128,-1,48
 430 1425 430 1425 540.5 1506.5 c 128,-1,49
 651 1588 651 1588 777.5 1642.5 c 128,-1,50
 904 1697 904 1697 1039 1716 c 0,51,52
 1070 1720 1070 1720 1099 1737 c 128,-1,53
 1128 1754 1128 1754 1154 1779 c 128,-1,54
 1180 1804 1180 1804 1203 1832.5 c 128,-1,55
 1226 1861 1226 1861 1245 1887 c 1,56,57
 1260 1864 1260 1864 1281 1838 c 128,-1,58
 1302 1812 1302 1812 1330 1787.5 c 128,-1,59
 1358 1763 1358 1763 1391.5 1744 c 128,-1,60
 1425 1725 1425 1725 1466 1716 c 0,61,62
 1604 1687 1604 1687 1731.5 1631 c 128,-1,63
 1859 1575 1859 1575 1969.5 1496.5 c 128,-1,64
 2080 1418 2080 1418 2171.5 1317 c 128,-1,65
 2263 1216 2263 1216 2330 1097 c 1,66,67
 2322 1095 2322 1095 2312.5 1092 c 128,-1,68
 2303 1089 2303 1089 2291 1089 c 0,69,70
 2275 1089 2275 1089 2249 1097 c 1,71,72
 2322 963 2322 963 2356 822 c 128,-1,73
 2390 681 2390 681 2390 527 c 0,0,1
1947 1336 m 0,74,75
 1964 1353 1964 1353 1964 1379 c 0,76,77
 1964 1395 1964 1395 1957 1409.5 c 128,-1,78
 1950 1424 1950 1424 1936 1431 c 0,79,80
 1850 1490 1850 1490 1755 1537 c 128,-1,81
 1660 1584 1660 1584 1554 1622 c 1,82,83
 1542 1622 1542 1622 1527.5 1621 c 128,-1,84
 1513 1620 1513 1620 1500.5 1614.5 c 128,-1,85
 1488 1609 1488 1609 1480 1598.5 c 128,-1,86
 1472 1588 1472 1588 1472 1569 c 0,87,88
 1472 1546 1472 1546 1486.5 1525 c 128,-1,89
 1501 1504 1501 1504 1521 1498 c 0,90,91
 1608 1472 1608 1472 1696 1428 c 128,-1,92
 1784 1384 1784 1384 1858 1336 c 1,93,94
 1880 1313 1880 1313 1904 1313 c 0,95,96
 1916 1313 1916 1313 1927 1319 c 128,-1,97
 1938 1325 1938 1325 1947 1336 c 0,74,75
1360 1590 m 0,98,99
 1360 1637 1360 1637 1328 1666.5 c 128,-1,100
 1296 1696 1296 1696 1245 1696 c 0,101,102
 1197 1696 1197 1696 1167.5 1666.5 c 128,-1,103
 1138 1637 1138 1637 1138 1590 c 0,104,105
 1138 1539 1138 1539 1167.5 1508 c 128,-1,106
 1197 1477 1197 1477 1245 1477 c 0,107,108
 1296 1477 1296 1477 1328 1508 c 128,-1,109
 1360 1539 1360 1539 1360 1590 c 0,98,99
1025 1582 m 0,110,111
 1018 1610 1018 1610 994 1619 c 128,-1,112
 970 1628 970 1628 944 1628 c 1,113,114
 838 1591 838 1591 743 1543.5 c 128,-1,115
 648 1496 648 1496 567 1436 c 0,116,117
 552 1428 552 1428 544 1413 c 128,-1,118
 536 1398 536 1398 536 1381 c 0,119,120
 536 1368 536 1368 541.5 1356.5 c 128,-1,121
 547 1345 547 1345 555.5 1336.5 c 128,-1,122
 564 1328 564 1328 574.5 1323 c 128,-1,123
 585 1318 585 1318 596 1318 c 0,124,125
 620 1318 620 1318 644 1342 c 1,126,127
 679 1365 679 1365 720 1388.5 c 128,-1,128
 761 1412 761 1412 805 1433 c 128,-1,129
 849 1454 849 1454 893 1471.5 c 128,-1,130
 937 1489 937 1489 978 1501 c 0,131,132
 1000 1510 1000 1510 1013.5 1527.5 c 128,-1,133
 1027 1545 1027 1545 1027 1567 c 0,134,135
 1027 1572 1027 1572 1025 1582 c 0,110,111
2249 527 m 0,136,137
 2246 729 2246 729 2176 896 c 128,-1,138
 2106 1063 2106 1063 1963 1206 c 1,139,140
 1943 1195 1943 1195 1926 1192 c 128,-1,141
 1909 1189 1909 1189 1900 1189 c 1,142,143
 1857 1232 1857 1232 1806.5 1270.5 c 128,-1,144
 1756 1309 1756 1309 1700.5 1340.5 c 128,-1,145
 1645 1372 1645 1372 1586 1395.5 c 128,-1,146
 1527 1419 1527 1419 1466 1431 c 0,147,148
 1434 1438 1434 1438 1402 1438 c 0,149,150
 1348 1438 1348 1438 1309.5 1422.5 c 128,-1,151
 1271 1407 1271 1407 1245 1382 c 1,152,153
 1225 1405 1225 1405 1191.5 1421.5 c 128,-1,154
 1158 1438 1158 1438 1104 1438 c 0,155,156
 1073 1438 1073 1438 1039 1431 c 0,157,158
 906 1405 906 1405 791.5 1340 c 128,-1,159
 677 1275 677 1275 594 1189 c 1,160,161
 584 1189 584 1189 565 1192 c 128,-1,162
 546 1195 546 1195 528 1206 c 1,163,164
 385 1063 385 1063 313 896 c 128,-1,165
 241 729 241 729 241 527 c 0,166,167
 241 330 241 330 312.5 159 c 128,-1,168
 384 -12 384 -12 528 -142 c 1,169,170
 547 -142 547 -142 565 -138.5 c 128,-1,171
 583 -135 583 -135 594 -130 c 1,172,173
 676 -225 676 -225 783.5 -287 c 128,-1,174
 891 -349 891 -349 1039 -386 c 0,175,176
 1059 -391 1059 -391 1077 -391 c 0,177,178
 1129 -391 1129 -391 1170 -369.5 c 128,-1,179
 1211 -348 1211 -348 1245 -320 c 1,180,181
 1281 -349 1281 -349 1326.5 -371.5 c 128,-1,182
 1372 -394 1372 -394 1421 -394 c 0,183,184
 1442 -394 1442 -394 1466 -386 c 0,185,186
 1538 -362 1538 -362 1599 -337 c 128,-1,187
 1660 -312 1660 -312 1712.5 -282 c 128,-1,188
 1765 -252 1765 -252 1811 -215 c 128,-1,189
 1857 -178 1857 -178 1900 -130 c 1,190,191
 1911 -135 1911 -135 1927 -138.5 c 128,-1,192
 1943 -142 1943 -142 1963 -142 c 1,193,194
 2034 -77 2034 -77 2087.5 0.5 c 128,-1,195
 2141 78 2141 78 2177 163.5 c 128,-1,196
 2213 249 2213 249 2231 341 c 128,-1,197
 2249 433 2249 433 2249 527 c 0,136,137
1947 -286 m 0,198,199
 1926 -262 1926 -262 1903 -262 c 256,200,201
 1880 -262 1880 -262 1856 -286 c 1,202,203
 1819 -309 1819 -309 1777.5 -332.5 c 128,-1,204
 1736 -356 1736 -356 1692.5 -377 c 128,-1,205
 1649 -398 1649 -398 1605.5 -415.5 c 128,-1,206
 1562 -433 1562 -433 1520 -445 c 0,207,208
 1499 -454 1499 -454 1483.5 -468.5 c 128,-1,209
 1468 -483 1468 -483 1468 -505 c 0,210,211
 1468 -525 1468 -525 1476 -537.5 c 128,-1,212
 1484 -550 1484 -550 1496 -558 c 128,-1,213
 1508 -566 1508 -566 1523 -569 c 128,-1,214
 1538 -572 1538 -572 1552 -572 c 1,215,216
 1660 -534 1660 -534 1754 -485.5 c 128,-1,217
 1848 -437 1848 -437 1931 -380 c 0,218,219
 1961 -359 1961 -359 1961 -325 c 0,220,221
 1961 -303 1961 -303 1947 -286 c 0,198,199
1360 -543 m 0,222,223
 1360 -520 1360 -520 1351.5 -500 c 128,-1,224
 1343 -480 1343 -480 1327.5 -465 c 128,-1,225
 1312 -450 1312 -450 1291 -441.5 c 128,-1,226
 1270 -433 1270 -433 1245 -433 c 0,227,228
 1197 -433 1197 -433 1167.5 -463 c 128,-1,229
 1138 -493 1138 -493 1138 -543 c 0,230,231
 1138 -591 1138 -591 1167.5 -621.5 c 128,-1,232
 1197 -652 1197 -652 1245 -652 c 0,233,234
 1296 -652 1296 -652 1328 -621.5 c 128,-1,235
 1360 -591 1360 -591 1360 -543 c 0,222,223
1025 -527 m 0,236,237
 1027 -517 1027 -517 1027 -513 c 0,238,239
 1027 -492 1027 -492 1012 -476.5 c 128,-1,240
 997 -461 997 -461 976 -453 c 0,241,242
 934 -440 934 -440 890 -421.5 c 128,-1,243
 846 -403 846 -403 803 -381.5 c 128,-1,244
 760 -360 760 -360 719 -336.5 c 128,-1,245
 678 -313 678 -313 641 -289 c 1,246,247
 618 -267 618 -267 594 -267 c 0,248,249
 569 -267 569 -267 551 -288 c 128,-1,250
 533 -309 533 -309 533 -335 c 0,251,252
 533 -351 533 -351 540 -364.5 c 128,-1,253
 547 -378 547 -378 561 -386 c 0,254,255
 646 -446 646 -446 741 -492.5 c 128,-1,256
 836 -539 836 -539 943 -575 c 1,257,258
 969 -575 969 -575 993 -565.5 c 128,-1,259
 1017 -556 1017 -556 1025 -527 c 0,236,237
1245 -66 m 1024,260,-1
1805 -66 m 1024,261,-1
685 -66 m 1024,262,-1
1525 -66 m 1024,263,-1
965 -66 m 1024,264,-1
EndSplineSet
Substitution2: "Single Substitution lookup 16 subtable" uni06DD.alt
EndChar

StartChar: uni06DE
Encoding: 1758 1758 184
Width: 1887
GlyphClass: 1
Flags: W
LayerCount: 2
Fore
SplineSet
1845 514 m 1,0,-1
 1583 249 l 1,1,-1
 1583 -123 l 1,2,-1
 1208 -123 l 1,3,-1
 943 -387 l 1,4,-1
 681 -123 l 1,5,-1
 306 -123 l 1,6,-1
 306 249 l 1,7,-1
 42 514 l 1,8,-1
 306 779 l 1,9,-1
 306 1151 l 1,10,-1
 681 1151 l 1,11,-1
 943 1415 l 1,12,-1
 1208 1151 l 1,13,-1
 1583 1151 l 1,14,-1
 1583 779 l 1,15,-1
 1845 514 l 1,0,-1
371 187 m 1,16,-1
 371 -58 l 1,17,-1
 616 -58 l 1,18,-1
 371 187 l 1,16,-1
616 1088 m 1,19,-1
 371 1088 l 1,20,-1
 371 843 l 1,21,-1
 616 1088 l 1,19,-1
1518 843 m 1,22,-1
 1518 1088 l 1,23,-1
 1271 1088 l 1,24,-1
 1518 843 l 1,22,-1
1518 -58 m 1,25,-1
 1518 187 l 1,26,-1
 1271 -58 l 1,27,-1
 1518 -58 l 1,25,-1
769 -123 m 1,28,-1
 943 -297 l 1,29,-1
 1118 -123 l 1,30,-1
 769 -123 l 1,28,-1
306 688 m 1,31,-1
 133 514 l 1,32,-1
 306 340 l 1,33,-1
 306 688 l 1,31,-1
1118 1151 m 1,34,-1
 943 1327 l 1,35,-1
 769 1151 l 1,36,-1
 1118 1151 l 1,34,-1
1518 752 m 1,37,-1
 1182 1088 l 1,38,-1
 706 1088 l 1,39,-1
 371 752 l 1,40,-1
 371 276 l 1,41,-1
 706 -58 l 1,42,-1
 1182 -58 l 1,43,-1
 1518 276 l 1,44,-1
 1518 752 l 1,37,-1
1754 514 m 1,45,-1
 1583 688 l 1,46,-1
 1583 340 l 1,47,-1
 1754 514 l 1,45,-1
1128 514 m 256,48,49
 1128 437 1128 437 1074 383 c 128,-1,50
 1020 329 1020 329 943 329 c 0,51,52
 869 329 869 329 814 383 c 128,-1,53
 759 437 759 437 759 514 c 256,54,55
 759 591 759 591 814 645 c 128,-1,56
 869 699 869 699 943 699 c 0,57,58
 1020 699 1020 699 1074 645 c 128,-1,59
 1128 591 1128 591 1128 514 c 256,48,49
1065 514 m 256,60,61
 1065 565 1065 565 1029.5 600.5 c 128,-1,62
 994 636 994 636 943 636 c 0,63,64
 893 636 893 636 858.5 600.5 c 128,-1,65
 824 565 824 565 824 514 c 256,66,67
 824 463 824 463 858.5 427.5 c 128,-1,68
 893 392 893 392 943 392 c 0,69,70
 994 392 994 392 1029.5 427.5 c 128,-1,71
 1065 463 1065 463 1065 514 c 256,60,61
EndSplineSet
EndChar

StartChar: uni06DF
Encoding: 1759 1759 185
Width: 0
GlyphClass: 4
Flags: W
AnchorPoint: "Anchor-6" 0 1192 basemark 0 1
AnchorPoint: "Anchor-6" 0 906 mark 0 0
AnchorPoint: "Anchor-3" 0 906 mark 0 0
AnchorPoint: "Anchor-0" 0 906 mark 0 0
LayerCount: 2
Fore
SplineSet
0 906 m 1024,0,-1
0 1192 m 1024,1,-1
0 926 m 0,2,3
 -46 926 -46 926 -78.5 954 c 128,-1,4
 -111 982 -111 982 -111 1044 c 256,5,6
 -111 1106 -111 1106 -78.5 1134 c 128,-1,7
 -46 1162 -46 1162 0 1162 c 0,8,9
 49 1162 49 1162 80 1131.5 c 128,-1,10
 111 1101 111 1101 111 1044 c 256,11,12
 111 987 111 987 80 956.5 c 128,-1,13
 49 926 49 926 0 926 c 0,2,3
0 979 m 0,14,15
 24 979 24 979 42.5 994 c 128,-1,16
 61 1009 61 1009 61 1044 c 256,17,18
 61 1079 61 1079 42.5 1094 c 128,-1,19
 24 1109 24 1109 0 1109 c 0,20,21
 -61 1109 -61 1109 -61 1044 c 256,22,23
 -61 979 -61 979 0 979 c 0,14,15
EndSplineSet
EndChar

StartChar: uni06E0
Encoding: 1760 1760 186
Width: 0
GlyphClass: 4
Flags: W
AnchorPoint: "Anchor-6" 0 1192 basemark 0 21
AnchorPoint: "Anchor-6" 0 826 mark 0 0
AnchorPoint: "Anchor-3" 0 826 mark 0 0
AnchorPoint: "Anchor-0" 0 826 mark 0 0
LayerCount: 2
Fore
SplineSet
0 826 m 1024,0,-1
0 846 m 256,1,2
 -111 846 -111 846 -111 1004 c 256,3,4
 -111 1162 -111 1162 0 1162 c 256,5,6
 111 1162 111 1162 111 1004 c 256,7,8
 111 846 111 846 0 846 c 256,1,2
0 899 m 0,9,10
 32 899 32 899 46.5 923.5 c 128,-1,11
 61 948 61 948 61 1004 c 256,12,13
 61 1060 61 1060 46.5 1084.5 c 128,-1,14
 32 1109 32 1109 0 1109 c 0,15,16
 -33 1109 -33 1109 -47 1084.5 c 128,-1,17
 -61 1060 -61 1060 -61 1004 c 256,18,19
 -61 948 -61 948 -47 923.5 c 128,-1,20
 -33 899 -33 899 0 899 c 0,9,10
0 1192 m 1024,21,-1
EndSplineSet
EndChar

StartChar: uni06E1
Encoding: 1761 1761 187
Width: 0
GlyphClass: 4
Flags: W
AnchorPoint: "Anchor-6" 0 1238 basemark 0 32
AnchorPoint: "Anchor-6" 0 905 mark 0 31
AnchorPoint: "Anchor-3" 0 905 mark 0 31
AnchorPoint: "Anchor-0" 0 905 mark 0 31
LayerCount: 2
Fore
SplineSet
-166 963 m 1,0,1
 -114 967 -114 967 -73.5 976 c 128,-1,2
 -33 985 -33 985 -2 1001.5 c 128,-1,3
 29 1018 29 1018 52.5 1044 c 128,-1,4
 76 1070 76 1070 96 1108 c 1,5,6
 79 1112 79 1112 66 1114 c 128,-1,7
 53 1116 53 1116 39.5 1117 c 128,-1,8
 26 1118 26 1118 11 1118.5 c 128,-1,9
 -4 1119 -4 1119 -23 1119 c 0,10,11
 -58 1119 -58 1119 -82 1109.5 c 128,-1,12
 -106 1100 -106 1100 -120 1084 c 1,13,14
 -124 1089 -124 1089 -128 1096.5 c 128,-1,15
 -132 1104 -132 1104 -132 1116 c 0,16,17
 -132 1143 -132 1143 -103.5 1165.5 c 128,-1,18
 -75 1188 -75 1188 -12 1188 c 0,19,20
 16 1188 16 1188 39 1186 c 128,-1,21
 62 1184 62 1184 83 1180 c 128,-1,22
 104 1176 104 1176 125.5 1170 c 128,-1,23
 147 1164 147 1164 172 1156 c 1,24,25
 157 1108 157 1108 134.5 1065.5 c 128,-1,26
 112 1023 112 1023 79 992 c 128,-1,27
 46 961 46 961 1.5 943 c 128,-1,28
 -43 925 -43 925 -100 925 c 2,29,-1
 -108 925 l 1,30,-1
 -166 963 l 1,0,1
0 905 m 1024,31,-1
0 1238 m 1024,32,-1
EndSplineSet
EndChar

StartChar: uni06E2
Encoding: 1762 1762 188
Width: 0
GlyphClass: 4
Flags: W
AnchorPoint: "Anchor-6" -15 1311 basemark 0 32
AnchorPoint: "Anchor-6" 30 825 mark 0 31
AnchorPoint: "Anchor-3" 30 825 mark 0 31
AnchorPoint: "Anchor-0" 30 825 mark 0 31
LayerCount: 2
Fore
SplineSet
-68 825 m 1,0,1
 -84 808 -84 808 -119 783 c 1,2,3
 -119 864 -119 864 -124.5 916.5 c 128,-1,4
 -130 969 -130 969 -130 1002 c 0,5,6
 -130 1018 -130 1018 -104 1080 c 1,7,8
 -40 1097 -40 1097 -18 1100.5 c 128,-1,9
 4 1104 4 1104 65 1107 c 1,10,-1
 50 1125 l 1,11,12
 22 1166 22 1166 8 1179 c 128,-1,13
 -6 1192 -6 1192 -19 1192 c 0,14,15
 -46 1192 -46 1192 -82 1144 c 1,16,-1
 -107 1156 l 1,17,18
 -63 1261 -63 1261 -1 1261 c 0,19,20
 18 1261 18 1261 32.5 1247 c 128,-1,21
 47 1233 47 1233 62 1212 c 128,-1,22
 77 1191 77 1191 94.5 1167 c 128,-1,23
 112 1143 112 1143 138 1122 c 1,24,-1
 109 1043 l 1,25,26
 47 1043 47 1043 2 1037.5 c 128,-1,27
 -43 1032 -43 1032 -96 1013 c 1,28,-1
 -84 940 l 2,29,30
 -72 877 -72 877 -68 825 c 1,0,1
30 825 m 1024,31,-1
-15 1311 m 1024,32,-1
EndSplineSet
EndChar

StartChar: uni06E3
Encoding: 1763 1763 189
Width: 0
GlyphClass: 4
Flags: W
AnchorPoint: "Anchor-7" 153 -528 basemark 0 58
AnchorPoint: "Anchor-7" 0 -88 mark 0 57
AnchorPoint: "Anchor-4" 0 -88 mark 0 57
AnchorPoint: "Anchor-1" 0 -88 mark 0 57
LayerCount: 2
Fore
SplineSet
-189 -528 m 0,0,1
 -253 -528 -253 -528 -290.5 -491 c 128,-1,2
 -328 -454 -328 -454 -328 -384 c 0,3,4
 -328 -342 -328 -342 -313 -284 c 1,5,-1
 -285 -291 l 1,6,7
 -294 -325 -294 -325 -294 -345 c 0,8,9
 -294 -405 -294 -405 -264 -434.5 c 128,-1,10
 -234 -464 -234 -464 -187 -464 c 0,11,12
 -126 -464 -126 -464 -71 -435.5 c 128,-1,13
 -16 -407 -16 -407 3 -367 c 1,14,15
 -47 -262 -47 -262 -47 -220 c 0,16,17
 -47 -181 -47 -181 3 -151 c 1,18,19
 10 -204 10 -204 21 -246 c 1,20,21
 49 -253 49 -253 69 -253 c 0,22,23
 112 -253 112 -253 136 -245 c 1,24,-1
 145 -223 l 1,25,26
 164 -157 164 -157 175 -137.5 c 128,-1,27
 186 -118 186 -118 205 -118 c 0,28,29
 215 -118 215 -118 222 -123 c 1,30,31
 203 -165 203 -165 189 -221 c 1,32,33
 254 -251 254 -251 324 -251 c 1,34,35
 310 -200 310 -200 295 -166 c 128,-1,36
 280 -132 280 -132 280 -115 c 0,37,38
 280 -80 280 -80 331 -50 c 1,39,40
 339 -95 339 -95 349.5 -138 c 128,-1,41
 360 -181 360 -181 360 -217 c 0,42,43
 360 -233 360 -233 349 -265 c 128,-1,44
 338 -297 338 -297 331 -312 c 1,45,46
 287 -312 287 -312 252 -306 c 128,-1,47
 217 -300 217 -300 168 -278 c 1,48,-1
 161 -291 l 2,49,50
 156 -300 156 -300 127 -306 c 128,-1,51
 98 -312 98 -312 59 -312 c 2,52,-1
 32 -310 l 1,53,-1
 33 -339 l 2,54,55
 33 -414 33 -414 -36 -471 c 128,-1,56
 -105 -528 -105 -528 -189 -528 c 0,0,1
0 -88 m 1024,57,-1
153 -528 m 1024,58,-1
EndSplineSet
EndChar

StartChar: uni06E4
Encoding: 1764 1764 190
Width: 0
GlyphClass: 4
Flags: W
AnchorPoint: "Anchor-6" 3 1113 basemark 0 19
AnchorPoint: "Anchor-6" 0 952 mark 0 20
AnchorPoint: "Anchor-3" 0 952 mark 0 20
AnchorPoint: "Anchor-0" 0 952 mark 0 20
LayerCount: 2
Fore
SplineSet
69 972 m 0,0,1
 31 972 31 972 -15 988 c 128,-1,2
 -61 1004 -61 1004 -124 1030 c 1,3,-1
 -246 965 l 1,4,-1
 -260 985 l 1,5,6
 -234 1011 -234 1011 -182 1047 c 128,-1,7
 -130 1083 -130 1083 -119 1083 c 0,8,9
 -102 1083 -102 1083 -35 1057 c 0,10,11
 31 1031 31 1031 72 1031 c 0,12,13
 124 1031 124 1031 159 1047.5 c 128,-1,14
 194 1064 194 1064 228 1088 c 1,15,-1
 242 1065 l 1,16,17
 199 1024 199 1024 150.5 998 c 128,-1,18
 102 972 102 972 69 972 c 0,0,1
3 1113 m 1024,19,-1
0 952 m 1024,20,-1
EndSplineSet
EndChar

StartChar: uni06E5
Encoding: 1765 1765 191
Width: 420
GlyphClass: 2
Flags: W
AnchorPoint: "Anchor-1" 190 -193 basechar 0 34
AnchorPoint: "Anchor-0" 207 901 basechar 0 35
LayerCount: 2
Fore
SplineSet
166 -43 m 0,0,1
 141 -43 141 -43 102.5 -28 c 128,-1,2
 64 -13 64 -13 43 6 c 1,3,-1
 55 33 l 1,4,5
 97 17 97 17 148 17 c 0,6,7
 265 17 265 17 310 152 c 1,8,-1
 309 159 l 1,9,10
 291 141 291 141 258.5 127.5 c 128,-1,11
 226 114 226 114 196 114 c 0,12,13
 148 114 148 114 122.5 140.5 c 128,-1,14
 97 167 97 167 97 214 c 0,15,16
 97 281 97 281 131 329 c 128,-1,17
 165 377 165 377 209 377 c 0,18,19
 264 377 264 377 302 316 c 128,-1,20
 340 255 340 255 340 177 c 0,21,22
 340 91 340 91 289 24 c 128,-1,23
 238 -43 238 -43 166 -43 c 0,0,1
197 311 m 0,24,25
 171 311 171 311 149 285 c 128,-1,26
 127 259 127 259 127 236 c 0,27,28
 127 207 127 207 150.5 192 c 128,-1,29
 174 177 174 177 215 177 c 0,30,31
 263 177 263 177 303 195 c 1,32,33
 268 311 268 311 197 311 c 0,24,25
190 -193 m 1024,34,-1
207 901 m 1024,35,-1
209 427 m 1024,36,-1
196 -63 m 1024,37,-1
EndSplineSet
EndChar

StartChar: uni06E6
Encoding: 1766 1766 192
Width: 705
GlyphClass: 2
Flags: W
AnchorPoint: "Anchor-1" 348 -193 basechar 0 29
AnchorPoint: "Anchor-0" 354 901 basechar 0 30
LayerCount: 2
Fore
SplineSet
349 0 m 0,0,1
 257 0 257 0 172.5 13.5 c 128,-1,2
 88 27 88 27 88 41 c 256,3,4
 88 55 88 55 96.5 88.5 c 128,-1,5
 105 122 105 122 113 127 c 0,6,7
 139 153 139 153 177 171 c 1,8,-1
 246 195 l 2,9,10
 289 209 289 209 305 243 c 1,11,-1
 330 229 l 1,12,13
 319 200 319 200 304.5 180 c 128,-1,14
 290 160 290 160 261 152 c 0,15,16
 195 131 195 131 177 122.5 c 128,-1,17
 159 114 159 114 125 91 c 1,18,19
 201 59 201 59 359 59 c 0,20,21
 415 59 415 59 486 69 c 128,-1,22
 557 79 557 79 608 95 c 1,23,24
 620 81 620 81 620 68 c 0,25,26
 620 52 620 52 598 38 c 128,-1,27
 576 24 576 24 499 12 c 128,-1,28
 422 0 422 0 349 0 c 0,0,1
348 -193 m 1024,29,-1
354 901 m 1024,30,-1
EndSplineSet
EndChar

StartChar: uni06E7
Encoding: 1767 1767 193
Width: 0
GlyphClass: 4
Flags: W
AnchorPoint: "Anchor-6" -7 1210 basemark 0 29
AnchorPoint: "Anchor-6" -12 897 mark 0 28
AnchorPoint: "Anchor-3" -12 897 mark 0 28
AnchorPoint: "Anchor-0" -12 897 mark 0 28
LayerCount: 2
Fore
SplineSet
-13 917 m 0,0,1
 -105 917 -105 917 -189.5 930.5 c 128,-1,2
 -274 944 -274 944 -274 958 c 256,3,4
 -274 972 -274 972 -265.5 1005.5 c 128,-1,5
 -257 1039 -257 1039 -249 1044 c 0,6,7
 -227 1068 -227 1068 -185 1088 c 1,8,-1
 -97 1120 l 2,9,10
 -71 1132 -71 1132 -58 1160 c 1,11,-1
 -33 1146 l 1,12,13
 -43 1117 -43 1117 -58 1097 c 128,-1,14
 -73 1077 -73 1077 -102 1069 c 0,15,16
 -164 1049 -164 1049 -180 1042 c 128,-1,17
 -196 1035 -196 1035 -238 1008 c 1,18,19
 -166 976 -166 976 -3 976 c 0,20,21
 53 976 53 976 123.5 986 c 128,-1,22
 194 996 194 996 245 1012 c 1,23,24
 257 997 257 997 257 985 c 0,25,26
 257 949 257 949 162 933 c 128,-1,27
 67 917 67 917 -13 917 c 0,0,1
-12 897 m 1024,28,-1
-7 1210 m 1024,29,-1
EndSplineSet
EndChar

StartChar: uni06E8
Encoding: 1768 1768 194
Width: 0
GlyphClass: 4
Flags: W
AnchorPoint: "Anchor-6" -35 1336 basemark 0 33
AnchorPoint: "Anchor-6" -19 840 mark 0 32
AnchorPoint: "Anchor-3" -19 840 mark 0 32
AnchorPoint: "Anchor-0" -19 840 mark 0 32
LayerCount: 2
Fore
SplineSet
-49 860 m 0,0,1
 -121 860 -121 860 -154.5 900.5 c 128,-1,2
 -188 941 -188 941 -188 1004 c 0,3,4
 -188 1027 -188 1027 -186.5 1042.5 c 128,-1,5
 -185 1058 -185 1058 -174 1104 c 1,6,-1
 -146 1097 l 1,7,8
 -154 1057 -154 1057 -154 1043 c 0,9,10
 -154 983 -154 983 -124.5 953.5 c 128,-1,11
 -95 924 -95 924 -47 924 c 0,12,13
 13 924 13 924 68.5 951.5 c 128,-1,14
 124 979 124 979 142 1020 c 1,15,16
 94 1126 94 1126 94 1168 c 0,17,18
 94 1207 94 1207 142 1236 c 1,19,20
 150 1181 150 1181 161 1136 c 128,-1,21
 172 1091 172 1091 172 1048 c 0,22,23
 172 974 172 974 105 917 c 128,-1,24
 38 860 38 860 -49 860 c 0,0,1
18 1246 m 1,25,26
 4 1224 4 1224 -33 1190 c 1,27,28
 -71 1222 -71 1222 -86 1240 c 1,29,-1
 -34 1296 l 1,30,31
 9 1253 9 1253 18 1246 c 1,25,26
-19 840 m 1024,32,-1
-35 1336 m 1024,33,-1
EndSplineSet
EndChar

StartChar: uni06E9
Encoding: 1769 1769 195
Width: 1045
GlyphClass: 1
Flags: W
LayerCount: 2
Fore
SplineSet
1003 -124 m 1,0,-1
 42 -124 l 1,1,-1
 237 97 l 1,2,-1
 237 599 l 1,3,-1
 42 818 l 1,4,-1
 522 1300 l 1,5,-1
 1003 818 l 1,6,-1
 807 599 l 1,7,-1
 807 97 l 1,8,-1
 1003 -124 l 1,0,-1
937 818 m 1,9,-1
 522 1234 l 1,10,-1
 108 818 l 1,11,-1
 287 616 l 1,12,-1
 287 80 l 1,13,-1
 151 -77 l 1,14,-1
 893 -77 l 1,15,-1
 757 80 l 1,16,-1
 757 616 l 1,17,-1
 937 818 l 1,9,-1
846 818 m 1,18,-1
 719 673 l 1,19,-1
 719 -13 l 1,20,-1
 326 -13 l 1,21,-1
 326 673 l 1,22,-1
 198 818 l 1,23,-1
 522 1142 l 1,24,-1
 846 818 l 1,18,-1
784 818 m 1,25,-1
 522 1079 l 1,26,-1
 261 818 l 1,27,-1
 367 700 l 1,28,-1
 367 34 l 1,29,-1
 677 34 l 1,30,-1
 677 700 l 1,31,-1
 784 818 l 1,25,-1
709 818 m 1,32,-1
 633 736 l 1,33,-1
 633 102 l 1,34,-1
 411 102 l 1,35,-1
 411 736 l 1,36,-1
 336 818 l 1,37,-1
 522 1007 l 1,38,-1
 709 818 l 1,32,-1
663 818 m 1,39,-1
 522 962 l 1,40,-1
 382 818 l 1,41,-1
 444 748 l 1,42,-1
 444 139 l 1,43,-1
 599 139 l 1,44,-1
 599 748 l 1,45,-1
 663 818 l 1,39,-1
522 336 m 1024,46,-1
EndSplineSet
EndChar

StartChar: uni06EA
Encoding: 1770 1770 196
Width: 0
GlyphClass: 4
Flags: W
AnchorPoint: "Anchor-7" -3 -720 basemark 0 9
AnchorPoint: "Anchor-7" 0 -402 mark 0 8
AnchorPoint: "Anchor-4" 0 -402 mark 0 8
AnchorPoint: "Anchor-1" 0 -402 mark 0 8
LayerCount: 2
Fore
SplineSet
134 -565 m 1,0,-1
 0 -700 l 1,1,-1
 -134 -565 l 1,2,-1
 0 -432 l 1,3,-1
 134 -565 l 1,0,-1
83 -565 m 1,4,-1
 0 -482 l 1,5,-1
 -83 -565 l 1,6,-1
 0 -649 l 1,7,-1
 83 -565 l 1,4,-1
0 -402 m 1024,8,-1
-3 -720 m 1024,9,-1
EndSplineSet
EndChar

StartChar: uni06EB
Encoding: 1771 1771 197
Width: 0
GlyphClass: 4
Flags: W
AnchorPoint: "Anchor-6" 0 1265 basemark 0 9
AnchorPoint: "Anchor-6" 0 927 mark 0 8
AnchorPoint: "Anchor-3" 0 927 mark 0 8
AnchorPoint: "Anchor-0" 0 927 mark 0 8
LayerCount: 2
Fore
SplineSet
134 1081 m 1,0,-1
 0 947 l 1,1,-1
 -134 1081 l 1,2,-1
 0 1215 l 1,3,-1
 134 1081 l 1,0,-1
83 1081 m 1,4,-1
 0 1163 l 1,5,-1
 -83 1081 l 1,6,-1
 0 998 l 1,7,-1
 83 1081 l 1,4,-1
0 927 m 1024,8,-1
0 1265 m 1024,9,-1
EndSplineSet
EndChar

StartChar: uni06EC
Encoding: 1772 1772 198
Width: 0
GlyphClass: 4
Flags: W
AnchorPoint: "Anchor-6" 3 1250 basemark 0 13
AnchorPoint: "Anchor-6" 0 880 mark 0 12
AnchorPoint: "Anchor-3" 0 880 mark 0 12
AnchorPoint: "Anchor-0" 0 880 mark 0 12
LayerCount: 2
Fore
SplineSet
-150 1050 m 256,0,1
 -150 1112 -150 1112 -106 1156 c 128,-1,2
 -62 1200 -62 1200 0 1200 c 256,3,4
 62 1200 62 1200 106 1156 c 128,-1,5
 150 1112 150 1112 150 1050 c 256,6,7
 150 988 150 988 106 944 c 128,-1,8
 62 900 62 900 0 900 c 256,9,10
 -62 900 -62 900 -106 944 c 128,-1,11
 -150 988 -150 988 -150 1050 c 256,0,1
0 880 m 1024,12,-1
3 1250 m 1024,13,-1
EndSplineSet
EndChar

StartChar: uni06ED
Encoding: 1773 1773 199
Width: 0
GlyphClass: 4
Flags: W
AnchorPoint: "Anchor-7" 30 -670 basemark 0 31
AnchorPoint: "Anchor-7" 0 -204 mark 0 30
AnchorPoint: "Anchor-4" 0 -204 mark 0 30
AnchorPoint: "Anchor-1" 0 -204 mark 0 30
LayerCount: 2
Fore
SplineSet
-68 -670 m 1,0,1
 -84 -687 -84 -687 -119 -712 c 1,2,3
 -119 -631 -119 -631 -124.5 -578.5 c 128,-1,4
 -130 -526 -130 -526 -130 -493 c 0,5,6
 -130 -477 -130 -477 -104 -415 c 1,7,8
 -32 -396 -32 -396 3 -392 c 128,-1,9
 38 -388 38 -388 66 -388 c 1,10,-1
 28 -339 l 2,11,12
 2 -303 2 -303 -19 -303 c 0,13,14
 -46 -303 -46 -303 -82 -351 c 1,15,-1
 -107 -339 l 1,16,17
 -63 -234 -63 -234 -1 -234 c 0,18,19
 18 -234 18 -234 32.5 -248 c 128,-1,20
 47 -262 47 -262 62 -283 c 128,-1,21
 77 -304 77 -304 94.5 -328 c 128,-1,22
 112 -352 112 -352 138 -373 c 1,23,-1
 109 -452 l 1,24,25
 56 -452 56 -452 5.5 -457 c 128,-1,26
 -45 -462 -45 -462 -97 -481 c 1,27,-1
 -84 -555 l 2,28,29
 -72 -618 -72 -618 -68 -670 c 1,0,1
0 -204 m 1024,30,-1
30 -670 m 1024,31,-1
EndSplineSet
EndChar

StartChar: uni06F4
Encoding: 1780 1780 206
Width: 954
GlyphClass: 1
Flags: W
LayerCount: 2
Fore
SplineSet
157 1016 m 0,0,1
 157 1102 157 1102 268 1164 c 1,2,3
 346 1024 346 1024 395 877 c 1,4,5
 444 850 444 850 511 841 c 1,6,-1
 512 841 l 1,7,8
 463 879 463 879 463 943 c 0,9,10
 463 996 463 996 491 1053 c 128,-1,11
 519 1110 519 1110 566 1145 c 128,-1,12
 613 1180 613 1180 668 1180 c 0,13,14
 751 1180 751 1180 846 1047 c 1,15,-1
 799 999 l 1,16,17
 730 1045 730 1045 672 1045 c 0,18,19
 645 1045 645 1045 620.5 1035.5 c 128,-1,20
 596 1026 596 1026 558 1006 c 1,21,22
 558 873 558 873 726 859 c 1,23,24
 807 883 807 883 886 924 c 1,25,26
 900 888 900 888 900 858 c 0,27,28
 900 780 900 780 809 736.5 c 128,-1,29
 718 693 718 693 595 693 c 0,30,31
 520 693 520 693 443 716 c 1,32,33
 489 530 489 530 489 393 c 0,34,35
 489 204 489 204 463 0 c 1,36,-1
 385 19 l 1,37,38
 383 202 383 202 370.5 320.5 c 128,-1,39
 358 439 358 439 332 539 c 0,40,41
 309 639 309 639 275.5 728.5 c 128,-1,42
 242 818 242 818 174 955 c 0,43,44
 157 987 157 987 157 1016 c 0,0,1
EndSplineSet
Substitution2: "Single Substitution lookup 17 subtable" uni06F4.small
Substitution2: "'tnum' Tabular Numbers in Arabic lookup 14 subtable" uni06F4.tab
Substitution2: "'locl' Localized Forms in Arabic lookup 11 subtable" uni06F4.urdu
EndChar

StartChar: uni06F5
Encoding: 1781 1781 207
Width: 930
GlyphClass: 1
Flags: W
LayerCount: 2
Fore
SplineSet
315 1046 m 0,0,1
 315 1130 315 1130 357 1198 c 1,2,3
 562 1010 562 1010 656 889 c 128,-1,4
 750 768 750 768 792 648.5 c 128,-1,5
 834 529 834 529 834 389 c 0,6,7
 834 290 834 290 805.5 202 c 128,-1,8
 777 114 777 114 726.5 64.5 c 128,-1,9
 676 15 676 15 611 15 c 0,10,11
 523 15 523 15 462 90 c 1,12,13
 408 15 408 15 326 15 c 0,14,15
 216 15 216 15 156 107 c 128,-1,16
 96 199 96 199 96 365 c 0,17,18
 96 589 96 589 262 863 c 2,19,-1
 330 973 l 1,20,21
 315 1001 315 1001 315 1046 c 0,0,1
176 371 m 0,22,23
 176 299 176 299 217 243.5 c 128,-1,24
 258 188 258 188 319 188 c 0,25,26
 418 188 418 188 430 337 c 1,27,-1
 503 376 l 1,28,29
 503 289 503 289 532.5 238.5 c 128,-1,30
 562 188 562 188 625 188 c 0,31,32
 678 188 678 188 715 232 c 128,-1,33
 752 276 752 276 752 337 c 0,34,35
 752 443 752 443 660 596.5 c 128,-1,36
 568 750 568 750 415 893 c 1,37,38
 312 774 312 774 244 630.5 c 128,-1,39
 176 487 176 487 176 371 c 0,22,23
468 1163 m 1024,40,-1
EndSplineSet
Substitution2: "Single Substitution lookup 17 subtable" uni06F5.small
Substitution2: "'tnum' Tabular Numbers in Arabic lookup 14 subtable" uni06F5.tab
EndChar

StartChar: uni06F6
Encoding: 1782 1782 208
Width: 909
GlyphClass: 1
Flags: W
LayerCount: 2
Fore
SplineSet
122 99 m 1,0,1
 205 259 205 259 253 332.5 c 128,-1,2
 301 406 301 406 388 512 c 2,3,-1
 392 517 l 1,4,5
 280 545 280 545 209.5 616 c 128,-1,6
 139 687 139 687 139 774 c 0,7,8
 139 870 139 870 177 961 c 128,-1,9
 215 1052 215 1052 281 1106.5 c 128,-1,10
 347 1161 347 1161 430 1161 c 0,11,12
 499 1161 499 1161 563 1129 c 128,-1,13
 627 1097 627 1097 726 1012 c 1,14,-1
 688 941 l 1,15,16
 595 976 595 976 562 982.5 c 128,-1,17
 529 989 529 989 484 989 c 0,18,19
 413 989 413 989 357.5 972.5 c 128,-1,20
 302 956 302 956 247 917 c 1,21,22
 247 798 247 798 326 738 c 128,-1,23
 405 678 405 678 560 671 c 1,24,-1
 568 676 l 1,25,26
 664 745 664 745 825 818 c 1,27,28
 833 806 833 806 840 776 c 128,-1,29
 847 746 847 746 847 728 c 0,30,31
 847 670 847 670 729 592 c 0,32,33
 543 469 543 469 431 351 c 128,-1,34
 319 233 319 233 183 0 c 1,35,-1
 122 99 l 1,0,1
EndSplineSet
Substitution2: "Single Substitution lookup 17 subtable" uni06F6.small
Substitution2: "'tnum' Tabular Numbers in Arabic lookup 14 subtable" uni06F6.tab
Substitution2: "'locl' Localized Forms in Arabic lookup 12 subtable" uni0666
Substitution2: "'locl' Localized Forms in Arabic lookup 11 subtable" uni0666
EndChar

StartChar: uni200C
Encoding: 8204 8204 219
Width: 0
GlyphClass: 1
Flags: W
LayerCount: 2
Fore
SplineSet
36 1391 m 1,0,-1
 36 -93 l 1,1,-1
 -36 -93 l 1,2,-1
 -36 1391 l 1,3,-1
 36 1391 l 1,0,-1
EndSplineSet
EndChar

StartChar: uni200D
Encoding: 8205 8205 220
Width: 0
GlyphClass: 1
Flags: W
LayerCount: 2
Fore
SplineSet
36 -93 m 1,0,-1
 -36 -93 l 1,1,-1
 -36 1092 l 1,2,-1
 -170 956 l 1,3,-1
 -219 1005 l 1,4,-1
 -48 1174 l 1,5,-1
 -219 1342 l 1,6,-1
 -170 1391 l 1,7,-1
 0 1220 l 1,8,-1
 170 1391 l 1,9,-1
 219 1342 l 1,10,-1
 48 1174 l 1,11,-1
 219 1005 l 1,12,-1
 170 956 l 1,13,-1
 36 1092 l 1,14,-1
 36 -93 l 1,0,-1
EndSplineSet
EndChar

StartChar: uni200E
Encoding: 8206 8206 221
Width: 0
GlyphClass: 1
Flags: W
LayerCount: 2
Fore
SplineSet
430 1176 m 1,0,-1
 213 962 l 1,1,-1
 164 1011 l 1,2,-1
 301 1141 l 1,3,-1
 35 1141 l 1,4,-1
 35 -93 l 1,5,-1
 -36 -93 l 1,6,-1
 -36 1212 l 1,7,-1
 301 1212 l 1,8,-1
 164 1342 l 1,9,-1
 213 1391 l 1,10,-1
 430 1176 l 1,0,-1
EndSplineSet
EndChar

StartChar: uni200F
Encoding: 8207 8207 222
Width: 0
GlyphClass: 1
Flags: W
LayerCount: 2
Fore
SplineSet
35 -93 m 1,0,-1
 -36 -93 l 1,1,-1
 -36 1141 l 1,2,-1
 -302 1141 l 1,3,-1
 -165 1011 l 1,4,-1
 -214 962 l 1,5,-1
 -431 1176 l 1,6,-1
 -214 1391 l 1,7,-1
 -165 1342 l 1,8,-1
 -302 1212 l 1,9,-1
 35 1212 l 1,10,-1
 35 -93 l 1,0,-1
EndSplineSet
EndChar

StartChar: uni25CC
Encoding: 9676 9676 223
Width: 1235
GlyphClass: 2
Flags: W
AnchorPoint: "Anchor-1" 618 -294 basechar 0 49
AnchorPoint: "Anchor-0" 618 926 basechar 0 48
LayerCount: 2
Fore
SplineSet
618 926 m 1024,0,-1
618 -294 m 1024,1,-1
662 791 m 0,2,3
 662 735 662 735 608 735 c 0,4,5
 555 735 555 735 555 791 c 0,6,7
 555 844 555 844 608 844 c 0,8,9
 662 844 662 844 662 791 c 0,2,3
983 656 m 0,10,11
 983 602 983 602 932 602 c 0,12,13
 877 602 877 602 877 656 c 0,14,15
 877 711 877 711 932 711 c 0,16,17
 983 711 983 711 983 656 c 0,10,11
836 754 m 0,18,19
 836 701 836 701 784 701 c 0,20,21
 727 701 727 701 727 754 c 0,22,23
 727 809 727 809 784 809 c 0,24,25
 836 809 836 809 836 754 c 0,18,19
1083 508 m 0,26,27
 1083 453 1083 453 1028 453 c 0,28,29
 975 453 975 453 975 508 c 0,30,31
 975 561 975 561 1030 561 c 0,32,33
 1083 561 1083 561 1083 508 c 0,26,27
1083 160 m 0,34,35
 1083 107 1083 107 1028 107 c 0,36,37
 975 107 975 107 975 160 c 0,38,39
 975 215 975 215 1028 215 c 0,40,41
 1083 215 1083 215 1083 160 c 0,34,35
983 10 m 0,42,43
 983 -43 983 -43 932 -43 c 0,44,45
 877 -43 877 -43 877 10 c 0,46,47
 877 66 877 66 932 66 c 0,48,49
 983 66 983 66 983 10 c 0,42,43
836 -88 m 0,50,51
 836 -139 836 -139 784 -139 c 0,52,53
 727 -139 727 -139 727 -88 c 0,54,55
 727 -33 727 -33 784 -33 c 0,56,57
 836 -33 836 -33 836 -88 c 0,50,51
207 334 m 256,58,59
 207 281 207 281 154 281 c 0,60,61
 98 281 98 281 98 334 c 256,62,63
 98 387 98 387 154 387 c 0,64,65
 207 387 207 387 207 334 c 256,58,59
662 -121 m 0,66,67
 662 -176 662 -176 608 -176 c 0,68,69
 555 -176 555 -176 555 -121 c 0,70,71
 555 -67 555 -67 608 -67 c 0,72,73
 662 -67 662 -67 662 -121 c 0,66,67
242 160 m 0,74,75
 242 107 242 107 188 107 c 0,76,77
 133 107 133 107 133 160 c 0,78,79
 133 215 133 215 188 215 c 0,80,81
 242 215 242 215 242 160 c 0,74,75
489 -84 m 0,82,83
 489 -139 489 -139 434 -139 c 0,84,85
 381 -139 381 -139 381 -88 c 0,86,87
 381 -33 381 -33 434 -33 c 0,88,89
 489 -33 489 -33 489 -84 c 0,82,83
342 10 m 0,90,91
 342 -43 342 -43 287 -43 c 0,92,93
 233 -43 233 -43 233 10 c 0,94,95
 233 66 233 66 287 66 c 0,96,97
 342 66 342 66 342 10 c 0,90,91
489 754 m 0,98,99
 489 701 489 701 434 701 c 0,100,101
 381 701 381 701 381 754 c 0,102,103
 381 809 381 809 434 809 c 0,104,105
 489 809 489 809 489 754 c 0,98,99
342 656 m 0,106,107
 342 602 342 602 287 602 c 0,108,109
 233 602 233 602 233 653 c 0,110,111
 233 711 233 711 287 711 c 0,112,113
 342 711 342 711 342 656 c 0,106,107
242 508 m 0,114,115
 242 453 242 453 190 453 c 0,116,117
 133 453 133 453 133 508 c 0,118,119
 133 561 133 561 188 561 c 0,120,121
 242 561 242 561 242 508 c 0,114,115
1118 334 m 256,122,123
 1118 281 1118 281 1067 281 c 0,124,125
 1012 281 1012 281 1012 334 c 256,126,127
 1012 387 1012 387 1067 387 c 0,128,129
 1118 387 1118 387 1118 334 c 256,122,123
EndSplineSet
EndChar

StartChar: uni06A9.fina
Encoding: 64399 64399 224
Width: 1589
GlyphClass: 2
Flags: W
AnchorPoint: "Anchor-1" 969 -106 basechar 0 55
AnchorPoint: "Anchor-0" 751 1179 basechar 0 53
LayerCount: 2
Fore
SplineSet
1603 139 m 2,1,-1
 1603 17 l 2,2,3
 1603 0 1603 0 1585 0 c 0,4,5
 1487 0 1487 0 1397 36 c 128,-1,6
 1307 72 1307 72 1236 150 c 1,7,8
 1083 0 1083 0 628 0 c 0,9,10
 376 0 376 0 256.5 72.5 c 128,-1,11
 137 145 137 145 137 288 c 0,12,13
 137 356 137 356 164 419 c 1,14,-1
 237 419 l 1,15,16
 229 381 229 381 229 336 c 0,17,18
 229 240 229 240 324 198 c 256,19,20
 419 156 419 156 646 156 c 0,21,22
 896 156 896 156 1069 207 c 0,23,24
 1146 230 1146 230 1232 277 c 1,25,26
 1194 392 1194 392 1089 492 c 128,-1,27
 984 592 984 592 804 678 c 0,28,29
 715 721 715 721 672.5 758.5 c 128,-1,30
 630 796 630 796 630 849 c 0,31,32
 630 888 630 888 639.5 915.5 c 128,-1,33
 649 943 649 943 671 965 c 0,34,35
 703 996 703 996 919 1103 c 0,36,37
 1021 1151 1021 1151 1072 1173 c 0,38,39
 1105 1187 1105 1187 1357 1291 c 2,40,-1
 1477 1340 l 1,41,42
 1492 1326 1492 1326 1500.5 1304 c 128,-1,43
 1509 1282 1509 1282 1509 1261 c 2,44,-1
 1508 1244 l 1,45,46
 1497 1173 1497 1173 1422 1142 c 2,47,-1
 866 914 l 1,48,-1
 727 853 l 1,49,50
 875 816 875 816 1011.5 731 c 128,-1,51
 1148 646 1148 646 1229 540 c 0,52,53
 1314 431 1314 431 1314 336 c 0,54,55
 1314 294 1314 294 1302 254 c 1,56,57
 1426 156 1426 156 1585 156 c 0,58,0
 1603 156 1603 156 1603 139 c 2,1,-1
751 1179 m 1024,59,-1
969 -60 m 1024,60,-1
969 -106 m 1024,61,-1
EndSplineSet
EndChar

StartChar: uni06BA.fina
Encoding: 64415 64415 225
Width: 1199
GlyphClass: 2
Flags: W
AnchorPoint: "Anchor-1" 540 -636 basechar 0 39
AnchorPoint: "Anchor-0" 541 413 basechar 0 37
LayerCount: 2
Fore
SplineSet
510 -536 m 0,0,1
 335 -536 335 -536 237 -435.5 c 128,-1,2
 139 -335 139 -335 139 -151 c 0,3,4
 139 -92 139 -92 146.5 -39.5 c 128,-1,5
 154 13 154 13 179 114 c 1,6,-1
 254 96 l 1,7,8
 231 6 231 6 231 -50 c 0,9,10
 231 -200 231 -200 306 -283.5 c 128,-1,11
 381 -367 381 -367 515 -367 c 0,12,13
 667 -367 667 -367 818 -293 c 128,-1,14
 969 -219 969 -219 1020 -111 c 1,15,16
 886 182 886 182 886 280 c 0,17,18
 886 333 886 333 916 376 c 128,-1,19
 946 419 946 419 1020 463 c 1,20,21
 1029 391 1029 391 1067 198 c 1,22,-1
 1068 190 l 1,23,24
 1136 156 1136 156 1217 156 c 0,25,26
 1234 156 1234 156 1234 139 c 2,27,-1
 1234 17 l 2,28,29
 1234 0 1234 0 1217 0 c 0,30,31
 1148 0 1148 0 1093 25 c 1,32,-1
 1096 -34 l 1,33,34
 1096 -160 1096 -160 1016 -275 c 128,-1,35
 936 -390 936 -390 797 -463 c 128,-1,36
 658 -536 658 -536 510 -536 c 0,0,1
541 413 m 1024,37,-1
68 -537 m 1024,38,-1
540 -636 m 1024,39,-1
EndSplineSet
EndChar

StartChar: uni06C1.fina
Encoding: 64423 64423 226
Width: 870
GlyphClass: 2
Flags: W
AnchorPoint: "Anchor-1" 582 -106 basechar 0 24
AnchorPoint: "Anchor-0" 470 484 basechar 0 22
LayerCount: 2
Fore
SplineSet
882 0 m 0,0,1
 812 0 812 0 760.5 16.5 c 128,-1,2
 709 33 709 33 670 59.5 c 128,-1,3
 631 86 631 86 561 163 c 0,4,5
 509 219 509 219 472 219 c 0,6,7
 421 219 421 219 354 167.5 c 128,-1,8
 287 116 287 116 193 0 c 1,9,-1
 139 47 l 1,10,11
 369 384 369 384 540 384 c 0,12,13
 580 384 580 384 617.5 356.5 c 128,-1,14
 655 329 655 329 700 270 c 0,15,16
 787 156 787 156 882 156 c 0,17,18
 905 156 905 156 905 135 c 2,19,-1
 905 22 l 2,20,21
 905 0 905 0 882 0 c 0,0,1
470 484 m 1024,22,-1
582 -60 m 1024,23,-1
582 -106 m 1024,24,-1
EndSplineSet
EndChar

StartChar: uni06C1.init
Encoding: 64424 64424 227
Width: 564
GlyphClass: 2
Flags: W
AnchorPoint: "Anchor-1" 315 -535 basechar 0 39
AnchorPoint: "Anchor-0" 254 866 basechar 0 40
LayerCount: 2
Fore
SplineSet
266 -435 m 0,0,1
 224 -430 224 -430 198.5 -401.5 c 128,-1,2
 173 -373 173 -373 173 -334 c 0,3,4
 173 -211 173 -211 294 -52 c 1,5,-1
 350 -86 l 1,6,7
 284 -179 284 -179 284 -251 c 0,8,9
 284 -280 284 -280 304 -297.5 c 128,-1,10
 324 -315 324 -315 369 -329 c 1,11,12
 354 -360 354 -360 334.5 -383.5 c 128,-1,13
 315 -407 315 -407 294.5 -421 c 128,-1,14
 274 -435 274 -435 266 -435 c 0,0,1
0 0 m 0,15,16
 -17 0 -17 0 -17 17 c 2,17,-1
 -17 139 l 2,18,19
 -17 156 -17 156 0 156 c 0,20,21
 93 156 93 156 191 176.5 c 128,-1,22
 289 197 289 197 362 231 c 1,23,24
 336 326 336 326 288 456 c 0,25,26
 249 562 249 562 249 593 c 0,27,28
 249 638 249 638 285.5 685 c 128,-1,29
 322 732 322 732 383 766 c 1,30,31
 392 708 392 708 431 531 c 0,32,33
 460 396 460 396 460 321 c 0,34,35
 460 291 460 291 441 234.5 c 128,-1,36
 422 178 422 178 388 113 c 1,37,38
 199 0 199 0 0 0 c 0,15,16
315 -535 m 1024,39,-1
254 866 m 1024,40,-1
EndSplineSet
EndChar

StartChar: uni06C1.medi
Encoding: 64425 64425 228
Width: 809
GlyphClass: 2
Flags: W
AnchorPoint: "Anchor-1" 297 -548 basechar 0 42
AnchorPoint: "Anchor-0" 474 376 basechar 0 41
LayerCount: 2
Fore
SplineSet
0 0 m 0,0,1
 -17 0 -17 0 -17 17 c 2,2,-1
 -17 139 l 2,3,4
 -17 156 -17 156 0 156 c 0,5,6
 70 156 70 156 96.5 169 c 128,-1,7
 123 182 123 182 136 210 c 0,8,9
 164 276 164 276 216 276 c 0,10,11
 252 276 252 276 280 240 c 1,12,13
 259 184 259 184 259 120 c 0,14,15
 259 23 259 23 302 -76.5 c 128,-1,16
 345 -176 345 -176 426 -263 c 1,17,-1
 437 -200 l 2,18,19
 454 -114 454 -114 481 -55 c 128,-1,20
 508 4 508 4 565.5 57.5 c 128,-1,21
 623 111 623 111 684 133.5 c 128,-1,22
 745 156 745 156 822 156 c 0,23,24
 844 156 844 156 844 135 c 2,25,-1
 844 22 l 2,26,27
 844 0 844 0 822 0 c 0,28,29
 650 0 650 0 583 -28 c 1,30,31
 553 -95 553 -95 545.5 -177.5 c 128,-1,32
 538 -260 538 -260 538 -354 c 1,33,-1
 394 -448 l 1,34,35
 271 -355 271 -355 198 -231 c 128,-1,36
 125 -107 125 -107 115 31 c 1,37,-1
 110 29 l 2,38,39
 83 15 83 15 49.5 7.5 c 128,-1,40
 16 0 16 0 0 0 c 0,0,1
474 376 m 1024,41,-1
297 -548 m 1024,42,-1
EndSplineSet
EndChar

StartChar: uni06BE.fina
Encoding: 64427 64427 229
Width: 1298
GlyphClass: 2
Flags: W
AnchorPoint: "Anchor-1" 658 -126 basechar 0 105
AnchorPoint: "Anchor-0" 578 1017 basechar 0 103
LayerCount: 2
Fore
SplineSet
740 500 m 0,0,1
 740 528 740 528 731.5 556.5 c 128,-1,2
 723 585 723 585 707.5 608.5 c 128,-1,3
 692 632 692 632 670.5 647 c 128,-1,4
 649 662 649 662 624 662 c 0,5,6
 604 662 604 662 576.5 650 c 128,-1,7
 549 638 549 638 521.5 613 c 128,-1,8
 494 588 494 588 470 549.5 c 128,-1,9
 446 511 446 511 433 459 c 1,10,11
 475 412 475 412 527.5 369.5 c 128,-1,12
 580 327 580 327 646 290 c 1,13,14
 697 333 697 333 718.5 385.5 c 128,-1,15
 740 438 740 438 740 500 c 0,0,1
1017 154 m 0,16,17
 1032 154 1032 154 1047.5 156.5 c 128,-1,18
 1063 159 1063 159 1076 166.5 c 128,-1,19
 1089 174 1089 174 1097.5 187 c 128,-1,20
 1106 200 1106 200 1106 221 c 0,21,22
 1106 301 1106 301 1080.5 369.5 c 128,-1,23
 1055 438 1055 438 1013 493 c 128,-1,24
 971 548 971 548 917 590 c 128,-1,25
 863 632 863 632 807 659 c 1,26,-1
 825 625 l 2,27,28
 844 590 844 590 851 553 c 128,-1,29
 858 516 858 516 858 476 c 0,30,31
 858 401 858 401 835.5 338.5 c 128,-1,32
 813 276 813 276 767 221 c 1,33,34
 779 218 779 218 800.5 207 c 128,-1,35
 822 196 822 196 853.5 184 c 128,-1,36
 885 172 885 172 925.5 163 c 128,-1,37
 966 154 966 154 1017 154 c 0,16,17
306 0 m 0,38,39
 280 0 280 0 246 9.5 c 128,-1,40
 212 19 212 19 175.5 33.5 c 128,-1,41
 139 48 139 48 102 66 c 128,-1,42
 65 84 65 84 35 102 c 1,43,-1
 54 173 l 1,44,45
 97 167 97 167 125 163.5 c 128,-1,46
 153 160 153 160 174.5 158.5 c 128,-1,47
 196 157 196 157 215.5 156.5 c 128,-1,48
 235 156 235 156 261 156 c 0,49,50
 294 156 294 156 329 158 c 128,-1,51
 364 160 364 160 396.5 164.5 c 128,-1,52
 429 169 429 169 457.5 176.5 c 128,-1,53
 486 184 486 184 507 196 c 1,54,55
 474 221 474 221 446.5 252 c 128,-1,56
 419 283 419 283 399.5 317 c 128,-1,57
 380 351 380 351 369.5 387 c 128,-1,58
 359 423 359 423 359 459 c 0,59,60
 359 498 359 498 371 545 c 128,-1,61
 383 592 383 592 406 637 c 128,-1,62
 429 682 429 682 463 720.5 c 128,-1,63
 497 759 497 759 542 782 c 1,64,-1
 589 916 l 1,65,66
 718 884 718 884 829 825.5 c 128,-1,67
 940 767 940 767 1021.5 692 c 128,-1,68
 1103 617 1103 617 1149.5 530 c 128,-1,69
 1196 443 1196 443 1196 355 c 0,70,71
 1196 325 1196 325 1194.5 305.5 c 128,-1,72
 1193 286 1193 286 1191 272.5 c 128,-1,73
 1189 259 1189 259 1187.5 248 c 128,-1,74
 1186 237 1186 237 1186 223 c 0,75,76
 1186 189 1186 189 1211.5 173.5 c 128,-1,77
 1237 158 1237 158 1309 158 c 0,78,79
 1333 158 1333 158 1333 139 c 2,80,-1
 1333 20 l 2,81,82
 1333 12 1333 12 1328 6 c 128,-1,83
 1323 0 1323 0 1309 0 c 2,84,-1
 1285 0 l 2,85,86
 1199 0 1199 0 1156 19.5 c 128,-1,87
 1113 39 1113 39 1096 74 c 1,88,89
 1084 62 1084 62 1066.5 53 c 128,-1,90
 1049 44 1049 44 1030.5 39 c 128,-1,91
 1012 34 1012 34 994 31.5 c 128,-1,92
 976 29 976 29 962 29 c 0,93,94
 930 29 930 29 891 35 c 128,-1,95
 852 41 852 41 811 51.5 c 128,-1,96
 770 62 770 62 729 77 c 128,-1,97
 688 92 688 92 652 110 c 1,98,99
 620 86 620 86 581 66 c 128,-1,100
 542 46 542 46 498 31 c 128,-1,101
 454 16 454 16 405.5 8 c 128,-1,102
 357 0 357 0 306 0 c 0,38,39
578 1017 m 1024,103,-1
658 -60 m 1024,104,-1
658 -126 m 1024,105,-1
EndSplineSet
EndChar

StartChar: uni06BE.medi
Encoding: 64429 64429 230
Width: 1051
GlyphClass: 2
Flags: W
AnchorPoint: "Anchor-1" 408 -126 basechar 0 102
AnchorPoint: "Anchor-0" 328 1017 basechar 0 100
LayerCount: 2
Fore
SplineSet
467 378 m 0,0,1
 493 438 493 438 493 500 c 0,2,3
 493 528 493 528 484.5 556.5 c 128,-1,4
 476 585 476 585 460.5 608.5 c 128,-1,5
 445 632 445 632 423.5 647 c 128,-1,6
 402 662 402 662 377 662 c 0,7,8
 357 662 357 662 329.5 650 c 128,-1,9
 302 638 302 638 274.5 613 c 128,-1,10
 247 588 247 588 223 549.5 c 128,-1,11
 199 511 199 511 186 459 c 1,12,13
 228 412 228 412 280.5 369.5 c 128,-1,14
 333 327 333 327 399 290 c 1,15,16
 445 332 445 332 467 378 c 0,0,1
770 154 m 0,17,18
 785 154 785 154 800.5 156.5 c 128,-1,19
 816 159 816 159 829 166.5 c 128,-1,20
 842 174 842 174 850.5 187 c 128,-1,21
 859 200 859 200 859 221 c 0,22,23
 859 301 859 301 833.5 369.5 c 128,-1,24
 808 438 808 438 766 493 c 128,-1,25
 724 548 724 548 670 590 c 128,-1,26
 616 632 616 632 560 659 c 1,27,-1
 582 621 l 1,28,29
 611 557 611 557 611 476 c 0,30,31
 611 401 611 401 588.5 338.5 c 128,-1,32
 566 276 566 276 520 221 c 1,33,34
 532 218 532 218 553.5 207 c 128,-1,35
 575 196 575 196 606.5 184 c 128,-1,36
 638 172 638 172 678.5 163 c 128,-1,37
 719 154 719 154 770 154 c 0,17,18
1 0 m 2,38,39
 -11 0 -11 0 -14 5 c 128,-1,40
 -17 10 -17 10 -17 17 c 2,41,-1
 -17 141 l 2,42,43
 -17 158 -17 158 1 158 c 2,44,-1
 44 158 l 2,45,46
 71 158 71 158 102 161 c 128,-1,47
 133 164 133 164 162.5 169.5 c 128,-1,48
 192 175 192 175 217.5 181.5 c 128,-1,49
 243 188 243 188 260 196 c 1,50,51
 227 221 227 221 199.5 252 c 128,-1,52
 172 283 172 283 152.5 317 c 128,-1,53
 133 351 133 351 122.5 387 c 128,-1,54
 112 423 112 423 112 459 c 0,55,56
 112 498 112 498 124 545 c 128,-1,57
 136 592 136 592 159 637 c 128,-1,58
 182 682 182 682 216 720.5 c 128,-1,59
 250 759 250 759 295 782 c 1,60,-1
 342 916 l 1,61,62
 471 884 471 884 582 825.5 c 128,-1,63
 693 767 693 767 774.5 692 c 128,-1,64
 856 617 856 617 902.5 530 c 128,-1,65
 949 443 949 443 949 355 c 0,66,67
 949 325 949 325 947.5 305.5 c 128,-1,68
 946 286 946 286 944 272.5 c 128,-1,69
 942 259 942 259 940.5 248 c 128,-1,70
 939 237 939 237 939 223 c 0,71,72
 939 189 939 189 964.5 173.5 c 128,-1,73
 990 158 990 158 1062 158 c 0,74,75
 1086 158 1086 158 1086 139 c 2,76,-1
 1086 20 l 2,77,78
 1086 12 1086 12 1081 6 c 128,-1,79
 1076 0 1076 0 1062 0 c 2,80,-1
 1038 0 l 2,81,82
 995 0 995 0 963.5 5 c 128,-1,83
 932 10 932 10 909.5 19 c 128,-1,84
 887 28 887 28 872.5 42 c 128,-1,85
 858 56 858 56 849 74 c 1,86,87
 837 62 837 62 819.5 53 c 128,-1,88
 802 44 802 44 783.5 39 c 128,-1,89
 765 34 765 34 747 31.5 c 128,-1,90
 729 29 729 29 715 29 c 0,91,92
 683 29 683 29 644 35 c 128,-1,93
 605 41 605 41 563.5 52 c 128,-1,94
 522 63 522 63 481 78 c 128,-1,95
 440 93 440 93 404 111 c 1,96,97
 330 58 330 58 237 29 c 128,-1,98
 144 0 144 0 42 0 c 2,99,-1
 1 0 l 2,38,39
328 1017 m 1024,100,-1
408 -60 m 1024,101,-1
408 -126 m 1024,102,-1
EndSplineSet
EndChar

StartChar: uni06D2.fina
Encoding: 64431 64431 231
Width: 1085
GlyphClass: 2
Flags: W
AnchorPoint: "Anchor-1" 663 -518 basechar 0 31
AnchorPoint: "Anchor-0" 477 256 basechar 0 30
LayerCount: 2
Fore
SplineSet
202 -202 m 1,0,1
 413 -262 413 -262 670 -262 c 0,2,3
 936 -262 936 -262 1203 -214 c 1,4,5
 1232 -249 1232 -249 1232 -285 c 0,6,7
 1232 -326 1232 -326 1195 -355 c 128,-1,8
 1158 -384 1158 -384 1103 -392 c 0,9,10
 941 -418 941 -418 656 -418 c 0,11,12
 524 -418 524 -418 398 -398 c 128,-1,13
 272 -378 272 -378 188.5 -347.5 c 128,-1,14
 105 -317 105 -317 105 -295 c 0,15,16
 105 -270 105 -270 125 -202 c 128,-1,17
 145 -134 145 -134 156 -124 c 0,18,19
 308 21 308 21 534 88.5 c 128,-1,20
 760 156 760 156 1108 156 c 0,21,22
 1130 156 1130 156 1130 133 c 2,23,-1
 1130 20 l 2,24,25
 1130 0 1130 0 1108 0 c 0,26,27
 931 0 931 0 756.5 -18.5 c 128,-1,28
 582 -37 582 -37 450 -82 c 128,-1,29
 318 -127 318 -127 202 -202 c 1,0,1
477 256 m 1024,30,-1
663 -518 m 1024,31,-1
EndSplineSet
EndChar

StartChar: uniFBB2
Encoding: 64434 64434 232
Width: 870
GlyphClass: 1
Flags: W
LayerCount: 2
Fore
SplineSet
543 811 m 1,0,1
 495 742 495 742 411 661 c 1,2,3
 320 733 320 733 264 794 c 1,4,5
 369 899 369 899 407 944 c 1,6,7
 472 873 472 873 543 811 c 1,0,1
411 641 m 1024,8,-1
407 994 m 1024,9,-1
EndSplineSet
EndChar

StartChar: uniFBB3
Encoding: 64435 64435 233
Width: 870
GlyphClass: 1
Flags: W
LayerCount: 2
Fore
SplineSet
508 -247 m 1,0,1
 460 -316 460 -316 376 -397 c 1,2,3
 288 -328 288 -328 229 -263 c 1,4,5
 321 -173 321 -173 372 -113 c 1,6,7
 443 -190 443 -190 508 -247 c 1,0,1
371 -263 m 1024,8,-1
372 -93 m 1024,9,-1
376 -417 m 1024,10,-1
372 -63 m 1024,11,-1
EndSplineSet
EndChar

StartChar: uniFBB4
Encoding: 64436 64436 234
Width: 870
GlyphClass: 1
Flags: W
LayerCount: 2
Fore
SplineSet
407 804 m 1,0,1
 370 745 370 745 286 664 c 1,2,3
 194 738 194 738 150 789 c 1,4,5
 204 839 204 839 282 927 c 1,6,7
 306 902 306 902 407 804 c 1,0,1
716 833 m 1,8,9
 678 772 678 772 593 693 c 1,10,11
 506 762 506 762 458 819 c 1,12,13
 480 839 480 839 590 957 c 1,14,15
 614 931 614 931 716 833 c 1,8,9
440 644 m 1024,16,-1
430 1007 m 1024,17,-1
440 664 m 1024,18,-1
EndSplineSet
EndChar

StartChar: uniFBB5
Encoding: 64437 64437 235
Width: 870
GlyphClass: 1
Flags: W
LayerCount: 2
Fore
SplineSet
372 -257 m 1,0,1
 335 -316 335 -316 251 -397 c 1,2,3
 159 -323 159 -323 115 -272 c 1,4,5
 169 -222 169 -222 247 -134 c 1,6,7
 265 -153 265 -153 372 -257 c 1,0,1
681 -228 m 1,8,9
 644 -286 644 -286 558 -367 c 1,10,11
 469 -296 469 -296 423 -242 c 1,12,13
 469 -200 469 -200 555 -104 c 1,14,15
 573 -124 573 -124 681 -228 c 1,8,9
399 -263 m 1024,16,-1
395 -104 m 1024,17,-1
401 -417 m 1024,18,-1
EndSplineSet
EndChar

StartChar: uniFBB6
Encoding: 64438 64438 236
Width: 870
GlyphClass: 1
Flags: W
LayerCount: 2
Fore
SplineSet
561 863 m 1,0,1
 502 794 502 794 455 761 c 1,2,3
 398 796 398 796 339 863 c 1,4,5
 401 922 401 922 449 976 c 1,6,7
 487 925 487 925 561 863 c 1,0,1
418 693 m 1,8,9
 382 637 382 637 309 567 c 1,10,11
 229 630 229 630 186 679 c 1,12,13
 235 725 235 725 305 804 c 1,14,15
 327 781 327 781 418 693 c 1,8,9
711 719 m 1,16,17
 672 659 672 659 601 593 c 1,18,19
 530 649 530 649 480 706 c 1,20,21
 517 740 517 740 598 831 c 1,22,-1
 711 719 l 1,16,17
450 593 m 1024,23,-1
449 1026 m 1024,24,-1
EndSplineSet
EndChar

StartChar: uniFBB7
Encoding: 64439 64439 237
Width: 870
GlyphClass: 1
Flags: W
LayerCount: 2
Fore
SplineSet
402 -235 m 1,0,1
 368 -288 368 -288 293 -360 c 1,2,3
 218 -302 218 -302 171 -247 c 1,4,5
 199 -222 199 -222 290 -123 c 1,6,7
 314 -151 314 -151 402 -235 c 1,0,1
696 -208 m 1,8,9
 659 -265 659 -265 586 -333 c 1,10,11
 510 -276 510 -276 463 -220 c 1,12,13
 517 -172 517 -172 583 -98 c 1,14,-1
 696 -208 l 1,8,9
556 -399 m 1,15,16
 490 -472 490 -472 449 -501 c 1,17,18
 392 -466 392 -466 333 -399 c 1,19,20
 395 -343 395 -343 443 -285 c 1,21,22
 474 -325 474 -325 556 -399 c 1,15,16
437 -229 m 1024,23,-1
433 -98 m 1024,24,-1
449 -521 m 1024,25,-1
EndSplineSet
EndChar

StartChar: uniFBB8
Encoding: 64440 64440 238
Width: 870
GlyphClass: 1
Flags: W
LayerCount: 2
Fore
SplineSet
425 841 m 1,0,1
 389 785 389 785 316 715 c 1,2,3
 234 779 234 779 193 828 c 1,4,5
 240 871 240 871 312 952 c 1,6,7
 334 929 334 929 425 841 c 1,0,1
718 867 m 1,8,9
 681 810 681 810 608 742 c 1,10,11
 537 795 537 795 486 854 c 1,12,13
 520 886 520 886 606 979 c 1,14,15
 636 946 636 946 718 867 c 1,8,9
572 676 m 1,16,17
 507 605 507 605 466 575 c 1,18,19
 402 618 402 618 351 676 c 1,20,21
 407 729 407 729 460 789 c 1,22,23
 512 724 512 724 572 676 c 1,16,17
466 555 m 1024,24,-1
456 1009 m 1024,25,-1
EndSplineSet
EndChar

StartChar: uniFBB9
Encoding: 64441 64441 239
Width: 870
GlyphClass: 1
Flags: W
LayerCount: 2
Fore
SplineSet
557 -187 m 1,0,1
 498 -256 498 -256 451 -289 c 1,2,3
 394 -254 394 -254 335 -187 c 1,4,5
 397 -128 397 -128 445 -74 c 1,6,7
 483 -125 483 -125 557 -187 c 1,0,1
414 -357 m 1,8,9
 378 -413 378 -413 305 -483 c 1,10,11
 225 -420 225 -420 182 -371 c 1,12,13
 231 -325 231 -325 301 -246 c 1,14,15
 323 -269 323 -269 414 -357 c 1,8,9
707 -331 m 1,16,17
 668 -391 668 -391 597 -457 c 1,18,19
 526 -401 526 -401 476 -344 c 1,20,21
 513 -310 513 -310 594 -219 c 1,22,-1
 707 -331 l 1,16,17
455 -317 m 1024,23,-1
445 -54 m 1024,24,-1
455 -473 m 1024,25,-1
455 -483 m 1024,26,-1
EndSplineSet
EndChar

StartChar: uniFBBA
Encoding: 64442 64442 240
Width: 783
GlyphClass: 1
Flags: W
LayerCount: 2
Fore
SplineSet
366 717 m 1,0,1
 321 655 321 655 279 616 c 1,2,3
 215 665 215 665 181 706 c 1,4,5
 215 739 215 739 276 806 c 1,6,7
 317 761 317 761 366 717 c 1,0,1
346 921 m 1,8,9
 315 873 315 873 258 821 c 1,10,11
 194 872 194 872 160 911 c 1,12,13
 199 947 199 947 256 1010 c 1,14,15
 280 984 280 984 346 921 c 1,8,9
572 717 m 1,16,17
 538 664 538 664 485 616 c 1,18,19
 426 661 426 661 387 706 c 1,20,21
 421 739 421 739 482 806 c 1,22,-1
 572 717 l 1,16,17
552 921 m 1,23,24
 521 873 521 873 464 821 c 1,25,26
 400 872 400 872 366 911 c 1,27,28
 380 924 380 924 462 1010 c 1,29,30
 486 984 486 984 552 921 c 1,23,24
365 596 m 1024,31,-1
362 1040 m 1024,32,-1
EndSplineSet
EndChar

StartChar: uniFBBC
Encoding: 64444 64444 241
Width: 660
GlyphClass: 1
Flags: W
LayerCount: 2
Fore
SplineSet
416 -107 m 1,0,1
 428 -167 428 -167 434 -217 c 128,-1,2
 440 -267 440 -267 440 -343 c 0,3,4
 440 -421 440 -421 399 -478 c 1,5,-1
 389 -475 l 1,6,7
 389 -338 389 -338 363 -231 c 0,8,9
 358 -211 358 -211 358 -196 c 0,10,11
 358 -165 358 -165 374 -141.5 c 128,-1,12
 390 -118 390 -118 416 -107 c 1,0,1
258 -107 m 1,13,14
 270 -167 270 -167 276 -217 c 128,-1,15
 282 -267 282 -267 282 -343 c 0,16,17
 282 -421 282 -421 241 -478 c 1,18,-1
 231 -475 l 1,19,20
 231 -338 231 -338 205 -231 c 0,21,22
 200 -211 200 -211 200 -196 c 0,23,24
 200 -165 200 -165 216 -141.5 c 128,-1,25
 232 -118 232 -118 258 -107 c 1,13,14
311 -508 m 1024,26,-1
318 -57 m 1024,27,-1
EndSplineSet
EndChar

StartChar: uniFBBD
Encoding: 64445 64445 242
Width: 495
GlyphClass: 1
Flags: W
LayerCount: 2
Fore
SplineSet
366 693 m 1,0,1
 330 637 330 637 257 567 c 1,2,3
 180 627 180 627 135 679 c 1,4,5
 169 712 169 712 254 804 c 1,6,7
 277 779 277 779 366 693 c 1,0,1
341 948 m 1,8,9
 304 891 304 891 231 823 c 1,10,11
 147 891 147 891 109 936 c 1,12,13
 149 972 149 972 229 1059 c 1,14,15
 252 1034 252 1034 341 948 c 1,8,9
257 547 m 1024,16,-1
229 1109 m 1024,17,-1
EndSplineSet
EndChar

StartChar: uniFBBE
Encoding: 64446 64446 243
Width: 517
GlyphClass: 1
Flags: W
LayerCount: 2
Fore
SplineSet
375 -420 m 1,0,1
 339 -476 339 -476 266 -546 c 1,2,3
 181 -477 181 -477 144 -433 c 1,4,5
 177 -402 177 -402 263 -309 c 1,6,7
 293 -341 293 -341 375 -420 c 1,0,1
350 -165 m 1,8,9
 313 -222 313 -222 240 -290 c 1,10,11
 156 -222 156 -222 118 -177 c 1,12,13
 168 -131 168 -131 238 -53 c 1,14,15
 262 -81 262 -81 350 -165 c 1,8,9
248 -299 m 1024,16,-1
238 -33 m 1024,17,-1
266 -566 m 1024,18,-1
EndSplineSet
EndChar

StartChar: uni0627.fina
Encoding: 65166 65166 259
Width: 487
GlyphClass: 2
Flags: W
AnchorPoint: "Anchor-1" 269 -106 basechar 0 18
AnchorPoint: "Anchor-0" 250 1474 basechar 0 17
LayerCount: 2
Fore
SplineSet
322 682 m 2,0,-1
 322 554 l 2,1,2
 322 356 322 356 308 17 c 1,3,-1
 214 0 l 1,4,5
 201 718 201 718 158 1192 c 1,6,-1
 157 1218 l 2,7,8
 157 1283 157 1283 189.5 1321.5 c 128,-1,9
 222 1360 222 1360 292 1374 c 1,10,11
 295 1361 295 1361 298 1350 c 128,-1,12
 301 1339 301 1339 365 1131 c 1,13,-1
 310 1084 l 1,14,-1
 311 1074 l 1,15,16
 322 854 322 854 322 682 c 2,0,-1
250 1474 m 1024,17,-1
269 -106 m 1024,18,-1
EndSplineSet
Substitution2: "Single Substitution lookup 9 subtable" LA_Alef.fina
Substitution2: "Single Substitution lookup 8 subtable" LA_Alef.isol
EndChar

StartChar: uni062D.fina
Encoding: 65186 65186 273
Width: 1302
GlyphClass: 2
Flags: W
AnchorPoint: "Anchor-1" 708 -688 basechar 0 47
AnchorPoint: "Anchor-0" 700 880 basechar 0 44
LayerCount: 2
Fore
SplineSet
394 609 m 0,0,1
 297 609 297 609 217 559 c 2,2,-1
 169 530 l 1,3,4
 157 541 157 541 148 562.5 c 128,-1,5
 139 584 139 584 139 609 c 0,6,7
 139 686 139 686 208 733 c 128,-1,8
 277 780 277 780 387 780 c 0,9,10
 475 780 475 780 560 757.5 c 128,-1,11
 645 735 645 735 731 708.5 c 128,-1,12
 817 682 817 682 905 659.5 c 128,-1,13
 993 637 993 637 1088 637 c 2,14,-1
 1120 637 l 1,15,-1
 1222 641 l 1,16,-1
 1164 484 l 1,17,18
 1103 475 1103 475 1049 475 c 0,19,20
 921 466 921 466 773.5 413.5 c 128,-1,21
 626 361 626 361 514 283 c 128,-1,22
 402 205 402 205 340.5 110 c 128,-1,23
 279 15 279 15 279 -86 c 0,24,25
 279 -248 279 -248 394 -333.5 c 128,-1,26
 509 -419 509 -419 743 -419 c 0,27,28
 996 -419 996 -419 1244 -362 c 1,29,-1
 1267 -431 l 1,30,31
 1117 -514 1117 -514 987.5 -551 c 128,-1,32
 858 -588 858 -588 738 -588 c 0,33,34
 484 -588 484 -588 345 -459 c 128,-1,35
 206 -330 206 -330 206 -86 c 0,36,37
 206 42 206 42 269 167.5 c 128,-1,38
 332 293 332 293 443 389 c 128,-1,39
 554 485 554 485 681 534 c 1,40,41
 668 539 668 539 574 569 c 128,-1,42
 480 599 480 599 448 604 c 128,-1,43
 416 609 416 609 394 609 c 0,0,1
700 880 m 1024,44,-1
128 -537 m 1024,45,-1
761 -6 m 1024,46,-1
708 -688 m 1024,47,-1
EndSplineSet
EndChar

StartChar: uni062D.init
Encoding: 65187 65187 274
Width: 1302
GlyphClass: 2
Flags: W
AnchorPoint: "Anchor-1" 708 -688 basechar 0 47
AnchorPoint: "Anchor-0" 700 880 basechar 0 44
LayerCount: 2
Fore
SplineSet
394 609 m 0,0,1
 297 609 297 609 217 559 c 2,2,-1
 169 530 l 1,3,4
 157 541 157 541 148 562.5 c 128,-1,5
 139 584 139 584 139 609 c 0,6,7
 139 686 139 686 208 733 c 128,-1,8
 277 780 277 780 387 780 c 0,9,10
 475 780 475 780 560 757.5 c 128,-1,11
 645 735 645 735 731 708.5 c 128,-1,12
 817 682 817 682 905 659.5 c 128,-1,13
 993 637 993 637 1088 637 c 2,14,-1
 1120 637 l 1,15,-1
 1222 641 l 1,16,-1
 1164 484 l 1,17,18
 1103 475 1103 475 1049 475 c 0,19,20
 921 466 921 466 773.5 413.5 c 128,-1,21
 626 361 626 361 514 283 c 128,-1,22
 402 205 402 205 340.5 110 c 128,-1,23
 279 15 279 15 279 -86 c 0,24,25
 279 -248 279 -248 394 -333.5 c 128,-1,26
 509 -419 509 -419 743 -419 c 0,27,28
 996 -419 996 -419 1244 -362 c 1,29,-1
 1267 -431 l 1,30,31
 1117 -514 1117 -514 987.5 -551 c 128,-1,32
 858 -588 858 -588 738 -588 c 0,33,34
 484 -588 484 -588 345 -459 c 128,-1,35
 206 -330 206 -330 206 -86 c 0,36,37
 206 42 206 42 269 167.5 c 128,-1,38
 332 293 332 293 443 389 c 128,-1,39
 554 485 554 485 681 534 c 1,40,41
 668 539 668 539 574 569 c 128,-1,42
 480 599 480 599 448 604 c 128,-1,43
 416 609 416 609 394 609 c 0,0,1
700 880 m 1024,44,-1
128 -537 m 1024,45,-1
761 -6 m 1024,46,-1
708 -688 m 1024,47,-1
EndSplineSet
EndChar

StartChar: uni062D.medi
Encoding: 65188 65188 275
Width: 1302
GlyphClass: 2
Flags: W
AnchorPoint: "Anchor-1" 708 -688 basechar 0 47
AnchorPoint: "Anchor-0" 700 880 basechar 0 44
LayerCount: 2
Fore
SplineSet
394 609 m 0,0,1
 297 609 297 609 217 559 c 2,2,-1
 169 530 l 1,3,4
 157 541 157 541 148 562.5 c 128,-1,5
 139 584 139 584 139 609 c 0,6,7
 139 686 139 686 208 733 c 128,-1,8
 277 780 277 780 387 780 c 0,9,10
 475 780 475 780 560 757.5 c 128,-1,11
 645 735 645 735 731 708.5 c 128,-1,12
 817 682 817 682 905 659.5 c 128,-1,13
 993 637 993 637 1088 637 c 2,14,-1
 1120 637 l 1,15,-1
 1222 641 l 1,16,-1
 1164 484 l 1,17,18
 1103 475 1103 475 1049 475 c 0,19,20
 921 466 921 466 773.5 413.5 c 128,-1,21
 626 361 626 361 514 283 c 128,-1,22
 402 205 402 205 340.5 110 c 128,-1,23
 279 15 279 15 279 -86 c 0,24,25
 279 -248 279 -248 394 -333.5 c 128,-1,26
 509 -419 509 -419 743 -419 c 0,27,28
 996 -419 996 -419 1244 -362 c 1,29,-1
 1267 -431 l 1,30,31
 1117 -514 1117 -514 987.5 -551 c 128,-1,32
 858 -588 858 -588 738 -588 c 0,33,34
 484 -588 484 -588 345 -459 c 128,-1,35
 206 -330 206 -330 206 -86 c 0,36,37
 206 42 206 42 269 167.5 c 128,-1,38
 332 293 332 293 443 389 c 128,-1,39
 554 485 554 485 681 534 c 1,40,41
 668 539 668 539 574 569 c 128,-1,42
 480 599 480 599 448 604 c 128,-1,43
 416 609 416 609 394 609 c 0,0,1
700 880 m 1024,44,-1
128 -537 m 1024,45,-1
761 -6 m 1024,46,-1
708 -688 m 1024,47,-1
EndSplineSet
EndChar

StartChar: uni062F.fina
Encoding: 65194 65194 279
Width: 847
GlyphClass: 2
Flags: W
AnchorPoint: "Anchor-1" 439 -106 basechar 0 30
AnchorPoint: "Anchor-0" 448 916 basechar 0 28
LayerCount: 2
Fore
SplineSet
320 0 m 0,0,1
 195 0 195 0 132.5 34 c 128,-1,2
 70 68 70 68 70 130 c 0,3,4
 70 196 70 196 106 238 c 1,5,6
 157 196 157 196 222.5 176 c 128,-1,7
 288 156 288 156 385 156 c 0,8,9
 521 156 521 156 663 198 c 1,10,11
 631 289 631 289 578 386 c 2,12,-1
 508 514 l 2,13,14
 477 568 477 568 464.5 605 c 128,-1,15
 452 642 452 642 452 680 c 0,16,17
 452 780 452 780 560 816 c 1,18,19
 591 732 591 732 626 656.5 c 128,-1,20
 661 581 661 581 691 515 c 128,-1,21
 721 449 721 449 741 392 c 128,-1,22
 761 335 761 335 761 288 c 0,23,24
 761 258 761 258 742 201.5 c 128,-1,25
 723 145 723 145 689 80 c 1,26,27
 540 0 540 0 320 0 c 0,0,1
448 916 m 1024,28,-1
439 -60 m 1024,29,-1
439 -106 m 1024,30,-1
EndSplineSet
EndChar

StartChar: uni0631.fina
Encoding: 65198 65198 281
Width: 762
GlyphClass: 2
Flags: W
AnchorPoint: "Anchor-1" 204 -518 basechar 0 27
AnchorPoint: "Anchor-0" 372 798 basechar 0 26
LayerCount: 2
Fore
SplineSet
198 -418 m 0,0,1
 149 -418 149 -418 64 -379.5 c 128,-1,2
 -21 -341 -21 -341 -70 -303 c 1,3,-1
 -42 -235 l 1,4,5
 70 -258 70 -258 151 -258 c 0,6,7
 305 -258 305 -258 414 -166.5 c 128,-1,8
 523 -75 523 -75 581 100 c 1,9,10
 554 166 554 166 519 229 c 0,11,12
 447 353 447 353 414.5 428.5 c 128,-1,13
 382 504 382 504 382 555 c 0,14,15
 382 607 382 607 413.5 638.5 c 128,-1,16
 445 670 445 670 501 698 c 1,17,18
 516 642 516 642 542 573.5 c 128,-1,19
 568 505 568 505 594 433.5 c 128,-1,20
 620 362 620 362 639 292.5 c 128,-1,21
 658 223 658 223 658 165 c 0,22,23
 658 6 658 6 597.5 -130.5 c 128,-1,24
 537 -267 537 -267 431.5 -342.5 c 128,-1,25
 326 -418 326 -418 198 -418 c 0,0,1
372 798 m 1024,26,-1
204 -518 m 1024,27,-1
EndSplineSet
EndChar

StartChar: uni0633.fina
Encoding: 65202 65202 283
Width: 2075
GlyphClass: 2
Flags: W
AnchorPoint: "Anchor-1" 1471 -156 basechar 0 70
AnchorPoint: "Anchor-0" 1413 676 basechar 0 68
LayerCount: 2
Fore
SplineSet
1170 0 m 1,0,-1
 1095 4 l 1,1,-1
 1096 -34 l 2,2,3
 1096 -160 1096 -160 1016 -275 c 128,-1,4
 936 -390 936 -390 797 -463 c 128,-1,5
 658 -536 658 -536 510 -536 c 0,6,7
 335 -536 335 -536 237 -435.5 c 128,-1,8
 139 -335 139 -335 139 -151 c 0,9,10
 139 -92 139 -92 146.5 -39.5 c 128,-1,11
 154 13 154 13 179 114 c 1,12,-1
 254 96 l 1,13,14
 231 6 231 6 231 -50 c 0,15,16
 231 -200 231 -200 306 -283.5 c 128,-1,17
 381 -367 381 -367 515 -367 c 0,18,19
 667 -367 667 -367 818 -293 c 128,-1,20
 969 -219 969 -219 1020 -111 c 1,21,22
 886 182 886 182 886 280 c 0,23,24
 886 333 886 333 916 376 c 128,-1,25
 946 419 946 419 1020 463 c 1,26,27
 1029 391 1029 391 1042 325 c 2,28,-1
 1071 175 l 1,29,30
 1133 156 1133 156 1193 156 c 0,31,32
 1308 156 1308 156 1374 177 c 1,33,34
 1386 196 1386 196 1398 235 c 0,35,36
 1449 406 1449 406 1469.5 449.5 c 128,-1,37
 1490 493 1490 493 1509.5 504.5 c 128,-1,38
 1529 516 1529 516 1553 516 c 0,39,40
 1581 516 1581 516 1601 501 c 1,41,42
 1573 441 1573 441 1513 242 c 1,43,44
 1614 195 1614 195 1696.5 178 c 128,-1,45
 1779 161 1779 161 1873 161 c 1,46,47
 1850 245 1850 245 1797 386 c 0,48,49
 1756 492 1756 492 1756 524 c 0,50,51
 1756 569 1756 569 1792 615 c 128,-1,52
 1828 661 1828 661 1890 696 c 1,53,54
 1899 636 1899 636 1913 577 c 128,-1,55
 1927 518 1927 518 1939.5 461.5 c 128,-1,56
 1952 405 1952 405 1961 352 c 128,-1,57
 1970 299 1970 299 1970 252 c 0,58,59
 1970 219 1970 219 1946 138 c 128,-1,60
 1922 57 1922 57 1892 0 c 1,61,62
 1760 0 1760 0 1664 18.5 c 128,-1,63
 1568 37 1568 37 1458 88 c 1,64,-1
 1440 55 l 2,65,66
 1423 29 1423 29 1348 14.5 c 128,-1,67
 1273 0 1273 0 1170 0 c 1,0,-1
1413 676 m 1024,68,-1
1471 -60 m 1024,69,-1
1471 -156 m 1024,70,-1
EndSplineSet
EndChar

StartChar: uni0633.init
Encoding: 65203 65203 284
Width: 2075
GlyphClass: 2
Flags: W
AnchorPoint: "Anchor-1" 1471 -156 basechar 0 70
AnchorPoint: "Anchor-0" 1413 676 basechar 0 68
LayerCount: 2
Fore
SplineSet
1170 0 m 1,0,-1
 1095 4 l 1,1,-1
 1096 -34 l 2,2,3
 1096 -160 1096 -160 1016 -275 c 128,-1,4
 936 -390 936 -390 797 -463 c 128,-1,5
 658 -536 658 -536 510 -536 c 0,6,7
 335 -536 335 -536 237 -435.5 c 128,-1,8
 139 -335 139 -335 139 -151 c 0,9,10
 139 -92 139 -92 146.5 -39.5 c 128,-1,11
 154 13 154 13 179 114 c 1,12,-1
 254 96 l 1,13,14
 231 6 231 6 231 -50 c 0,15,16
 231 -200 231 -200 306 -283.5 c 128,-1,17
 381 -367 381 -367 515 -367 c 0,18,19
 667 -367 667 -367 818 -293 c 128,-1,20
 969 -219 969 -219 1020 -111 c 1,21,22
 886 182 886 182 886 280 c 0,23,24
 886 333 886 333 916 376 c 128,-1,25
 946 419 946 419 1020 463 c 1,26,27
 1029 391 1029 391 1042 325 c 2,28,-1
 1071 175 l 1,29,30
 1133 156 1133 156 1193 156 c 0,31,32
 1308 156 1308 156 1374 177 c 1,33,34
 1386 196 1386 196 1398 235 c 0,35,36
 1449 406 1449 406 1469.5 449.5 c 128,-1,37
 1490 493 1490 493 1509.5 504.5 c 128,-1,38
 1529 516 1529 516 1553 516 c 0,39,40
 1581 516 1581 516 1601 501 c 1,41,42
 1573 441 1573 441 1513 242 c 1,43,44
 1614 195 1614 195 1696.5 178 c 128,-1,45
 1779 161 1779 161 1873 161 c 1,46,47
 1850 245 1850 245 1797 386 c 0,48,49
 1756 492 1756 492 1756 524 c 0,50,51
 1756 569 1756 569 1792 615 c 128,-1,52
 1828 661 1828 661 1890 696 c 1,53,54
 1899 636 1899 636 1913 577 c 128,-1,55
 1927 518 1927 518 1939.5 461.5 c 128,-1,56
 1952 405 1952 405 1961 352 c 128,-1,57
 1970 299 1970 299 1970 252 c 0,58,59
 1970 219 1970 219 1946 138 c 128,-1,60
 1922 57 1922 57 1892 0 c 1,61,62
 1760 0 1760 0 1664 18.5 c 128,-1,63
 1568 37 1568 37 1458 88 c 1,64,-1
 1440 55 l 2,65,66
 1423 29 1423 29 1348 14.5 c 128,-1,67
 1273 0 1273 0 1170 0 c 1,0,-1
1413 676 m 1024,68,-1
1471 -60 m 1024,69,-1
1471 -156 m 1024,70,-1
EndSplineSet
EndChar

StartChar: uni0633.medi
Encoding: 65204 65204 285
Width: 2075
GlyphClass: 2
Flags: W
AnchorPoint: "Anchor-1" 1471 -156 basechar 0 70
AnchorPoint: "Anchor-0" 1413 676 basechar 0 68
LayerCount: 2
Fore
SplineSet
1170 0 m 1,0,-1
 1095 4 l 1,1,-1
 1096 -34 l 2,2,3
 1096 -160 1096 -160 1016 -275 c 128,-1,4
 936 -390 936 -390 797 -463 c 128,-1,5
 658 -536 658 -536 510 -536 c 0,6,7
 335 -536 335 -536 237 -435.5 c 128,-1,8
 139 -335 139 -335 139 -151 c 0,9,10
 139 -92 139 -92 146.5 -39.5 c 128,-1,11
 154 13 154 13 179 114 c 1,12,-1
 254 96 l 1,13,14
 231 6 231 6 231 -50 c 0,15,16
 231 -200 231 -200 306 -283.5 c 128,-1,17
 381 -367 381 -367 515 -367 c 0,18,19
 667 -367 667 -367 818 -293 c 128,-1,20
 969 -219 969 -219 1020 -111 c 1,21,22
 886 182 886 182 886 280 c 0,23,24
 886 333 886 333 916 376 c 128,-1,25
 946 419 946 419 1020 463 c 1,26,27
 1029 391 1029 391 1042 325 c 2,28,-1
 1071 175 l 1,29,30
 1133 156 1133 156 1193 156 c 0,31,32
 1308 156 1308 156 1374 177 c 1,33,34
 1386 196 1386 196 1398 235 c 0,35,36
 1449 406 1449 406 1469.5 449.5 c 128,-1,37
 1490 493 1490 493 1509.5 504.5 c 128,-1,38
 1529 516 1529 516 1553 516 c 0,39,40
 1581 516 1581 516 1601 501 c 1,41,42
 1573 441 1573 441 1513 242 c 1,43,44
 1614 195 1614 195 1696.5 178 c 128,-1,45
 1779 161 1779 161 1873 161 c 1,46,47
 1850 245 1850 245 1797 386 c 0,48,49
 1756 492 1756 492 1756 524 c 0,50,51
 1756 569 1756 569 1792 615 c 128,-1,52
 1828 661 1828 661 1890 696 c 1,53,54
 1899 636 1899 636 1913 577 c 128,-1,55
 1927 518 1927 518 1939.5 461.5 c 128,-1,56
 1952 405 1952 405 1961 352 c 128,-1,57
 1970 299 1970 299 1970 252 c 0,58,59
 1970 219 1970 219 1946 138 c 128,-1,60
 1922 57 1922 57 1892 0 c 1,61,62
 1760 0 1760 0 1664 18.5 c 128,-1,63
 1568 37 1568 37 1458 88 c 1,64,-1
 1440 55 l 2,65,66
 1423 29 1423 29 1348 14.5 c 128,-1,67
 1273 0 1273 0 1170 0 c 1,0,-1
1413 676 m 1024,68,-1
1471 -60 m 1024,69,-1
1471 -156 m 1024,70,-1
EndSplineSet
EndChar

StartChar: uni0635.fina
Encoding: 65210 65210 289
Width: 2244
GlyphClass: 2
Flags: W
AnchorPoint: "Anchor-1" 1619 -106 basechar 0 55
AnchorPoint: "Anchor-0" 1473 831 basechar 0 53
LayerCount: 2
Fore
SplineSet
510 -536 m 0,0,1
 335 -536 335 -536 237 -435.5 c 128,-1,2
 139 -335 139 -335 139 -151 c 0,3,4
 139 -92 139 -92 146.5 -39.5 c 128,-1,5
 154 13 154 13 179 114 c 1,6,-1
 254 96 l 1,7,8
 231 6 231 6 231 -50 c 0,9,10
 231 -200 231 -200 306 -283.5 c 128,-1,11
 381 -367 381 -367 515 -367 c 0,12,13
 667 -367 667 -367 818 -293 c 128,-1,14
 969 -219 969 -219 1020 -111 c 1,15,16
 886 182 886 182 886 280 c 0,17,18
 886 333 886 333 916 376 c 128,-1,19
 946 419 946 419 1020 463 c 1,20,21
 1028 403 1028 403 1061 228 c 1,22,-1
 1097 213 l 1,23,-1
 1107 210 l 1,24,25
 1313 480 1313 480 1477.5 605.5 c 128,-1,26
 1642 731 1642 731 1777 731 c 0,27,28
 1840 731 1840 731 1927.5 680 c 128,-1,29
 2015 629 2015 629 2077 557.5 c 128,-1,30
 2139 486 2139 486 2139 433 c 0,31,32
 2139 308 2139 308 2059.5 211.5 c 128,-1,33
 1980 115 1980 115 1819.5 57.5 c 128,-1,34
 1659 0 1659 0 1480 0 c 0,35,36
 1274 0 1274 0 1091 50 c 1,37,38
 1096 7 1096 7 1096 -34 c 0,39,40
 1096 -160 1096 -160 1016 -275 c 128,-1,41
 936 -390 936 -390 797 -463 c 128,-1,42
 658 -536 658 -536 510 -536 c 0,0,1
1500 156 m 0,43,44
 1767 156 1767 156 2047 331 c 1,45,46
 1985 439 1985 439 1898 499.5 c 128,-1,47
 1811 560 1811 560 1727 560 c 0,48,49
 1626 560 1626 560 1488 460 c 128,-1,50
 1350 360 1350 360 1204 184 c 1,51,52
 1372 156 1372 156 1500 156 c 0,43,44
1473 831 m 1024,53,-1
1619 -60 m 1024,54,-1
1619 -106 m 1024,55,-1
EndSplineSet
EndChar

StartChar: uni0635.init
Encoding: 65211 65211 290
Width: 2244
GlyphClass: 2
Flags: W
AnchorPoint: "Anchor-1" 1619 -106 basechar 0 55
AnchorPoint: "Anchor-0" 1473 831 basechar 0 53
LayerCount: 2
Fore
SplineSet
510 -536 m 0,0,1
 335 -536 335 -536 237 -435.5 c 128,-1,2
 139 -335 139 -335 139 -151 c 0,3,4
 139 -92 139 -92 146.5 -39.5 c 128,-1,5
 154 13 154 13 179 114 c 1,6,-1
 254 96 l 1,7,8
 231 6 231 6 231 -50 c 0,9,10
 231 -200 231 -200 306 -283.5 c 128,-1,11
 381 -367 381 -367 515 -367 c 0,12,13
 667 -367 667 -367 818 -293 c 128,-1,14
 969 -219 969 -219 1020 -111 c 1,15,16
 886 182 886 182 886 280 c 0,17,18
 886 333 886 333 916 376 c 128,-1,19
 946 419 946 419 1020 463 c 1,20,21
 1028 403 1028 403 1061 228 c 1,22,-1
 1097 213 l 1,23,-1
 1107 210 l 1,24,25
 1313 480 1313 480 1477.5 605.5 c 128,-1,26
 1642 731 1642 731 1777 731 c 0,27,28
 1840 731 1840 731 1927.5 680 c 128,-1,29
 2015 629 2015 629 2077 557.5 c 128,-1,30
 2139 486 2139 486 2139 433 c 0,31,32
 2139 308 2139 308 2059.5 211.5 c 128,-1,33
 1980 115 1980 115 1819.5 57.5 c 128,-1,34
 1659 0 1659 0 1480 0 c 0,35,36
 1274 0 1274 0 1091 50 c 1,37,38
 1096 7 1096 7 1096 -34 c 0,39,40
 1096 -160 1096 -160 1016 -275 c 128,-1,41
 936 -390 936 -390 797 -463 c 128,-1,42
 658 -536 658 -536 510 -536 c 0,0,1
1500 156 m 0,43,44
 1767 156 1767 156 2047 331 c 1,45,46
 1985 439 1985 439 1898 499.5 c 128,-1,47
 1811 560 1811 560 1727 560 c 0,48,49
 1626 560 1626 560 1488 460 c 128,-1,50
 1350 360 1350 360 1204 184 c 1,51,52
 1372 156 1372 156 1500 156 c 0,43,44
1473 831 m 1024,53,-1
1619 -60 m 1024,54,-1
1619 -106 m 1024,55,-1
EndSplineSet
EndChar

StartChar: uni0635.medi
Encoding: 65212 65212 291
Width: 2244
GlyphClass: 2
Flags: W
AnchorPoint: "Anchor-1" 1619 -106 basechar 0 55
AnchorPoint: "Anchor-0" 1473 831 basechar 0 53
LayerCount: 2
Fore
SplineSet
510 -536 m 0,0,1
 335 -536 335 -536 237 -435.5 c 128,-1,2
 139 -335 139 -335 139 -151 c 0,3,4
 139 -92 139 -92 146.5 -39.5 c 128,-1,5
 154 13 154 13 179 114 c 1,6,-1
 254 96 l 1,7,8
 231 6 231 6 231 -50 c 0,9,10
 231 -200 231 -200 306 -283.5 c 128,-1,11
 381 -367 381 -367 515 -367 c 0,12,13
 667 -367 667 -367 818 -293 c 128,-1,14
 969 -219 969 -219 1020 -111 c 1,15,16
 886 182 886 182 886 280 c 0,17,18
 886 333 886 333 916 376 c 128,-1,19
 946 419 946 419 1020 463 c 1,20,21
 1028 403 1028 403 1061 228 c 1,22,-1
 1097 213 l 1,23,-1
 1107 210 l 1,24,25
 1313 480 1313 480 1477.5 605.5 c 128,-1,26
 1642 731 1642 731 1777 731 c 0,27,28
 1840 731 1840 731 1927.5 680 c 128,-1,29
 2015 629 2015 629 2077 557.5 c 128,-1,30
 2139 486 2139 486 2139 433 c 0,31,32
 2139 308 2139 308 2059.5 211.5 c 128,-1,33
 1980 115 1980 115 1819.5 57.5 c 128,-1,34
 1659 0 1659 0 1480 0 c 0,35,36
 1274 0 1274 0 1091 50 c 1,37,38
 1096 7 1096 7 1096 -34 c 0,39,40
 1096 -160 1096 -160 1016 -275 c 128,-1,41
 936 -390 936 -390 797 -463 c 128,-1,42
 658 -536 658 -536 510 -536 c 0,0,1
1500 156 m 0,43,44
 1767 156 1767 156 2047 331 c 1,45,46
 1985 439 1985 439 1898 499.5 c 128,-1,47
 1811 560 1811 560 1727 560 c 0,48,49
 1626 560 1626 560 1488 460 c 128,-1,50
 1350 360 1350 360 1204 184 c 1,51,52
 1372 156 1372 156 1500 156 c 0,43,44
1473 831 m 1024,53,-1
1619 -60 m 1024,54,-1
1619 -106 m 1024,55,-1
EndSplineSet
EndChar

StartChar: uni0637.fina
Encoding: 65218 65218 295
Width: 1575
GlyphClass: 2
Flags: W
AnchorPoint: "Anchor-1" 802 -106 basechar 0 45
AnchorPoint: "Anchor-0" 1087 891 basechar 0 43
LayerCount: 2
Fore
SplineSet
811 0 m 0,0,1
 686 0 686 0 566 7.5 c 128,-1,2
 446 15 446 15 393 25 c 128,-1,3
 340 35 340 35 243.5 84.5 c 128,-1,4
 147 134 147 134 87 177 c 1,5,-1
 108 248 l 1,6,-1
 348 196 l 1,7,-1
 418 184 l 1,8,9
 478 262 478 262 537 332 c 1,10,11
 404 1052 404 1052 404 1213 c 0,12,13
 404 1282 404 1282 436.5 1321 c 128,-1,14
 469 1360 469 1360 540 1374 c 1,15,16
 565 1275 565 1275 593 1194 c 2,17,-1
 613 1131 l 1,18,-1
 558 1084 l 1,19,-1
 595 738 l 2,20,21
 615 566 615 566 618 424 c 2,22,-1
 618 423 l 1,23,24
 909 731 909 731 1109 731 c 0,25,26
 1167 731 1167 731 1252 684 c 128,-1,27
 1337 637 1337 637 1404 563 c 128,-1,28
 1471 489 1471 489 1471 433 c 0,29,30
 1471 307 1471 307 1390.5 210.5 c 128,-1,31
 1310 114 1310 114 1149 57 c 128,-1,32
 988 0 988 0 811 0 c 0,0,1
832 156 m 0,33,34
 1099 156 1099 156 1379 331 c 1,35,36
 1317 439 1317 439 1230 499.5 c 128,-1,37
 1143 560 1143 560 1058 560 c 0,38,39
 957 560 957 560 816 457.5 c 128,-1,40
 675 355 675 355 523 170 c 1,41,42
 677 156 677 156 832 156 c 0,33,34
1087 891 m 1024,43,-1
802 -60 m 1024,44,-1
802 -106 m 1024,45,-1
EndSplineSet
EndChar

StartChar: uni0637.init
Encoding: 65219 65219 296
Width: 1575
GlyphClass: 2
Flags: W
AnchorPoint: "Anchor-1" 802 -106 basechar 0 45
AnchorPoint: "Anchor-0" 1087 891 basechar 0 43
LayerCount: 2
Fore
SplineSet
811 0 m 0,0,1
 686 0 686 0 566 7.5 c 128,-1,2
 446 15 446 15 393 25 c 128,-1,3
 340 35 340 35 243.5 84.5 c 128,-1,4
 147 134 147 134 87 177 c 1,5,-1
 108 248 l 1,6,-1
 348 196 l 1,7,-1
 418 184 l 1,8,9
 478 262 478 262 537 332 c 1,10,11
 404 1052 404 1052 404 1213 c 0,12,13
 404 1282 404 1282 436.5 1321 c 128,-1,14
 469 1360 469 1360 540 1374 c 1,15,16
 565 1275 565 1275 593 1194 c 2,17,-1
 613 1131 l 1,18,-1
 558 1084 l 1,19,-1
 595 738 l 2,20,21
 615 566 615 566 618 424 c 2,22,-1
 618 423 l 1,23,24
 909 731 909 731 1109 731 c 0,25,26
 1167 731 1167 731 1252 684 c 128,-1,27
 1337 637 1337 637 1404 563 c 128,-1,28
 1471 489 1471 489 1471 433 c 0,29,30
 1471 307 1471 307 1390.5 210.5 c 128,-1,31
 1310 114 1310 114 1149 57 c 128,-1,32
 988 0 988 0 811 0 c 0,0,1
832 156 m 0,33,34
 1099 156 1099 156 1379 331 c 1,35,36
 1317 439 1317 439 1230 499.5 c 128,-1,37
 1143 560 1143 560 1058 560 c 0,38,39
 957 560 957 560 816 457.5 c 128,-1,40
 675 355 675 355 523 170 c 1,41,42
 677 156 677 156 832 156 c 0,33,34
1087 891 m 1024,43,-1
802 -60 m 1024,44,-1
802 -106 m 1024,45,-1
EndSplineSet
EndChar

StartChar: uni0637.medi
Encoding: 65220 65220 297
Width: 1575
GlyphClass: 2
Flags: W
AnchorPoint: "Anchor-1" 802 -106 basechar 0 45
AnchorPoint: "Anchor-0" 1087 891 basechar 0 43
LayerCount: 2
Fore
SplineSet
811 0 m 0,0,1
 686 0 686 0 566 7.5 c 128,-1,2
 446 15 446 15 393 25 c 128,-1,3
 340 35 340 35 243.5 84.5 c 128,-1,4
 147 134 147 134 87 177 c 1,5,-1
 108 248 l 1,6,-1
 348 196 l 1,7,-1
 418 184 l 1,8,9
 478 262 478 262 537 332 c 1,10,11
 404 1052 404 1052 404 1213 c 0,12,13
 404 1282 404 1282 436.5 1321 c 128,-1,14
 469 1360 469 1360 540 1374 c 1,15,16
 565 1275 565 1275 593 1194 c 2,17,-1
 613 1131 l 1,18,-1
 558 1084 l 1,19,-1
 595 738 l 2,20,21
 615 566 615 566 618 424 c 2,22,-1
 618 423 l 1,23,24
 909 731 909 731 1109 731 c 0,25,26
 1167 731 1167 731 1252 684 c 128,-1,27
 1337 637 1337 637 1404 563 c 128,-1,28
 1471 489 1471 489 1471 433 c 0,29,30
 1471 307 1471 307 1390.5 210.5 c 128,-1,31
 1310 114 1310 114 1149 57 c 128,-1,32
 988 0 988 0 811 0 c 0,0,1
832 156 m 0,33,34
 1099 156 1099 156 1379 331 c 1,35,36
 1317 439 1317 439 1230 499.5 c 128,-1,37
 1143 560 1143 560 1058 560 c 0,38,39
 957 560 957 560 816 457.5 c 128,-1,40
 675 355 675 355 523 170 c 1,41,42
 677 156 677 156 832 156 c 0,33,34
1087 891 m 1024,43,-1
802 -60 m 1024,44,-1
802 -106 m 1024,45,-1
EndSplineSet
EndChar

StartChar: uni0639.fina
Encoding: 65226 65226 301
Width: 1237
GlyphClass: 2
Flags: W
AnchorPoint: "Anchor-1" 722 -685 basechar 0 47
AnchorPoint: "Anchor-0" 459 1051 basechar 0 44
LayerCount: 2
Fore
SplineSet
762 -585 m 0,0,1
 522 -585 522 -585 377.5 -465 c 128,-1,2
 233 -345 233 -345 233 -144 c 0,3,4
 233 87 233 87 400 264 c 1,5,6
 337 283 337 283 278 327 c 128,-1,7
 219 371 219 371 184 430 c 128,-1,8
 149 489 149 489 149 554 c 0,9,10
 149 642 149 642 196 737 c 128,-1,11
 243 832 243 832 318.5 891.5 c 128,-1,12
 394 951 394 951 477 951 c 0,13,14
 549 951 549 951 608 920 c 128,-1,15
 667 889 667 889 757 815 c 1,16,-1
 722 750 l 1,17,18
 602 787 602 787 528 787 c 0,19,20
 402 787 402 787 266 712 c 1,21,22
 266 591 266 591 350 511.5 c 128,-1,23
 434 432 434 432 584 408 c 1,24,25
 734 498 734 498 942 568 c 1,26,27
 965 537 965 537 965 503 c 0,28,29
 965 461 965 461 931 426 c 128,-1,30
 897 391 897 391 807 355 c 0,31,32
 619 281 619 281 514 210 c 128,-1,33
 409 139 409 139 358.5 58.5 c 128,-1,34
 308 -22 308 -22 308 -110 c 0,35,36
 308 -257 308 -257 424.5 -336.5 c 128,-1,37
 541 -416 541 -416 768 -416 c 0,38,39
 909 -416 909 -416 1026.5 -401.5 c 128,-1,40
 1144 -387 1144 -387 1266 -359 c 1,41,-1
 1289 -428 l 1,42,43
 1006 -585 1006 -585 762 -585 c 0,0,1
459 1051 m 1024,44,-1
128 -537 m 1024,45,-1
771 -30 m 1024,46,-1
722 -685 m 1024,47,-1
EndSplineSet
EndChar

StartChar: uni0639.init
Encoding: 65227 65227 302
Width: 1237
GlyphClass: 2
Flags: W
AnchorPoint: "Anchor-1" 722 -685 basechar 0 47
AnchorPoint: "Anchor-0" 459 1051 basechar 0 44
LayerCount: 2
Fore
SplineSet
762 -585 m 0,0,1
 522 -585 522 -585 377.5 -465 c 128,-1,2
 233 -345 233 -345 233 -144 c 0,3,4
 233 87 233 87 400 264 c 1,5,6
 337 283 337 283 278 327 c 128,-1,7
 219 371 219 371 184 430 c 128,-1,8
 149 489 149 489 149 554 c 0,9,10
 149 642 149 642 196 737 c 128,-1,11
 243 832 243 832 318.5 891.5 c 128,-1,12
 394 951 394 951 477 951 c 0,13,14
 549 951 549 951 608 920 c 128,-1,15
 667 889 667 889 757 815 c 1,16,-1
 722 750 l 1,17,18
 602 787 602 787 528 787 c 0,19,20
 402 787 402 787 266 712 c 1,21,22
 266 591 266 591 350 511.5 c 128,-1,23
 434 432 434 432 584 408 c 1,24,25
 734 498 734 498 942 568 c 1,26,27
 965 537 965 537 965 503 c 0,28,29
 965 461 965 461 931 426 c 128,-1,30
 897 391 897 391 807 355 c 0,31,32
 619 281 619 281 514 210 c 128,-1,33
 409 139 409 139 358.5 58.5 c 128,-1,34
 308 -22 308 -22 308 -110 c 0,35,36
 308 -257 308 -257 424.5 -336.5 c 128,-1,37
 541 -416 541 -416 768 -416 c 0,38,39
 909 -416 909 -416 1026.5 -401.5 c 128,-1,40
 1144 -387 1144 -387 1266 -359 c 1,41,-1
 1289 -428 l 1,42,43
 1006 -585 1006 -585 762 -585 c 0,0,1
459 1051 m 1024,44,-1
128 -537 m 1024,45,-1
771 -30 m 1024,46,-1
722 -685 m 1024,47,-1
EndSplineSet
EndChar

StartChar: uni0639.medi
Encoding: 65228 65228 303
Width: 1237
GlyphClass: 2
Flags: W
AnchorPoint: "Anchor-1" 722 -685 basechar 0 47
AnchorPoint: "Anchor-0" 459 1051 basechar 0 44
LayerCount: 2
Fore
SplineSet
762 -585 m 0,0,1
 522 -585 522 -585 377.5 -465 c 128,-1,2
 233 -345 233 -345 233 -144 c 0,3,4
 233 87 233 87 400 264 c 1,5,6
 337 283 337 283 278 327 c 128,-1,7
 219 371 219 371 184 430 c 128,-1,8
 149 489 149 489 149 554 c 0,9,10
 149 642 149 642 196 737 c 128,-1,11
 243 832 243 832 318.5 891.5 c 128,-1,12
 394 951 394 951 477 951 c 0,13,14
 549 951 549 951 608 920 c 128,-1,15
 667 889 667 889 757 815 c 1,16,-1
 722 750 l 1,17,18
 602 787 602 787 528 787 c 0,19,20
 402 787 402 787 266 712 c 1,21,22
 266 591 266 591 350 511.5 c 128,-1,23
 434 432 434 432 584 408 c 1,24,25
 734 498 734 498 942 568 c 1,26,27
 965 537 965 537 965 503 c 0,28,29
 965 461 965 461 931 426 c 128,-1,30
 897 391 897 391 807 355 c 0,31,32
 619 281 619 281 514 210 c 128,-1,33
 409 139 409 139 358.5 58.5 c 128,-1,34
 308 -22 308 -22 308 -110 c 0,35,36
 308 -257 308 -257 424.5 -336.5 c 128,-1,37
 541 -416 541 -416 768 -416 c 0,38,39
 909 -416 909 -416 1026.5 -401.5 c 128,-1,40
 1144 -387 1144 -387 1266 -359 c 1,41,-1
 1289 -428 l 1,42,43
 1006 -585 1006 -585 762 -585 c 0,0,1
459 1051 m 1024,44,-1
128 -537 m 1024,45,-1
771 -30 m 1024,46,-1
722 -685 m 1024,47,-1
EndSplineSet
EndChar

StartChar: uni0643.fina
Encoding: 65242 65242 313
Width: 1142
GlyphClass: 2
Flags: W
AnchorPoint: "Anchor-1" 537 -106 basechar 0 32
AnchorPoint: "Anchor-0" 473 856 basechar 0 75
LayerCount: 2
Fore
SplineSet
463 0 m 0,0,1
 333 0 333 0 184 12 c 128,-1,2
 35 24 35 24 35 40 c 0,3,4
 35 76 35 76 45 127 c 128,-1,5
 55 178 55 178 68 198 c 1,6,7
 148 180 148 180 269.5 168 c 128,-1,8
 391 156 391 156 501 156 c 0,9,10
 721 156 721 156 943 196 c 1,11,-1
 920 317 l 1,12,-1
 858 683 l 2,13,14
 832 815 832 815 809 983 c 128,-1,15
 786 1151 786 1151 786 1213 c 0,16,17
 786 1280 786 1280 817 1319 c 128,-1,18
 848 1358 848 1358 921 1374 c 1,19,20
 940 1299 940 1299 958 1246 c 2,21,-1
 994 1131 l 1,22,-1
 940 1085 l 1,23,-1
 967 814 l 1,24,25
 992 606 992 606 1006 437.5 c 128,-1,26
 1020 269 1020 269 1020 221 c 0,27,28
 1020 164 1020 164 999.5 120 c 128,-1,29
 979 76 979 76 947 34 c 1,30,31
 717 0 717 0 463 0 c 0,0,1
537 -106 m 1024,32,-1
555 549 m 1,33,34
 501 550 501 550 462.5 555 c 128,-1,35
 424 560 424 560 399.5 571 c 128,-1,36
 375 582 375 582 363.5 600.5 c 128,-1,37
 352 619 352 619 352 648 c 0,38,39
 352 672 352 672 366 699.5 c 128,-1,40
 380 727 380 727 403 750.5 c 128,-1,41
 426 774 426 774 454.5 790 c 128,-1,42
 483 806 483 806 513 806 c 0,43,44
 568 806 568 806 581 749 c 1,45,-1
 548 735 l 1,46,47
 539 745 539 745 525 745 c 0,48,49
 513 745 513 745 496.5 736 c 128,-1,50
 480 727 480 727 464.5 712.5 c 128,-1,51
 449 698 449 698 436 680.5 c 128,-1,52
 423 663 423 663 419 645 c 1,53,54
 438 636 438 636 461.5 631.5 c 128,-1,55
 485 627 485 627 508 623.5 c 128,-1,56
 531 620 531 620 552.5 615 c 128,-1,57
 574 610 574 610 588 600 c 0,58,59
 599 593 599 593 603 583 c 128,-1,60
 607 573 607 573 607 562 c 0,61,62
 607 544 607 544 585 515.5 c 128,-1,63
 563 487 563 487 528.5 461 c 128,-1,64
 494 435 494 435 451.5 416 c 128,-1,65
 409 397 409 397 368 397 c 0,66,67
 343 397 343 397 332 409 c 128,-1,68
 321 421 321 421 321 438 c 1,69,70
 375 443 375 443 425 461.5 c 128,-1,71
 475 480 475 480 510 504 c 0,72,73
 526 515 526 515 537.5 526 c 128,-1,74
 549 537 549 537 555 549 c 1,33,34
473 856 m 1024,75,-1
EndSplineSet
EndChar

StartChar: uni0643.init
Encoding: 65243 65243 314
Width: 1142
GlyphClass: 2
Flags: W
AnchorPoint: "Anchor-1" 537 -106 basechar 0 32
AnchorPoint: "Anchor-0" 473 856 basechar 0 75
LayerCount: 2
Fore
SplineSet
463 0 m 0,0,1
 333 0 333 0 184 12 c 128,-1,2
 35 24 35 24 35 40 c 0,3,4
 35 76 35 76 45 127 c 128,-1,5
 55 178 55 178 68 198 c 1,6,7
 148 180 148 180 269.5 168 c 128,-1,8
 391 156 391 156 501 156 c 0,9,10
 721 156 721 156 943 196 c 1,11,-1
 920 317 l 1,12,-1
 858 683 l 2,13,14
 832 815 832 815 809 983 c 128,-1,15
 786 1151 786 1151 786 1213 c 0,16,17
 786 1280 786 1280 817 1319 c 128,-1,18
 848 1358 848 1358 921 1374 c 1,19,20
 940 1299 940 1299 958 1246 c 2,21,-1
 994 1131 l 1,22,-1
 940 1085 l 1,23,-1
 967 814 l 1,24,25
 992 606 992 606 1006 437.5 c 128,-1,26
 1020 269 1020 269 1020 221 c 0,27,28
 1020 164 1020 164 999.5 120 c 128,-1,29
 979 76 979 76 947 34 c 1,30,31
 717 0 717 0 463 0 c 0,0,1
537 -106 m 1024,32,-1
555 549 m 1,33,34
 501 550 501 550 462.5 555 c 128,-1,35
 424 560 424 560 399.5 571 c 128,-1,36
 375 582 375 582 363.5 600.5 c 128,-1,37
 352 619 352 619 352 648 c 0,38,39
 352 672 352 672 366 699.5 c 128,-1,40
 380 727 380 727 403 750.5 c 128,-1,41
 426 774 426 774 454.5 790 c 128,-1,42
 483 806 483 806 513 806 c 0,43,44
 568 806 568 806 581 749 c 1,45,-1
 548 735 l 1,46,47
 539 745 539 745 525 745 c 0,48,49
 513 745 513 745 496.5 736 c 128,-1,50
 480 727 480 727 464.5 712.5 c 128,-1,51
 449 698 449 698 436 680.5 c 128,-1,52
 423 663 423 663 419 645 c 1,53,54
 438 636 438 636 461.5 631.5 c 128,-1,55
 485 627 485 627 508 623.5 c 128,-1,56
 531 620 531 620 552.5 615 c 128,-1,57
 574 610 574 610 588 600 c 0,58,59
 599 593 599 593 603 583 c 128,-1,60
 607 573 607 573 607 562 c 0,61,62
 607 544 607 544 585 515.5 c 128,-1,63
 563 487 563 487 528.5 461 c 128,-1,64
 494 435 494 435 451.5 416 c 128,-1,65
 409 397 409 397 368 397 c 0,66,67
 343 397 343 397 332 409 c 128,-1,68
 321 421 321 421 321 438 c 1,69,70
 375 443 375 443 425 461.5 c 128,-1,71
 475 480 475 480 510 504 c 0,72,73
 526 515 526 515 537.5 526 c 128,-1,74
 549 537 549 537 555 549 c 1,33,34
473 856 m 1024,75,-1
EndSplineSet
EndChar

StartChar: uni0643.medi
Encoding: 65244 65244 315
Width: 1142
GlyphClass: 2
Flags: W
AnchorPoint: "Anchor-1" 537 -106 basechar 0 32
AnchorPoint: "Anchor-0" 473 856 basechar 0 75
LayerCount: 2
Fore
SplineSet
463 0 m 0,0,1
 333 0 333 0 184 12 c 128,-1,2
 35 24 35 24 35 40 c 0,3,4
 35 76 35 76 45 127 c 128,-1,5
 55 178 55 178 68 198 c 1,6,7
 148 180 148 180 269.5 168 c 128,-1,8
 391 156 391 156 501 156 c 0,9,10
 721 156 721 156 943 196 c 1,11,-1
 920 317 l 1,12,-1
 858 683 l 2,13,14
 832 815 832 815 809 983 c 128,-1,15
 786 1151 786 1151 786 1213 c 0,16,17
 786 1280 786 1280 817 1319 c 128,-1,18
 848 1358 848 1358 921 1374 c 1,19,20
 940 1299 940 1299 958 1246 c 2,21,-1
 994 1131 l 1,22,-1
 940 1085 l 1,23,-1
 967 814 l 1,24,25
 992 606 992 606 1006 437.5 c 128,-1,26
 1020 269 1020 269 1020 221 c 0,27,28
 1020 164 1020 164 999.5 120 c 128,-1,29
 979 76 979 76 947 34 c 1,30,31
 717 0 717 0 463 0 c 0,0,1
537 -106 m 1024,32,-1
555 549 m 1,33,34
 501 550 501 550 462.5 555 c 128,-1,35
 424 560 424 560 399.5 571 c 128,-1,36
 375 582 375 582 363.5 600.5 c 128,-1,37
 352 619 352 619 352 648 c 0,38,39
 352 672 352 672 366 699.5 c 128,-1,40
 380 727 380 727 403 750.5 c 128,-1,41
 426 774 426 774 454.5 790 c 128,-1,42
 483 806 483 806 513 806 c 0,43,44
 568 806 568 806 581 749 c 1,45,-1
 548 735 l 1,46,47
 539 745 539 745 525 745 c 0,48,49
 513 745 513 745 496.5 736 c 128,-1,50
 480 727 480 727 464.5 712.5 c 128,-1,51
 449 698 449 698 436 680.5 c 128,-1,52
 423 663 423 663 419 645 c 1,53,54
 438 636 438 636 461.5 631.5 c 128,-1,55
 485 627 485 627 508 623.5 c 128,-1,56
 531 620 531 620 552.5 615 c 128,-1,57
 574 610 574 610 588 600 c 0,58,59
 599 593 599 593 603 583 c 128,-1,60
 607 573 607 573 607 562 c 0,61,62
 607 544 607 544 585 515.5 c 128,-1,63
 563 487 563 487 528.5 461 c 128,-1,64
 494 435 494 435 451.5 416 c 128,-1,65
 409 397 409 397 368 397 c 0,66,67
 343 397 343 397 332 409 c 128,-1,68
 321 421 321 421 321 438 c 1,69,70
 375 443 375 443 425 461.5 c 128,-1,71
 475 480 475 480 510 504 c 0,72,73
 526 515 526 515 537.5 526 c 128,-1,74
 549 537 549 537 555 549 c 1,33,34
473 856 m 1024,75,-1
EndSplineSet
EndChar

StartChar: uni0644.fina
Encoding: 65246 65246 316
Width: 1219
GlyphClass: 2
Flags: W
AnchorPoint: "Anchor-1" 630 -636 basechar 0 38
AnchorPoint: "Anchor-0" 818 1474 basechar 0 35
LayerCount: 2
Fore
SplineSet
1015 -111 m 1,0,-1
 963 220 l 1,1,2
 876 740 876 740 848.5 944.5 c 128,-1,3
 821 1149 821 1149 821 1214 c 0,4,5
 821 1283 821 1283 853 1321 c 128,-1,6
 885 1359 885 1359 955 1374 c 1,7,8
 958 1361 958 1361 961 1350 c 128,-1,9
 964 1339 964 1339 1028 1131 c 1,10,-1
 980 1089 l 1,11,-1
 984 1057 l 1,12,-1
 1051 450 l 1,13,14
 1091 145 1091 145 1091 -34 c 0,15,16
 1091 -161 1091 -161 1012 -276 c 128,-1,17
 933 -391 933 -391 795 -463.5 c 128,-1,18
 657 -536 657 -536 510 -536 c 0,19,20
 335 -536 335 -536 237 -435.5 c 128,-1,21
 139 -335 139 -335 139 -151 c 0,22,23
 139 -92 139 -92 146.5 -39.5 c 128,-1,24
 154 13 154 13 179 114 c 1,25,-1
 254 96 l 1,26,27
 231 6 231 6 231 -50 c 0,28,29
 231 -200 231 -200 306 -283.5 c 128,-1,30
 381 -367 381 -367 515 -367 c 0,31,32
 612 -367 612 -367 717 -333 c 128,-1,33
 822 -299 822 -299 902 -240 c 128,-1,34
 982 -181 982 -181 1015 -111 c 1,0,-1
818 1474 m 1024,35,-1
68 -537 m 1024,36,-1
471 969 m 1024,37,-1
630 -636 m 1024,38,-1
EndSplineSet
EndChar

StartChar: uni0644.init
Encoding: 65247 65247 317
Width: 1219
GlyphClass: 2
Flags: W
AnchorPoint: "Anchor-1" 630 -636 basechar 0 38
AnchorPoint: "Anchor-0" 818 1474 basechar 0 35
LayerCount: 2
Fore
SplineSet
1015 -111 m 1,0,-1
 963 220 l 1,1,2
 876 740 876 740 848.5 944.5 c 128,-1,3
 821 1149 821 1149 821 1214 c 0,4,5
 821 1283 821 1283 853 1321 c 128,-1,6
 885 1359 885 1359 955 1374 c 1,7,8
 958 1361 958 1361 961 1350 c 128,-1,9
 964 1339 964 1339 1028 1131 c 1,10,-1
 980 1089 l 1,11,-1
 984 1057 l 1,12,-1
 1051 450 l 1,13,14
 1091 145 1091 145 1091 -34 c 0,15,16
 1091 -161 1091 -161 1012 -276 c 128,-1,17
 933 -391 933 -391 795 -463.5 c 128,-1,18
 657 -536 657 -536 510 -536 c 0,19,20
 335 -536 335 -536 237 -435.5 c 128,-1,21
 139 -335 139 -335 139 -151 c 0,22,23
 139 -92 139 -92 146.5 -39.5 c 128,-1,24
 154 13 154 13 179 114 c 1,25,-1
 254 96 l 1,26,27
 231 6 231 6 231 -50 c 0,28,29
 231 -200 231 -200 306 -283.5 c 128,-1,30
 381 -367 381 -367 515 -367 c 0,31,32
 612 -367 612 -367 717 -333 c 128,-1,33
 822 -299 822 -299 902 -240 c 128,-1,34
 982 -181 982 -181 1015 -111 c 1,0,-1
818 1474 m 1024,35,-1
68 -537 m 1024,36,-1
471 969 m 1024,37,-1
630 -636 m 1024,38,-1
EndSplineSet
Substitution2: "Single Substitution lookup 8 subtable" LA_Lam.isol
EndChar

StartChar: uni0644.medi
Encoding: 65248 65248 318
Width: 1219
GlyphClass: 2
Flags: W
AnchorPoint: "Anchor-1" 630 -636 basechar 0 38
AnchorPoint: "Anchor-0" 818 1474 basechar 0 35
LayerCount: 2
Fore
SplineSet
1015 -111 m 1,0,-1
 963 220 l 1,1,2
 876 740 876 740 848.5 944.5 c 128,-1,3
 821 1149 821 1149 821 1214 c 0,4,5
 821 1283 821 1283 853 1321 c 128,-1,6
 885 1359 885 1359 955 1374 c 1,7,8
 958 1361 958 1361 961 1350 c 128,-1,9
 964 1339 964 1339 1028 1131 c 1,10,-1
 980 1089 l 1,11,-1
 984 1057 l 1,12,-1
 1051 450 l 1,13,14
 1091 145 1091 145 1091 -34 c 0,15,16
 1091 -161 1091 -161 1012 -276 c 128,-1,17
 933 -391 933 -391 795 -463.5 c 128,-1,18
 657 -536 657 -536 510 -536 c 0,19,20
 335 -536 335 -536 237 -435.5 c 128,-1,21
 139 -335 139 -335 139 -151 c 0,22,23
 139 -92 139 -92 146.5 -39.5 c 128,-1,24
 154 13 154 13 179 114 c 1,25,-1
 254 96 l 1,26,27
 231 6 231 6 231 -50 c 0,28,29
 231 -200 231 -200 306 -283.5 c 128,-1,30
 381 -367 381 -367 515 -367 c 0,31,32
 612 -367 612 -367 717 -333 c 128,-1,33
 822 -299 822 -299 902 -240 c 128,-1,34
 982 -181 982 -181 1015 -111 c 1,0,-1
818 1474 m 1024,35,-1
68 -537 m 1024,36,-1
471 969 m 1024,37,-1
630 -636 m 1024,38,-1
EndSplineSet
Substitution2: "Single Substitution lookup 9 subtable" LA_Lam.fina
EndChar

StartChar: uni0645.fina
Encoding: 65250 65250 319
Width: 1001
GlyphClass: 2
Flags: W
AnchorPoint: "Anchor-1" 600 -102 basechar 0 37
AnchorPoint: "Anchor-0" 455 815 basechar 0 36
LayerCount: 2
Fore
SplineSet
315 -548 m 1,0,1
 258 -593 258 -593 178 -625 c 1,2,3
 177 -467 177 -467 157 -242 c 0,4,5
 139 -35 139 -35 139 10 c 0,6,7
 139 49 139 49 159 98 c 128,-1,8
 179 147 179 147 204 200 c 1,9,10
 317 235 317 235 435 252 c 128,-1,11
 553 269 553 269 733 269 c 1,12,-1
 690 331 l 1,13,14
 562 545 562 545 468 545 c 0,15,16
 420 545 420 545 375.5 509.5 c 128,-1,17
 331 474 331 474 279 393 c 1,18,-1
 212 426 l 1,19,20
 266 564 266 564 343.5 639.5 c 128,-1,21
 421 715 421 715 507 715 c 0,22,23
 553 715 553 715 597.5 682.5 c 128,-1,24
 642 650 642 650 694 581 c 0,25,26
 761 490 761 490 814.5 429 c 128,-1,27
 868 368 868 368 922 327 c 1,28,-1
 844 118 l 1,29,30
 627 118 627 118 479 98.5 c 128,-1,31
 331 79 331 79 217 40 c 1,32,-1
 231 -54 l 1,33,-1
 258 -199 l 2,34,35
 297 -399 297 -399 315 -548 c 1,0,1
455 815 m 1024,36,-1
600 -102 m 1024,37,-1
EndSplineSet
EndChar

StartChar: uni0645.init
Encoding: 65251 65251 320
Width: 1001
GlyphClass: 2
Flags: W
AnchorPoint: "Anchor-1" 600 -102 basechar 0 37
AnchorPoint: "Anchor-0" 455 815 basechar 0 36
LayerCount: 2
Fore
SplineSet
315 -548 m 1,0,1
 258 -593 258 -593 178 -625 c 1,2,3
 177 -467 177 -467 157 -242 c 0,4,5
 139 -35 139 -35 139 10 c 0,6,7
 139 49 139 49 159 98 c 128,-1,8
 179 147 179 147 204 200 c 1,9,10
 317 235 317 235 435 252 c 128,-1,11
 553 269 553 269 733 269 c 1,12,-1
 690 331 l 1,13,14
 562 545 562 545 468 545 c 0,15,16
 420 545 420 545 375.5 509.5 c 128,-1,17
 331 474 331 474 279 393 c 1,18,-1
 212 426 l 1,19,20
 266 564 266 564 343.5 639.5 c 128,-1,21
 421 715 421 715 507 715 c 0,22,23
 553 715 553 715 597.5 682.5 c 128,-1,24
 642 650 642 650 694 581 c 0,25,26
 761 490 761 490 814.5 429 c 128,-1,27
 868 368 868 368 922 327 c 1,28,-1
 844 118 l 1,29,30
 627 118 627 118 479 98.5 c 128,-1,31
 331 79 331 79 217 40 c 1,32,-1
 231 -54 l 1,33,-1
 258 -199 l 2,34,35
 297 -399 297 -399 315 -548 c 1,0,1
455 815 m 1024,36,-1
600 -102 m 1024,37,-1
EndSplineSet
EndChar

StartChar: uni0645.medi
Encoding: 65252 65252 321
Width: 1001
GlyphClass: 2
Flags: W
AnchorPoint: "Anchor-1" 600 -102 basechar 0 37
AnchorPoint: "Anchor-0" 455 815 basechar 0 36
LayerCount: 2
Fore
SplineSet
315 -548 m 1,0,1
 258 -593 258 -593 178 -625 c 1,2,3
 177 -467 177 -467 157 -242 c 0,4,5
 139 -35 139 -35 139 10 c 0,6,7
 139 49 139 49 159 98 c 128,-1,8
 179 147 179 147 204 200 c 1,9,10
 317 235 317 235 435 252 c 128,-1,11
 553 269 553 269 733 269 c 1,12,-1
 690 331 l 1,13,14
 562 545 562 545 468 545 c 0,15,16
 420 545 420 545 375.5 509.5 c 128,-1,17
 331 474 331 474 279 393 c 1,18,-1
 212 426 l 1,19,20
 266 564 266 564 343.5 639.5 c 128,-1,21
 421 715 421 715 507 715 c 0,22,23
 553 715 553 715 597.5 682.5 c 128,-1,24
 642 650 642 650 694 581 c 0,25,26
 761 490 761 490 814.5 429 c 128,-1,27
 868 368 868 368 922 327 c 1,28,-1
 844 118 l 1,29,30
 627 118 627 118 479 98.5 c 128,-1,31
 331 79 331 79 217 40 c 1,32,-1
 231 -54 l 1,33,-1
 258 -199 l 2,34,35
 297 -399 297 -399 315 -548 c 1,0,1
455 815 m 1024,36,-1
600 -102 m 1024,37,-1
EndSplineSet
EndChar

StartChar: uni0647.fina
Encoding: 65258 65258 325
Width: 836
GlyphClass: 2
Flags: W
AnchorPoint: "Anchor-1" 441 -106 basechar 0 34
AnchorPoint: "Anchor-0" 346 936 basechar 0 32
LayerCount: 2
Fore
SplineSet
290 738 m 0,0,1
 290 770 290 770 305.5 798 c 128,-1,2
 321 826 321 826 345 836 c 1,3,4
 437 804 437 804 524.5 727.5 c 128,-1,5
 612 651 612 651 671.5 547.5 c 128,-1,6
 731 444 731 444 731 360 c 0,7,8
 731 299 731 299 683 193 c 128,-1,9
 635 87 635 87 592 57 c 0,10,11
 506 0 506 0 390 0 c 0,12,13
 275 0 275 0 207 67.5 c 128,-1,14
 139 135 139 135 139 258 c 0,15,16
 139 354 139 354 187.5 450.5 c 128,-1,17
 236 547 236 547 341 647 c 1,18,19
 309 666 309 666 299.5 690 c 128,-1,20
 290 714 290 714 290 738 c 0,0,1
233 318 m 0,21,22
 233 245 233 245 280 204 c 128,-1,23
 327 163 327 163 412 163 c 0,24,25
 467 163 467 163 532 193 c 128,-1,26
 597 223 597 223 630 254 c 1,27,28
 588 456 588 456 399 603 c 1,29,30
 323 532 323 532 278 454.5 c 128,-1,31
 233 377 233 377 233 318 c 0,21,22
346 936 m 1024,32,-1
441 -60 m 1024,33,-1
441 -106 m 1024,34,-1
EndSplineSet
EndChar

StartChar: uni0647.init
Encoding: 65259 65259 326
Width: 836
GlyphClass: 2
Flags: W
AnchorPoint: "Anchor-1" 441 -106 basechar 0 34
AnchorPoint: "Anchor-0" 346 936 basechar 0 32
LayerCount: 2
Fore
SplineSet
290 738 m 0,0,1
 290 770 290 770 305.5 798 c 128,-1,2
 321 826 321 826 345 836 c 1,3,4
 437 804 437 804 524.5 727.5 c 128,-1,5
 612 651 612 651 671.5 547.5 c 128,-1,6
 731 444 731 444 731 360 c 0,7,8
 731 299 731 299 683 193 c 128,-1,9
 635 87 635 87 592 57 c 0,10,11
 506 0 506 0 390 0 c 0,12,13
 275 0 275 0 207 67.5 c 128,-1,14
 139 135 139 135 139 258 c 0,15,16
 139 354 139 354 187.5 450.5 c 128,-1,17
 236 547 236 547 341 647 c 1,18,19
 309 666 309 666 299.5 690 c 128,-1,20
 290 714 290 714 290 738 c 0,0,1
233 318 m 0,21,22
 233 245 233 245 280 204 c 128,-1,23
 327 163 327 163 412 163 c 0,24,25
 467 163 467 163 532 193 c 128,-1,26
 597 223 597 223 630 254 c 1,27,28
 588 456 588 456 399 603 c 1,29,30
 323 532 323 532 278 454.5 c 128,-1,31
 233 377 233 377 233 318 c 0,21,22
346 936 m 1024,32,-1
441 -60 m 1024,33,-1
441 -106 m 1024,34,-1
EndSplineSet
EndChar

StartChar: uni0647.medi
Encoding: 65260 65260 327
Width: 836
GlyphClass: 2
Flags: W
AnchorPoint: "Anchor-1" 441 -106 basechar 0 34
AnchorPoint: "Anchor-0" 346 936 basechar 0 32
LayerCount: 2
Fore
SplineSet
290 738 m 0,0,1
 290 770 290 770 305.5 798 c 128,-1,2
 321 826 321 826 345 836 c 1,3,4
 437 804 437 804 524.5 727.5 c 128,-1,5
 612 651 612 651 671.5 547.5 c 128,-1,6
 731 444 731 444 731 360 c 0,7,8
 731 299 731 299 683 193 c 128,-1,9
 635 87 635 87 592 57 c 0,10,11
 506 0 506 0 390 0 c 0,12,13
 275 0 275 0 207 67.5 c 128,-1,14
 139 135 139 135 139 258 c 0,15,16
 139 354 139 354 187.5 450.5 c 128,-1,17
 236 547 236 547 341 647 c 1,18,19
 309 666 309 666 299.5 690 c 128,-1,20
 290 714 290 714 290 738 c 0,0,1
233 318 m 0,21,22
 233 245 233 245 280 204 c 128,-1,23
 327 163 327 163 412 163 c 0,24,25
 467 163 467 163 532 193 c 128,-1,26
 597 223 597 223 630 254 c 1,27,28
 588 456 588 456 399 603 c 1,29,30
 323 532 323 532 278 454.5 c 128,-1,31
 233 377 233 377 233 318 c 0,21,22
346 936 m 1024,32,-1
441 -60 m 1024,33,-1
441 -106 m 1024,34,-1
EndSplineSet
EndChar

